<svg xmlns="http://www.w3.org/2000/svg" xmlns:xlink="http://www.w3.org/1999/xlink" width="600" height="579.785" viewBox="0 0 600 579.785"><defs><linearGradient id="a" x1="-0.205" y1="0.358" x2="1.107" y2="0.591" gradientUnits="objectBoundingBox"><stop offset="0" stop-color="#6179f8"></stop><stop offset="1" stop-color="#f5d361"></stop></linearGradient><clipPath id="ao"><rect width="600" height="579.785" fill="url(#a)"></rect></clipPath><clipPath id="ap"><path d="M199.045,76.607V76.6L172.928,91.692A85.4,85.4,0,0,0,158.9,81.409c-14.883-8.592-28.338-9.314-38.01-3.555V77.84L56.066,115.5,108,132.1c6.8,28.911,27.009,58.7,50.892,72.49l46.9,27.074v-5.649h48.152v33.449l91.81,53.009,13.971,67.219,63.98-37.137.041-.023.2-.119-.018-.006c7.872-4.671,12.742-14.5,12.742-28.471h0c0-28.181-19.787-62.446-44.192-76.539-6.328-3.653-12.343-5.577-17.783-5.954.014-.462.059-.9.059-1.37,0-22.033-15.468-48.827-34.551-59.842a31.793,31.793,0,0,0-14.715-4.659C312,130.395,286.517,97.188,257.277,80.3c-12.582-7.264-24.471-10.7-35-10.7a39.7,39.7,0,0,0-23.227,7.007" transform="translate(-56.066 -69.6)" fill="url(#a)"></path></clipPath><clipPath id="ar"><rect width="395.299" height="313.142" fill="url(#a)"></rect></clipPath><clipPath id="at"><path d="M199.044,76.609V76.6L172.927,91.692A85.266,85.266,0,0,0,158.9,81.413c-14.881-8.6-28.334-9.32-38.006-3.553v-.016L56.067,115.5v0L108,132.1c6.8,28.911,27.009,58.705,50.892,72.49l46.9,27.08v-5.655h48.152v33.455l91.806,53.009,13.969,67.211,63.98-37.136.037-.023.2-.115-.018-.01c7.872-4.667,12.742-14.5,12.742-28.473l.006,0c0-28.179-19.787-62.446-44.194-76.539-6.33-3.653-12.339-5.577-17.785-5.952.016-.46.061-.894.061-1.368,0-22.037-15.47-48.827-34.551-59.846a31.733,31.733,0,0,0-14.715-4.653C312,130.395,286.52,97.188,257.276,80.307c-12.58-7.265-24.467-10.705-35-10.707a39.7,39.7,0,0,0-23.229,7.009" transform="translate(-56.067 -69.6)" fill="url(#a)"></path></clipPath><clipPath id="av"><rect width="102.945" height="102.325" fill="url(#a)"></rect></clipPath><clipPath id="aw"><path d="M52.045,102.867c9.649-10.322,25.6-11.529,43.687-1.088a94.676,94.676,0,0,1,23.368,19.7l0,0h0l0,0c.511-1.644,1.108-3.193,1.73-4.714a93.607,93.607,0,0,0-22.274-18.54c-8.545-4.935-16.619-7.271-23.775-7.271a26.437,26.437,0,0,0-22.736,11.909" transform="translate(-52.045 -90.958)" fill="url(#a)"></path></clipPath><clipPath id="ay"><path d="M91.409,105.407c14.077-16.02,37.932-18.171,65.041-2.516,29.244,16.881,54.729,50.087,68.209,85.27a31.737,31.737,0,0,1,14.715,4.655c19.082,11.015,34.553,37.809,34.553,59.842,0,.474-.047.912-.061,1.372,5.44.376,11.455,2.3,17.783,5.952,24.409,14.093,44.192,48.362,44.192,76.539l0,0c0,8.778-1.922,15.926-5.3,21.188,5.005-5.268,8.015-13.443,8.128-24.105v-1.284c-.3-28.052-19.971-61.906-44.188-75.889-6.328-3.653-12.343-5.575-17.787-5.951.014-.464.063-.9.063-1.37,0-22.035-15.47-48.827-34.549-59.844a31.769,31.769,0,0,0-14.717-4.657c-13.486-35.179-38.969-68.389-68.209-85.27-12.574-7.26-24.446-10.7-34.973-10.7-13.76,0-25.215,5.876-32.9,16.762" transform="translate(-91.409 -88.645)" fill="url(#a)"></path></clipPath><clipPath id="ba"><path d="M85.631,199.7c2.092-8.091,4.184-18.272,6.007-26.9h.524c2.086,8.488,4.174,18.8,6.264,26.9l1.436,5.876H84.2Zm-6.786-43.6L53,240.947H75.969l4.178-18.008h23.765l4.178,18.008h23.757L106,156.1ZM162.4,173.855h7.573c8.616,0,13.572,2.873,13.572,10.443s-4.178,12.009-13.056,12.009H162.4ZM139.947,156.1v84.844H162.4V214.064h9.134c17.756,0,33.94-9.007,33.94-29.764,0-21.405-15.924-28.193-34.461-28.193l-20.714,0Zm79.378,84.844h22.454V156.1H219.325Z" transform="translate(-53.004 -156.103)" fill="url(#a)"></path></clipPath><clipPath id="bc"><path d="M125.264,120.159A94.6,94.6,0,0,0,101.9,100.45c-29.465-17.01-53.343-3.225-53.343,30.794,0,25.947,13.911,56.13,33.574,76.559h39.887l10.146,33.3,1.44.83V207.8H177.52c15.261,0,27.322,4.1,35.461,11.561V207.8h48.152V315.565l74.345,42.924c7,4.041,13.611,5.982,19.489,6.037h.489c14.259-.125,24.062-11.494,24.211-31.093v-.91c-.211-28.1-19.914-62.067-44.19-76.085v0c-6.328-3.653-12.343-5.577-17.785-5.952.014-.462.061-.894.061-1.374,0-22.031-15.47-48.823-34.549-59.842a31.751,31.751,0,0,0-14.719-4.655c-13.48-35.177-38.963-68.385-68.205-85.268-12.584-7.264-24.475-10.705-35.012-10.705-19.061,0-33.7,11.259-40,31.52" transform="translate(-48.557 -88.639)" fill="url(#a)"></path></clipPath><clipPath id="be"><path d="M165.9,303.833c-6.328-2.332-12.384-10.68-13.529-18.646a12.8,12.8,0,0,1,.747-7.224,9.573,9.573,0,0,1,2.493.569c6.328,2.331,12.386,10.68,13.529,18.646a12.792,12.792,0,0,1-.757,7.246,9.961,9.961,0,0,1-2.483-.591m-10.449-48.784v-.008l-6.17,3.561.01.006a.977.977,0,0,0-.436.969l.155,2.655-3.957-4.763a1.292,1.292,0,0,0-1.63-.344l0-.006-6.158,3.555.014.018a1.313,1.313,0,0,0-.384.276l-2.7,2.937a2.111,2.111,0,0,0-.217,2.424l4.215,6.661a3.674,3.674,0,0,1,.438,1.937l-.569-.133a1.138,1.138,0,0,0-.841.092v0l-6.1,3.524-.01,0-.07.041.008,0a1.012,1.012,0,0,0-.409,1.057l1.057,7.35a3.271,3.271,0,0,0,1.591,2.2l4.984,2.473a4.39,4.39,0,0,1,1.873,2.131q.769,2.1,1.753,4.142a3.019,3.019,0,0,1-.145,2.659l-2.037,3.158a2.407,2.407,0,0,0,.069,2.528l5.086,7.011a1.5,1.5,0,0,0,2.125.321l2.638-1.98a1.875,1.875,0,0,1,2.329.145,35.257,35.257,0,0,0,2.943,2.448,4.718,4.718,0,0,1,1.589,2.377l1.532,6.858a3.138,3.138,0,0,0,1.773,2.025l5.371,1.978a1.046,1.046,0,0,0,.924-.037l0,.008,6.127-3.538-.008-.006a.977.977,0,0,0,.448-.974l-.155-2.657,3.955,4.765a1.279,1.279,0,0,0,1.687.29l0,.029,6.131-3.542,0-.008a1.437,1.437,0,0,0,.346-.266l2.7-2.941a2.106,2.106,0,0,0,.219-2.423l-4.213-6.663a3.629,3.629,0,0,1-.44-1.937l.569.135a1.141,1.141,0,0,0,.834-.088l0,0,6.148-3.554-.006,0a1,1,0,0,0,.438-1.076l-1.055-7.35a3.268,3.268,0,0,0-1.591-2.2l-4.986-2.477a4.388,4.388,0,0,1-1.873-2.129c-.513-1.4-1.1-2.786-1.751-4.143a3.007,3.007,0,0,1,.145-2.659l2.037-3.156a2.41,2.41,0,0,0-.07-2.53l-5.086-7.011a1.5,1.5,0,0,0-1.947-.427l-.006-.006-4.158,2.4a1.838,1.838,0,0,1-.982-.454,34.64,34.64,0,0,0-2.941-2.45,4.707,4.707,0,0,1-1.587-2.377l-1.532-6.857a3.137,3.137,0,0,0-1.775-2.025l-5.371-1.98a1.322,1.322,0,0,0-.452-.086.9.9,0,0,0-.442.108" transform="translate(-130.626 -254.941)" fill="url(#a)"></path></clipPath><clipPath id="bh"><rect width="60.268" height="72.483" fill="url(#a)"></rect></clipPath><clipPath id="bi"><path d="M154.905,314.1a4.731,4.731,0,0,1,1.589,2.378l1.532,6.858a3.133,3.133,0,0,0,1.773,2.025l5.371,1.978a1.046,1.046,0,0,0,.924-.037l0,.008,6.127-3.54-.01,0a.98.98,0,0,0,.45-.974l-.155-2.657,3.955,4.765a1.277,1.277,0,0,0,1.689.288v.031l6.131-3.542,0-.006a1.528,1.528,0,0,0,.344-.27l2.7-2.937a2.112,2.112,0,0,0,.217-2.424l-4.213-6.661a3.617,3.617,0,0,1-.438-1.939l.567.135a1.14,1.14,0,0,0,.834-.088l0,0,6.148-3.554h-.006a1,1,0,0,0,.438-1.078l-1.057-7.35a3.26,3.26,0,0,0-1.589-2.2l-4.986-2.475a4.4,4.4,0,0,1-1.873-2.131c-.513-1.4-1.1-2.785-1.751-4.143a3.013,3.013,0,0,1,.143-2.659l2.039-3.156a2.411,2.411,0,0,0-.07-2.528l-5.086-7.011a1.5,1.5,0,0,0-1.947-.429l-.006-.006-4.158,2.4a1.84,1.84,0,0,1-.98-.454,35.279,35.279,0,0,0-2.943-2.45,4.714,4.714,0,0,1-1.589-2.378l-1.532-6.857a3.129,3.129,0,0,0-1.773-2.025l-5.371-1.98a1.063,1.063,0,0,0-.894.022v-.01l-6.168,3.563.008.006a.982.982,0,0,0-.438.969l.157,2.655-3.957-4.763a1.292,1.292,0,0,0-1.63-.344l0-.006-6.16,3.555.014.016a1.428,1.428,0,0,0-.384.278l-2.7,2.937a2.109,2.109,0,0,0-.219,2.422l4.213,6.663a3.633,3.633,0,0,1,.44,1.937l-.569-.133a1.128,1.128,0,0,0-.841.094l0-.006-6.1,3.522-.008.006-.07.039.008,0a1.01,1.01,0,0,0-.409,1.057l1.057,7.35a3.265,3.265,0,0,0,1.591,2.2l4.984,2.475a4.383,4.383,0,0,1,1.873,2.131c.513,1.4,1.1,2.785,1.753,4.141a3.019,3.019,0,0,1-.145,2.659l-2.037,3.158a2.407,2.407,0,0,0,.069,2.528l5.086,7.011a1.506,1.506,0,0,0,2.127.321l2.636-1.98a1.875,1.875,0,0,1,2.329.145,35.2,35.2,0,0,0,2.943,2.448m.71-35.564c6.328,2.33,12.384,10.68,13.529,18.646a12.775,12.775,0,0,1-.757,7.246,9.964,9.964,0,0,1-2.483-.591c-6.328-2.333-12.384-10.68-13.529-18.648a12.8,12.8,0,0,1,.747-7.222,9.583,9.583,0,0,1,2.493.569" transform="translate(-130.626 -254.941)" fill="url(#a)"></path></clipPath><clipPath id="bk"><rect width="18.135" height="22.459" fill="url(#a)"></rect></clipPath><clipPath id="bl"><path d="M147.548,266.322a1.488,1.488,0,0,0,1.444-1.56l-.2-3.528-3.959-4.763a1.3,1.3,0,0,0-1.626-.341l-6.082,3.518a1.288,1.288,0,0,1,1.565.374l4.859,5.855a2.588,2.588,0,0,0,2.432.706,10.334,10.334,0,0,1,1.569-.262m-16.687,11.116a1.108,1.108,0,0,1,.832-.092l4.446,1.051a1.333,1.333,0,0,0,1.652-1.176,16.407,16.407,0,0,1,.511-2.473,3.105,3.105,0,0,0,.11-.816l-.575-.137a1.164,1.164,0,0,0-.837.1l-.012-.006Z" transform="translate(-130.861 -255.978)" fill="url(#a)"></path></clipPath><clipPath id="bn"><rect width="22.335" height="30.061" fill="url(#a)"></rect></clipPath><clipPath id="bo"><path d="M138.695,277.492c-.986-6.874,2-11.22,6.9-10.768a12.711,12.711,0,0,0-.757,7.217c1.149,7.968,7.2,16.317,13.531,18.654a9.662,9.662,0,0,0,2.475.579c-1.473,3.158-4.624,4.442-8.618,2.972-6.334-2.336-12.382-10.686-13.529-18.654" transform="translate(-138.507 -266.692)" fill="url(#a)"></path></clipPath><clipPath id="bq"><path d="M156.52,317.035a10.044,10.044,0,0,1-1.565.252,3.226,3.226,0,0,0-.391.078,2.714,2.714,0,0,0-.262.115,1.447,1.447,0,0,0-.436.346,1.328,1.328,0,0,0-.313.612,1.05,1.05,0,0,0-.041.407l.36,6.178a1.588,1.588,0,0,1-.037.425.776.776,0,0,1-.2.387.8.8,0,0,1-.182.172l6.125-3.546-.012-.006a1.011,1.011,0,0,0,.454-.976l-.164-2.657-.89-1.084a2.61,2.61,0,0,0-2.448-.7m7.625-6.6a3.214,3.214,0,0,0,.4,1.19l4.213,6.663a2.107,2.107,0,0,1-.217,2.423l-2.708,2.931a1.812,1.812,0,0,1-.325.272l6.127-3.548a1.1,1.1,0,0,0,.34-.276l2.708-2.933a2.124,2.124,0,0,0,.217-2.421l-4.213-6.663a3.213,3.213,0,0,1-.4-1.19Zm6.048-14.282a3.116,3.116,0,0,1,.841,1.6l1.053,7.342a1,1,0,0,1-.444,1.082l.01.006,6.142-3.553a.99.99,0,0,0,.438-1.068L177.18,294.2a3.217,3.217,0,0,0-.845-1.6ZM163.3,279.354a2.39,2.39,0,0,1-.286,1.628l-2.037,3.168a2.476,2.476,0,0,0-.358,1.031l6.164-3.54a2.5,2.5,0,0,1,.339-1.045l2.035-3.166a2.347,2.347,0,0,0,.288-1.63Zm-19.456-19.5a2.983,2.983,0,0,1,.859,1.428l1.507,6.77,6.152-3.546-1.515-6.776a3.036,3.036,0,0,0-.877-1.424Z" transform="translate(-143.844 -256.305)" fill="url(#a)"></path></clipPath><clipPath id="bt"><rect width="34.404" height="69.704" fill="url(#a)"></rect></clipPath><clipPath id="bu"><path d="M166.781,281.641a2.563,2.563,0,0,1,.339-1.045l2.037-3.166a2.344,2.344,0,0,0,.288-1.628l-6.142,3.55a2.407,2.407,0,0,1-.288,1.63l-2.037,3.168a2.476,2.476,0,0,0-.358,1.031ZM177.8,302.628a.991.991,0,0,0,.436-1.07L177.18,294.2a3.242,3.242,0,0,0-.843-1.6l-6.142,3.552a3.149,3.149,0,0,1,.843,1.6l1.049,7.342a.989.989,0,0,1-.442,1.08l.01.008Zm-25.434-38.122-1.517-6.776a3.007,3.007,0,0,0-.875-1.424l-6.127,3.548a2.994,2.994,0,0,1,.861,1.428l1.5,6.77Zm19.272,55.856a1.1,1.1,0,0,0,.34-.276l2.708-2.931a2.124,2.124,0,0,0,.217-2.422l-4.213-6.663a3.177,3.177,0,0,1-.4-1.19l-6.142,3.552a3.177,3.177,0,0,0,.4,1.19l4.213,6.663a2.107,2.107,0,0,1-.217,2.423l-2.708,2.931a1.949,1.949,0,0,1-.323.272Zm-12.054,2.1-.012-.006a1.013,1.013,0,0,0,.454-.978l-.164-2.655-.89-1.084a2.577,2.577,0,0,0-2.448-.7,10.044,10.044,0,0,1-1.565.252,3.418,3.418,0,0,0-.393.078c-.088.033-.182.076-.26.113a1.484,1.484,0,0,0-.436.348,1.337,1.337,0,0,0-.313.612,1.011,1.011,0,0,0-.039.407l.358,6.178a1.588,1.588,0,0,1-.037.425,1,1,0,0,1-.38.562Z" transform="translate(-143.844 -256.305)" fill="url(#a)"></path></clipPath><clipPath id="bw"><path d="M159.762,305.647c-6.328-2.33-12.386-10.678-13.531-18.646s3.056-12.535,9.385-10.2,12.386,10.68,13.529,18.646c.941,6.557-1.738,10.811-6.242,10.813a9.107,9.107,0,0,1-3.141-.611m-10.9-47.8.358,6.177a1.5,1.5,0,0,1-1.442,1.562,10.753,10.753,0,0,0-1.571.256,2.561,2.561,0,0,1-2.434-.706l-4.857-5.847a1.3,1.3,0,0,0-2.017-.051l-2.7,2.937a2.111,2.111,0,0,0-.217,2.424l4.215,6.661a3.845,3.845,0,0,1,.333,2.749,18.626,18.626,0,0,0-.513,2.475,1.328,1.328,0,0,1-1.65,1.174l-4.444-1.047a.976.976,0,0,0-1.276,1.168l1.057,7.35a3.271,3.271,0,0,0,1.591,2.2l4.984,2.473a4.39,4.39,0,0,1,1.873,2.131q.769,2.1,1.753,4.142a3.019,3.019,0,0,1-.145,2.659l-2.037,3.158a2.407,2.407,0,0,0,.068,2.528l5.086,7.011a1.5,1.5,0,0,0,2.125.321l2.638-1.98a1.875,1.875,0,0,1,2.329.145,35.27,35.27,0,0,0,2.943,2.448,4.718,4.718,0,0,1,1.589,2.378l1.532,6.858a3.138,3.138,0,0,0,1.773,2.025l5.371,1.978a.928.928,0,0,0,1.348-1l-.362-6.176a1.5,1.5,0,0,1,1.442-1.563,10.632,10.632,0,0,0,1.573-.256,2.562,2.562,0,0,1,2.434.706l4.857,5.849a1.3,1.3,0,0,0,2.017.051l2.7-2.939a2.109,2.109,0,0,0,.219-2.422l-4.215-6.663a3.845,3.845,0,0,1-.335-2.749,18.62,18.62,0,0,0,.513-2.475,1.326,1.326,0,0,1,1.65-1.172l4.446,1.045a.975.975,0,0,0,1.276-1.166l-1.059-7.352a3.26,3.26,0,0,0-1.589-2.2l-4.984-2.475a4.4,4.4,0,0,1-1.875-2.131c-.513-1.4-1.1-2.784-1.751-4.142a3.013,3.013,0,0,1,.145-2.659l2.037-3.158a2.412,2.412,0,0,0-.068-2.526l-5.086-7.011a1.5,1.5,0,0,0-2.127-.321l-2.636,1.978a1.877,1.877,0,0,1-2.331-.143,35.306,35.306,0,0,0-2.943-2.45,4.731,4.731,0,0,1-1.589-2.377l-1.532-6.859a3.133,3.133,0,0,0-1.773-2.025l-5.371-1.978a1.35,1.35,0,0,0-.466-.09c-.55,0-.922.421-.881,1.09" transform="translate(-130.626 -256.753)" fill="url(#a)"></path></clipPath><clipPath id="bz"><rect width="54.124" height="68.939" fill="url(#a)"></rect></clipPath><clipPath id="ca"><path d="M159.8,323.624l5.371,1.978a.928.928,0,0,0,1.348-1l-.362-6.176a1.5,1.5,0,0,1,1.444-1.563,10.4,10.4,0,0,0,1.571-.256,2.566,2.566,0,0,1,2.434.706l4.857,5.849a1.3,1.3,0,0,0,2.017.051l2.7-2.939a2.105,2.105,0,0,0,.217-2.422l-4.213-6.663a3.844,3.844,0,0,1-.335-2.749,18.65,18.65,0,0,0,.513-2.473,1.328,1.328,0,0,1,1.652-1.174l4.444,1.045a.973.973,0,0,0,1.274-1.166l-1.055-7.352a3.269,3.269,0,0,0-1.591-2.2l-4.984-2.477a4.391,4.391,0,0,1-1.875-2.129c-.513-1.4-1.1-2.786-1.751-4.142a3.013,3.013,0,0,1,.145-2.659l2.037-3.156a2.415,2.415,0,0,0-.07-2.53l-5.086-7.011a1.5,1.5,0,0,0-2.125-.319l-2.636,1.978a1.878,1.878,0,0,1-2.33-.143,35.316,35.316,0,0,0-2.943-2.45,4.707,4.707,0,0,1-1.587-2.377l-1.534-6.857a3.129,3.129,0,0,0-1.771-2.027l-5.371-1.978a.93.93,0,0,0-1.35,1l.362,6.178a1.5,1.5,0,0,1-1.442,1.562,10.466,10.466,0,0,0-1.573.256,2.567,2.567,0,0,1-2.434-.706l-4.857-5.847a1.3,1.3,0,0,0-2.017-.051l-2.7,2.937a2.109,2.109,0,0,0-.219,2.422l4.213,6.663a3.846,3.846,0,0,1,.335,2.749,18.666,18.666,0,0,0-.513,2.473,1.326,1.326,0,0,1-1.65,1.174l-4.446-1.045a.974.974,0,0,0-1.274,1.168l1.057,7.35a3.265,3.265,0,0,0,1.591,2.2l4.984,2.475a4.383,4.383,0,0,1,1.873,2.131c.513,1.4,1.1,2.785,1.753,4.141a3.019,3.019,0,0,1-.145,2.659l-2.037,3.158a2.407,2.407,0,0,0,.069,2.528l5.086,7.011a1.506,1.506,0,0,0,2.127.321l2.636-1.98a1.875,1.875,0,0,1,2.329.145,34.86,34.86,0,0,0,2.943,2.448,4.731,4.731,0,0,1,1.589,2.378l1.532,6.858a3.133,3.133,0,0,0,1.773,2.025M146.231,287c-1.145-7.966,3.058-12.535,9.385-10.2s12.384,10.68,13.529,18.646-3.057,12.535-9.385,10.2S147.376,294.969,146.231,287" transform="translate(-130.626 -256.753)" fill="url(#a)"></path></clipPath><clipPath id="cc"><path d="M160.2,267.234c-7.665-2.826-15-12.938-16.388-22.587a15.492,15.492,0,0,1,.906-8.749,11.491,11.491,0,0,1,3.019.689c7.665,2.824,15,12.936,16.386,22.585a15.472,15.472,0,0,1-.918,8.778,12.1,12.1,0,0,1-3.006-.716M147.54,208.143l0-.01-7.471,4.315.01,0a1.2,1.2,0,0,0-.53,1.176l.19,3.217-4.792-5.769a1.563,1.563,0,0,0-1.974-.419l0-.008-7.459,4.309.018.02a1.64,1.64,0,0,0-.466.335l-3.272,3.557a2.551,2.551,0,0,0-.264,2.935l5.1,8.07a4.386,4.386,0,0,1,.532,2.346l-.689-.16a1.364,1.364,0,0,0-1.019.111v-.006l-7.385,4.268-.008,0-.084.051.006,0a1.231,1.231,0,0,0-.5,1.282l1.282,8.9a3.952,3.952,0,0,0,1.925,2.663l6.039,3A5.334,5.334,0,0,1,129,254.918c.62,1.7,1.331,3.373,2.121,5.015a3.643,3.643,0,0,1-.174,3.221l-2.467,3.825a2.921,2.921,0,0,0,.082,3.062l6.162,8.492a1.822,1.822,0,0,0,2.575.389l3.193-2.4a2.275,2.275,0,0,1,2.822.174,42.451,42.451,0,0,0,3.563,2.966,5.7,5.7,0,0,1,1.924,2.878l1.857,8.308A3.792,3.792,0,0,0,152.8,293.3l6.5,2.4a1.274,1.274,0,0,0,1.121-.047v.01l7.42-4.285-.01-.006a1.189,1.189,0,0,0,.544-1.182l-.188-3.217,4.792,5.771a1.548,1.548,0,0,0,2.045.348l0,.037,7.424-4.289,0-.008a1.713,1.713,0,0,0,.417-.325l3.274-3.559a2.561,2.561,0,0,0,.266-2.937l-5.105-8.068a4.376,4.376,0,0,1-.53-2.348l.687.164a1.389,1.389,0,0,0,1.01-.108l.006,0,7.446-4.3-.006,0a1.216,1.216,0,0,0,.528-1.305l-1.278-8.9a3.952,3.952,0,0,0-1.927-2.663l-6.037-3a5.333,5.333,0,0,1-2.268-2.581c-.622-1.7-1.333-3.373-2.121-5.017a3.643,3.643,0,0,1,.174-3.221l2.466-3.825a2.913,2.913,0,0,0-.082-3.062l-6.162-8.49a1.81,1.81,0,0,0-2.356-.52l-.008-.006-5.037,2.91a2.21,2.21,0,0,1-1.188-.55,42.194,42.194,0,0,0-3.567-2.966,5.725,5.725,0,0,1-1.922-2.88l-1.855-8.3a3.811,3.811,0,0,0-2.147-2.456l-6.508-2.4a1.606,1.606,0,0,0-.548-.1,1.107,1.107,0,0,0-.534.131" transform="translate(-117.463 -208.012)" fill="url(#a)"></path></clipPath><clipPath id="cf"><rect width="73.001" height="87.796" fill="url(#a)"></rect></clipPath><clipPath id="cg"><path d="M146.874,279.665a5.712,5.712,0,0,1,1.922,2.878l1.857,8.306a3.8,3.8,0,0,0,2.148,2.456l6.5,2.4a1.269,1.269,0,0,0,1.119-.047l0,.01,7.422-4.285-.012-.006a1.189,1.189,0,0,0,.544-1.182l-.188-3.217,4.792,5.77a1.544,1.544,0,0,0,2.043.348l0,.037,7.426-4.289,0-.008a1.677,1.677,0,0,0,.417-.327l3.274-3.559a2.554,2.554,0,0,0,.264-2.935l-5.1-8.07a4.382,4.382,0,0,1-.532-2.346l.689.162a1.379,1.379,0,0,0,1.01-.106l.006,0,7.445-4.3-.008,0a1.214,1.214,0,0,0,.532-1.305l-1.28-8.9a3.956,3.956,0,0,0-1.925-2.663l-6.037-3a5.327,5.327,0,0,1-2.27-2.581c-.62-1.7-1.333-3.373-2.123-5.017a3.65,3.65,0,0,1,.176-3.221l2.467-3.825a2.917,2.917,0,0,0-.084-3.062l-6.16-8.49a1.816,1.816,0,0,0-2.36-.52l-.006-.006-5.037,2.91a2.217,2.217,0,0,1-1.188-.55,42.848,42.848,0,0,0-3.565-2.966,5.715,5.715,0,0,1-1.923-2.878l-1.855-8.306a3.8,3.8,0,0,0-2.149-2.454l-6.506-2.4a1.29,1.29,0,0,0-1.084.025v-.012l-7.471,4.317.01.006a1.194,1.194,0,0,0-.53,1.174l.19,3.217-4.792-5.77a1.565,1.565,0,0,0-1.974-.417l0-.008-7.459,4.309.016.02a1.7,1.7,0,0,0-.464.335l-3.272,3.557a2.554,2.554,0,0,0-.264,2.935l5.1,8.07a4.391,4.391,0,0,1,.532,2.346l-.689-.16a1.356,1.356,0,0,0-1.018.114l0-.008-7.383,4.268-.01.006-.086.049.01,0a1.226,1.226,0,0,0-.5,1.28l1.278,8.9a3.96,3.96,0,0,0,1.927,2.663l6.037,3a5.31,5.31,0,0,1,2.27,2.581c.62,1.7,1.333,3.373,2.121,5.017a3.639,3.639,0,0,1-.174,3.219l-2.467,3.825a2.917,2.917,0,0,0,.084,3.062l6.16,8.492a1.82,1.82,0,0,0,2.575.387l3.193-2.4a2.275,2.275,0,0,1,2.822.174,42.169,42.169,0,0,0,3.565,2.966m.859-43.078c7.665,2.824,15,12.936,16.386,22.587a15.486,15.486,0,0,1-.916,8.776,12.115,12.115,0,0,1-3.008-.716c-7.665-2.826-15-12.936-16.388-22.587a15.509,15.509,0,0,1,.906-8.749,11.569,11.569,0,0,1,3.019.689" transform="translate(-117.464 -208.012)" fill="url(#a)"></path></clipPath><clipPath id="ci"><rect width="21.967" height="27.204" fill="url(#a)"></rect></clipPath><clipPath id="cj"><path d="M137.961,221.8a1.8,1.8,0,0,0,1.749-1.89l-.247-4.272-4.794-5.769a1.569,1.569,0,0,0-1.97-.413l-7.365,4.26a1.56,1.56,0,0,1,1.894.454l5.888,7.091a3.135,3.135,0,0,0,2.943.857,12.134,12.134,0,0,1,1.9-.319m-20.213,13.465a1.337,1.337,0,0,1,1.008-.11l5.385,1.272a1.618,1.618,0,0,0,2-1.424,19.955,19.955,0,0,1,.618-3,3.758,3.758,0,0,0,.131-.986l-.7-.166a1.41,1.41,0,0,0-1.014.123l-.014-.008Z" transform="translate(-117.748 -209.268)" fill="url(#a)"></path></clipPath><clipPath id="cl"><rect width="27.056" height="36.411" fill="url(#a)"></rect></clipPath><clipPath id="cm"><path d="M127.236,235.328c-1.194-8.326,2.419-13.59,8.357-13.044a15.387,15.387,0,0,0-.916,8.741c1.389,9.653,8.715,19.765,16.388,22.595a11.717,11.717,0,0,0,3,.7c-1.787,3.824-5.6,5.381-10.439,3.6-7.672-2.828-15-12.942-16.39-22.593" transform="translate(-127.009 -222.245)" fill="url(#a)"></path></clipPath><clipPath id="co"><rect width="41.671" height="84.43" fill="url(#a)"></rect></clipPath><clipPath id="cp"><path d="M161.257,240.351a3.088,3.088,0,0,1,.409-1.262l2.467-3.835a2.84,2.84,0,0,0,.348-1.974l-7.44,4.3a2.913,2.913,0,0,1-.348,1.974l-2.467,3.835a3.026,3.026,0,0,0-.434,1.248Zm13.341,25.42a1.2,1.2,0,0,0,.528-1.3l-1.276-8.913a3.913,3.913,0,0,0-1.021-1.939l-7.44,4.3a3.794,3.794,0,0,1,1.021,1.937l1.272,8.893a1.2,1.2,0,0,1-.538,1.309l.014.008ZM143.791,219.6l-1.835-8.209a3.633,3.633,0,0,0-1.063-1.724l-7.418,4.3a3.639,3.639,0,0,1,1.041,1.732l1.822,8.2Zm23.344,67.657a1.385,1.385,0,0,0,.413-.337l3.28-3.55a2.576,2.576,0,0,0,.262-2.935l-5.1-8.07a3.83,3.83,0,0,1-.483-1.442l-7.44,4.3a3.886,3.886,0,0,0,.481,1.442l5.1,8.07a2.55,2.55,0,0,1-.26,2.933l-3.281,3.551a2.406,2.406,0,0,1-.391.329Zm-14.6,2.544-.014-.008a1.223,1.223,0,0,0,.55-1.184l-.2-3.217-1.078-1.313a3.12,3.12,0,0,0-2.965-.853,12.054,12.054,0,0,1-1.9.305,3.864,3.864,0,0,0-.476.1,3.345,3.345,0,0,0-.317.139,1.755,1.755,0,0,0-.528.419,1.614,1.614,0,0,0-.378.744,1.216,1.216,0,0,0-.049.493l.432,7.483a1.922,1.922,0,0,1-.043.515.934.934,0,0,1-.239.47.973.973,0,0,1-.221.209Z" transform="translate(-133.475 -209.665)" fill="url(#a)"></path></clipPath><clipPath id="cr"><path d="M152.755,269.432c-7.665-2.826-15-12.938-16.39-22.587s3.706-15.185,11.369-12.359,15,12.936,16.386,22.585c1.141,7.944-2.1,13.1-7.561,13.1a11.048,11.048,0,0,1-3.8-.738m-13.208-57.9.438,7.483a1.814,1.814,0,0,1-1.747,1.89,12.929,12.929,0,0,0-1.9.311,3.1,3.1,0,0,1-2.949-.857l-5.882-7.082a1.581,1.581,0,0,0-2.444-.063l-3.272,3.559a2.551,2.551,0,0,0-.264,2.935l5.1,8.07a4.634,4.634,0,0,1,.405,3.33,22.105,22.105,0,0,0-.618,3,1.609,1.609,0,0,1-2,1.421l-5.383-1.266a1.181,1.181,0,0,0-1.546,1.415l1.282,8.9a3.959,3.959,0,0,0,1.925,2.665l6.039,3A5.334,5.334,0,0,1,129,252.818c.62,1.7,1.331,3.373,2.121,5.015a3.643,3.643,0,0,1-.174,3.221l-2.467,3.826a2.921,2.921,0,0,0,.082,3.062l6.164,8.492a1.819,1.819,0,0,0,2.573.389l3.193-2.4a2.275,2.275,0,0,1,2.822.174,41.775,41.775,0,0,0,3.563,2.966,5.7,5.7,0,0,1,1.924,2.878l1.857,8.308A3.794,3.794,0,0,0,152.8,291.2l6.506,2.4a1.126,1.126,0,0,0,1.634-1.211l-.436-7.483a1.813,1.813,0,0,1,1.745-1.892,13.188,13.188,0,0,0,1.9-.309,3.1,3.1,0,0,1,2.951.855l5.882,7.083a1.579,1.579,0,0,0,2.442.061l3.274-3.557a2.558,2.558,0,0,0,.264-2.937l-5.1-8.068a4.665,4.665,0,0,1-.407-3.33,22.79,22.79,0,0,0,.624-3,1.607,1.607,0,0,1,2-1.423l5.383,1.268A1.181,1.181,0,0,0,183,268.247l-1.28-8.9a3.951,3.951,0,0,0-1.925-2.663l-6.037-3a5.318,5.318,0,0,1-2.27-2.581c-.62-1.7-1.333-3.373-2.123-5.017a3.65,3.65,0,0,1,.176-3.221l2.467-3.825a2.921,2.921,0,0,0-.084-3.062l-6.16-8.49a1.82,1.82,0,0,0-2.575-.387l-3.193,2.4a2.273,2.273,0,0,1-2.824-.174,42.513,42.513,0,0,0-3.563-2.966,5.712,5.712,0,0,1-1.924-2.88l-1.857-8.3a3.793,3.793,0,0,0-2.147-2.454l-6.5-2.4a1.665,1.665,0,0,0-.566-.108c-.667,0-1.117.509-1.07,1.321" transform="translate(-117.463 -210.207)" fill="url(#a)"></path></clipPath><clipPath id="ct"><path d="M200.754,303.817c-9.612-5.549-17.4-19.043-17.4-30.142,0-4.34.99-7.455,2.757-9.33,2.749-.511,6.041.164,9.582,2.209,9.61,5.547,17.4,19.043,17.4,30.14,0,4.34-1.2,7.665-3.223,9.78-.274.027-.558.041-.847.041a17.171,17.171,0,0,1-8.269-2.7m-22.507-72.9-9.291,5.389-.01.008-5.052,2.918a1.389,1.389,0,0,0-.542,1.794l6.111,12.32a2.286,2.286,0,0,1,.164,1.256l-5.322-2.4a.855.855,0,0,0-.8-.006l0,0-7.719,4.485v0a.84.84,0,0,0-.366.765v11.893a2.774,2.774,0,0,0,1.051,2.025l9.41,6.624a3.819,3.819,0,0,1,1.317,2,61.578,61.578,0,0,0,2.385,7.98,1.974,1.974,0,0,1-.517,2.041l-5.3,4.573a1.614,1.614,0,0,0-.331,1.951L171,309.651a1.611,1.611,0,0,0,1.855.689l6.612-2.309a1.971,1.971,0,0,1,2.023.575,62.014,62.014,0,0,0,5.724,6.056,3.811,3.811,0,0,1,1.068,2.139l1.033,11.461a2.765,2.765,0,0,0,1.227,1.922l10.3,5.951a.846.846,0,0,0,.843.065l0,0,7.729-4.493,0,0a.86.86,0,0,0,.387-.695l.581-5.776a2.312,2.312,0,0,1,1.033.779l7.614,11.453a1.39,1.39,0,0,0,1.826.428l6.632-3.829.029-.025,7.692-4.459a1.389,1.389,0,0,0,.542-1.794l-6.111-12.324a2.27,2.27,0,0,1-.164-1.252l5.322,2.4a.872.872,0,0,0,.8.014l0,0,7.743-4.5,0,0a.84.84,0,0,0,.352-.757v-11.9a2.781,2.781,0,0,0-1.051-2.025l-9.41-6.622a3.833,3.833,0,0,1-1.317-2,62.068,62.068,0,0,0-2.385-7.986,1.973,1.973,0,0,1,.517-2.039l5.3-4.569a1.612,1.612,0,0,0,.331-1.953l-7.573-13.116a1.614,1.614,0,0,0-1.855-.691l-6.612,2.309a1.966,1.966,0,0,1-2.023-.573,62.026,62.026,0,0,0-5.724-6.056,3.832,3.832,0,0,1-1.07-2.141l-1.031-11.461a2.78,2.78,0,0,0-1.229-1.924l-10.3-5.945a.835.835,0,0,0-.845-.065l0,0-7.727,4.491v0a.857.857,0,0,0-.387.695l-.581,5.776a2.294,2.294,0,0,1-1.033-.781l-7.614-11.451a1.385,1.385,0,0,0-1.153-.607,1.339,1.339,0,0,0-.673.178" transform="translate(-155.414 -230.74)" fill="url(#a)"></path></clipPath><clipPath id="cv"><path d="M181.294,320.161a1.309,1.309,0,0,0-.17.055,1.076,1.076,0,0,0-.294.182,1.062,1.062,0,0,0-.307.474.736.736,0,0,0-.057.26l-1,10.005a1.045,1.045,0,0,1-.047.243.552.552,0,0,1-.147.276.558.558,0,0,1-.211.182l.008.006,7.743-4.495-.01-.006a.882.882,0,0,0,.391-.695l.573-5.786a2.63,2.63,0,0,0-.961-.194,20.393,20.393,0,0,1-4.729-.464,1.469,1.469,0,0,1-.231-.041,1.448,1.448,0,0,0-.286-.029,1.16,1.16,0,0,0-.262.027m17.822-5.256a1.851,1.851,0,0,0,.184.691l6.111,12.318a1.41,1.41,0,0,1-.393,1.695l7.575-4.389a1.38,1.38,0,0,0,.534-1.792L207.019,311.1a1.946,1.946,0,0,1-.168-.679Zm13.676-16.836a2.711,2.711,0,0,1,.556,1.524l.006,11.9a.908.908,0,0,1-.305.734l7.674-4.461a.83.83,0,0,0,.344-.757l0-11.893a2.711,2.711,0,0,0-.562-1.515ZM197.012,258.65a1.543,1.543,0,0,1,.753.634l7.573,13.124a1.59,1.59,0,0,1,.045,1.44l7.678-4.4a1.628,1.628,0,0,0,0-1.532l-7.569-13.11a1.564,1.564,0,0,0-.746-.628Zm-17.859-18.877a2.129,2.129,0,0,1,.3.9l1.027,11.461a3.321,3.321,0,0,0,.3,1.014l7.729-4.489a3.328,3.328,0,0,1-.307-1.006L187.172,236.2a2.565,2.565,0,0,0-.309-.9Z" transform="translate(-179.057 -235.296)" fill="url(#a)"></path></clipPath><clipPath id="cx"><path d="M195.692,304.548c-9.612-5.547-17.4-19.041-17.4-30.138s7.79-15.6,17.4-10.048,17.4,19.043,17.4,30.14c0,7.872-3.921,12.423-9.629,12.423a15.76,15.76,0,0,1-7.772-2.378M170.528,233.21l-6.633,3.829a1.389,1.389,0,0,0-.542,1.794l6.111,12.322a2.54,2.54,0,0,1-.139,2.223,20.569,20.569,0,0,0-2.045,4.546,1.087,1.087,0,0,1-1.526.706l-9.169-4.133a.767.767,0,0,0-1.17.757v11.893a2.773,2.773,0,0,0,1.051,2.025l9.41,6.624a3.819,3.819,0,0,1,1.317,2,61.575,61.575,0,0,0,2.385,7.98,1.975,1.975,0,0,1-.517,2.041l-5.3,4.573a1.611,1.611,0,0,0-.331,1.951L171,307.458a1.611,1.611,0,0,0,1.855.689l6.612-2.309a1.971,1.971,0,0,1,2.023.575,62.01,62.01,0,0,0,5.724,6.056,3.812,3.812,0,0,1,1.068,2.139l1.033,11.461a2.765,2.765,0,0,0,1.227,1.922l10.3,5.951a.77.77,0,0,0,1.243-.638l1-10.007a1.089,1.089,0,0,1,1.376-.969,20.587,20.587,0,0,0,4.958.5,2.537,2.537,0,0,1,1.994.99l7.614,11.453a1.39,1.39,0,0,0,1.826.429l6.632-3.829a1.387,1.387,0,0,0,.542-1.794l-6.111-12.322a2.53,2.53,0,0,1,.141-2.221,20.489,20.489,0,0,0,2.043-4.548,1.089,1.089,0,0,1,1.528-.706l9.167,4.133a.768.768,0,0,0,1.172-.757V301.764a2.768,2.768,0,0,0-1.053-2.023l-9.408-6.626a3.836,3.836,0,0,1-1.319-2,61.931,61.931,0,0,0-2.383-7.984,1.971,1.971,0,0,1,.515-2.039l5.307-4.571a1.615,1.615,0,0,0,.331-1.953l-7.575-13.116a1.606,1.606,0,0,0-1.855-.689l-6.612,2.309a1.973,1.973,0,0,1-2.023-.575,61.782,61.782,0,0,0-5.724-6.056,3.845,3.845,0,0,1-1.07-2.139l-1.031-11.461a2.772,2.772,0,0,0-1.229-1.924l-10.3-5.947a.767.767,0,0,0-1.241.636L188.3,245.616a1.089,1.089,0,0,1-1.376.969,20.491,20.491,0,0,0-4.96-.5,2.533,2.533,0,0,1-1.992-.99l-7.616-11.453a1.384,1.384,0,0,0-1.151-.607,1.334,1.334,0,0,0-.673.178" transform="translate(-155.414 -233.032)" fill="url(#a)"></path></clipPath></defs><g clip-path="url(#ao)"><g transform="translate(109.708 136.191)"><g clip-path="url(#ap)"><path d="M14.01,397.232l444.184,82.3L559.2,117.631l-444.184-82.3Z" transform="translate(-96.304 -102.384)" fill="url(#a)"></path></g></g><g transform="translate(95.015 136.191)"><g clip-path="url(#ar)"><g transform="translate(-95.015 -136.191)" opacity="0.7"><g clip-path="url(#ao)"><g transform="translate(109.71 136.191)"><g clip-path="url(#at)"><path d="M87.676,480.671l414.955-75.924L448.382,34.942,33.428,110.866Z" transform="translate(-77.728 -102.76)" fill="url(#a)"></path></g></g></g></g><g transform="translate(-10.256 3.761)" opacity="0.7"><g clip-path="url(#av)"><g transform="translate(17.081 38.032)"><g clip-path="url(#aw)"><path d="M71.7,163.993l66.758-34.7-25.7-52.924L46,111.07Z" transform="translate(-57.833 -104.916)" fill="url(#a)"></path></g></g></g></g></g></g><g transform="translate(178.866 173.458)"><g clip-path="url(#ay)"><path d="M287.685,544.358l249.59-268.253L272.832,24.1,23.242,292.352Z" transform="translate(-156.629 -150.4)" fill="url(#a)"></path></g></g><g transform="translate(103.717 305.457)"><g clip-path="url(#ba)"><path d="M32.145,245.745l220.31,22.517,50.1-99.017L82.244,146.728Z" transform="translate(-72.962 -165.073)" fill="url(#a)"></path></g></g><g transform="translate(95.015 173.446)"><g clip-path="url(#bc)"><path d="M14.054,384.226,396.937,460.01l83.255-330.144L97.309,54.082Z" transform="translate(-81.568 -121.702)" fill="url(#a)"></path></g></g><g transform="translate(255.605 498.86)"><g clip-path="url(#be)"><rect width="60.378" height="72.53" transform="translate(-0.053 0)" fill="url(#a)"></rect></g></g><g clip-path="url(#ao)"><g transform="translate(255.605 498.86)" opacity="0.2"><g clip-path="url(#bh)"><g transform="translate(0 0)"><g clip-path="url(#bi)"><rect width="60.378" height="72.573" transform="translate(-0.053 -0.042)" fill="url(#a)"></rect></g></g></g></g><g transform="translate(256.065 500.889)" opacity="0.1"><g clip-path="url(#bk)"><g transform="translate(0 0)"><g clip-path="url(#bl)"><rect width="18.182" height="22.747" transform="translate(0 -0.133)" fill="url(#a)"></rect></g></g></g></g><g transform="translate(271.026 521.853)" opacity="0.1"><g clip-path="url(#bn)"><g transform="translate(0 0.001)"><g clip-path="url(#bo)"><rect width="23.133" height="31.344" transform="translate(-0.798 -0.42)" fill="url(#a)"></rect></g></g></g></g></g><g transform="translate(281.469 501.529)"><g clip-path="url(#bq)"><rect width="34.461" height="69.704" transform="translate(0)" fill="url(#a)"></rect></g></g><g clip-path="url(#ao)"><g transform="translate(281.469 501.53)" opacity="0.7"><g clip-path="url(#bt)"><g transform="translate(0 -0.001)"><g clip-path="url(#bu)"><rect width="34.461" height="69.706" transform="translate(0)" fill="url(#a)"></rect></g></g></g></g></g><g transform="translate(255.605 502.406)"><g clip-path="url(#bw)"><rect width="54.334" height="69.142" transform="translate(-0.104)" fill="url(#a)"></rect></g></g><g clip-path="url(#ao)"><g transform="translate(255.605 502.406)" opacity="0.55"><g clip-path="url(#bz)"><g transform="translate(0 0)"><g clip-path="url(#ca)"><rect width="54.334" height="69.346" transform="translate(-0.104 -0.204)" fill="url(#a)"></rect></g></g></g></g></g><g transform="translate(229.849 407.031)"><g clip-path="url(#cc)"><rect width="73.134" height="87.853" transform="translate(-0.065)" fill="url(#a)"></rect></g></g><g clip-path="url(#ao)"><g transform="translate(229.85 407.031)" opacity="0.2"><g clip-path="url(#cf)"><g transform="translate(0.001 0)"><g clip-path="url(#cg)"><rect width="73.134" height="87.904" transform="translate(-0.065 -0.051)" fill="url(#a)"></rect></g></g></g></g><g transform="translate(230.406 409.489)" opacity="0.1"><g clip-path="url(#ci)"><g transform="translate(0 0)"><g clip-path="url(#cj)"><rect width="22.025" height="27.551" transform="translate(0 -0.161)" fill="url(#a)"></rect></g></g></g></g><g transform="translate(248.527 434.882)" opacity="0.1"><g clip-path="url(#cl)"><g transform="translate(0 0.001)"><g clip-path="url(#cm)"><rect width="28.023" height="37.965" transform="translate(-0.966 -0.507)" fill="url(#a)"></rect></g></g></g></g><g transform="translate(261.18 410.265)" opacity="0.3"><g clip-path="url(#co)"><g transform="translate(0 0)"><g clip-path="url(#cp)"><rect width="41.74" height="84.431" transform="translate(0)" fill="url(#a)"></rect></g></g></g></g></g><g transform="translate(229.849 411.326)"><g clip-path="url(#cr)"><rect width="65.81" height="83.75" transform="translate(-0.124)" fill="url(#a)"></rect></g></g><g transform="translate(304.109 451.505)"><g clip-path="url(#ct)"><rect width="88.276" height="107.509" transform="translate(0 0)" fill="url(#a)"></rect></g></g><g transform="translate(350.373 460.42)"><g clip-path="url(#cv)"><rect width="42.016" height="96.547" transform="translate(0 0)" fill="url(#a)"></rect></g></g><g transform="translate(304.109 455.99)"><g clip-path="url(#cx)"><rect width="80.556" height="103.024" fill="url(#a)"></rect></g></g></g></svg>