<svg xmlns="http://www.w3.org/2000/svg" width="140" height="83.932" viewBox="0 0 140 83.932"><g transform="translate(0.002)"><path d="M139.805,281.077l.187.065a27.757,27.757,0,0,0-25.065,2.268c-1.353.98-1.119,2.292.371,2.1,4.995-.605,16.01-1.912,17.974.6v.005c1.958,2.478-2.193,12.886-4.062,17.506-.562,1.4.656,1.958,1.912.881l.019-.019a27.426,27.426,0,0,0,8.665-23.415ZM.622,284.3h0l-.088-.078Zm124.557,5.367A138.181,138.181,0,0,1,71.661,300.69h-.009A138.385,138.385,0,0,1,2.208,282.248C.479,281.218-.826,283,.618,284.3a102.467,102.467,0,0,0,68.877,26.467h.862a99.8,99.8,0,0,0,56.515-17.36h0c2.341-1.735.617-4.314-1.7-3.733Zm-.173.049a3.066,3.066,0,0,0-.369.138Zm0,0c.058-.019.116-.036.173-.049.12-.051.242-.1.363-.156Z" transform="translate(0 -226.837)" fill="#f49c1e"></path><path d="M158.391,36.166l-.03.065.033-.072ZM147.792.186h.023l.093.011-.116-.009Zm7.652,2.1.013.008.04.021-.051-.028ZM130.564,7.047l.005-.011L130.592,7Zm14.9-.755Zm12,17.922-.015-.019a14.325,14.325,0,0,0-7.222-4.467l-6.631-2.094-.1-.023a13.773,13.773,0,0,1-5.032-2.549h0a4.387,4.387,0,0,1-1.4-3.22v-.078c0-.1-.009-.2-.009-.294a4.511,4.511,0,0,1,2.2-3.87l-.065.033a12,12,0,0,1,5.557-1.359c.251,0,.5.009.718.023h.332a20.991,20.991,0,0,1,8.633,1.822l-.023-.013a4.8,4.8,0,0,0,1.794.576c.7,0,1.078-.509,1.078-1.494V4.995a1.4,1.4,0,0,0,.005-.156,2.5,2.5,0,0,0-.422-1.393l-.009-.009a4.066,4.066,0,0,0-1.383-1.151,9.934,9.934,0,0,0-1.976-.845c-.847-.269-1.732-.507-2.671-.74-.973-.186-1.944-.371-3-.512A23.883,23.883,0,0,0,144.826,0h-.408a19.854,19.854,0,0,0-5.636.8l-.1.028a14.484,14.484,0,0,0-4.751,2.4l-.033.023a12.007,12.007,0,0,0-3.325,3.79,10.381,10.381,0,0,0-1.271,5v.206a11.04,11.04,0,0,0,2.337,6.767l.019.023a14.233,14.233,0,0,0,7.446,4.729l6.767,2.1.084.019a11.758,11.758,0,0,1,4.639,2.411,4.52,4.52,0,0,1,1.259,3.139v.262A5.03,5.03,0,0,1,149.421,36l.065-.033a12.5,12.5,0,0,1-6.138,1.6c-.259,0-.516-.009-.735-.023a27.045,27.045,0,0,1-5.552-.562l-.165-.028a24.283,24.283,0,0,1-4.972-1.6c-.467-.187-.891-.375-1.171-.467l.019.005a2.644,2.644,0,0,0-.863-.146c-.694,0-1.069.467-1.069,1.444v2.493a2.682,2.682,0,0,0,1.7,2.489,21.413,21.413,0,0,0,5.394,1.88l-.21-.043a31.1,31.1,0,0,0,7.381.881h.023v-.019h.141a21.889,21.889,0,0,0,6.533-.975l.107-.028a14.987,14.987,0,0,0,5.076-2.587l.028-.019a12.722,12.722,0,0,0,3.381-4.086,12,12,0,0,0,1.211-5.27v-.3a10.487,10.487,0,0,0-2.146-6.385ZM89.043,42.136ZM124.509,1.194a.982.982,0,0,0-.131.009h-4.531a3.038,3.038,0,0,0-1.629.472,4.051,4.051,0,0,0-.933,1.824l-8.076,31.267L101.834,3.5V3.482a3.122,3.122,0,0,0-.881-1.808l.009.005a2.849,2.849,0,0,0-1.6-.488c-.1,0-.2.005-.285.013H95.155a3.209,3.209,0,0,0-1.678.472A3.323,3.323,0,0,0,92.594,3.5L85.312,34.4,77.462,3.5l-.005-.023a3.758,3.758,0,0,0-.933-1.8h.009a2.581,2.581,0,0,0-1.518-.491,2.931,2.931,0,0,0-.3.019H70.14a.681.681,0,0,0-.107-.005A1.024,1.024,0,0,0,69,2.232a.786.786,0,0,0,.009.15l.005.037a8,8,0,0,0,.418,1.837L80.4,40.341v.023a3.791,3.791,0,0,0,.98,1.794h-.009a2.567,2.567,0,0,0,1.518.488,2.32,2.32,0,0,0,.266-.015l4-.023a2.636,2.636,0,0,0,.275.013,2.9,2.9,0,0,0,1.6-.476,3.7,3.7,0,0,0,.877-1.871l7.194-30.055,7.239,30.1v.013a3.284,3.284,0,0,0,.877,1.856l-.009-.005a2.818,2.818,0,0,0,1.593.488,2.756,2.756,0,0,0,.291-.013h4.174a2.966,2.966,0,0,0,1.612-.472,3.565,3.565,0,0,0,.984-1.818L125.12,4.286l-.015.047a6.589,6.589,0,0,0,.341-1.215v.033a5.268,5.268,0,0,0,.1-.778V2.38c0-.047.009-.093.009-.141A1.045,1.045,0,0,0,124.516,1.2Zm-6.292.478ZM34.326,40.342l-.005-.008h0ZM33.951,4.06l.005-.005V4.045l-.009.013ZM66.695,38.14a25.009,25.009,0,0,1-1.556-3.5l.023.1a14.016,14.016,0,0,1-.544-3.883c0-.131,0-.262.005-.371l-.1-.009V15.35l-.005.056c.033-.416.052-.834.052-1.259a15.354,15.354,0,0,0-3.913-10.27A17.013,17.013,0,0,0,49.871.03c-.509,0-1.011.023-1.444.062H48.16A27.618,27.618,0,0,0,41.14.977l-.182.037a25.744,25.744,0,0,0-5.694,2.067l-.023.009a3.559,3.559,0,0,0-1.284.965,2.97,2.97,0,0,0-.342,1.383,2.319,2.319,0,0,0,.009.262V7.988c0,.975.328,1.444.984,1.444h.005a2.749,2.749,0,0,0,.737-.135l.093-.023a11.768,11.768,0,0,0,1.541-.581l-.247.088A37.022,37.022,0,0,1,42.026,7.1l-.146.033A21.326,21.326,0,0,1,47.044,6.5h.027l-.047.005a10.494,10.494,0,0,1,1.143-.06,10.65,10.65,0,0,1,6.508,2.2l-.013-.019a10.277,10.277,0,0,1,2.263,6.448,9.943,9.943,0,0,1-.052,1.04v3.411c-1.86-.422-3.64-.8-5.367-1.031l.2.023a37.134,37.134,0,0,0-5.149-.4H46.6c-.311-.013-.622-.023-.933-.023A16.873,16.873,0,0,0,35.128,21.77l-.019.013a11.978,11.978,0,0,0-4.236,9.15c0,.15,0,.3.009.433-.009.178-.013.36-.013.544a11.954,11.954,0,0,0,3.456,8.427,12.748,12.748,0,0,0,8.661,3.381c.238,0,.474-.009.677-.019h.289a17.224,17.224,0,0,0,13.438-6.438q.667,1.412,1.447,2.755l.037.06a14.768,14.768,0,0,0,1.643,2.133,2.125,2.125,0,0,0,1.4.653h.005a2.209,2.209,0,0,0,1.213-.422l2.942-1.958.009-.005a1.847,1.847,0,0,0,.881-1.4,1.961,1.961,0,0,0-.328-1.069l.065.131ZM56.97,26.7v.1a16.722,16.722,0,0,1-.467,3.959l-.015.051a7.4,7.4,0,0,1-1.58,2.942l-.009.009a10.491,10.491,0,0,1-4.423,2.971l.107-.033a15.039,15.039,0,0,1-4.912.877h.019c-.169.013-.338.019-.506.019a6.433,6.433,0,0,1-4.412-1.743h0V35.85h0a6.49,6.49,0,0,1-1.745-4.433c0-.18.005-.356.019-.508-.009-.141-.013-.278-.013-.42a6.484,6.484,0,0,1,2.285-4.947l-.026.017.033-.023-.005.005a10.712,10.712,0,0,1,6.121-1.908c.3,0,.6.009.849.032h.005a34.476,34.476,0,0,1,4.382.281l.2.023a35.431,35.431,0,0,1,4.1.772V26.7ZM60.654,3.872h0l.024.019Z" transform="translate(-25.08 0)" fill="#fff"></path></g></svg>