<svg xmlns="http://www.w3.org/2000/svg" xmlns:xlink="http://www.w3.org/1999/xlink" width="260" height="243.688" viewBox="0 0 260 243.688"><defs><linearGradient id="Backups-Icon" x1="0.03" y1="0.384" x2="1.03" y2="0.669" gradientUnits="objectBoundingBox"><stop offset="0" stop-color="#6179f8"></stop><stop offset="1" stop-color="#f5d361"></stop></linearGradient></defs><path d="M49.731,131.4a13.042,13.042,0,1,1,13.043,13.041A13.057,13.057,0,0,1,49.731,131.4m-10.033,0a23.075,23.075,0,1,0,23.075-23.075A23.1,23.1,0,0,0,39.7,131.4m98.654-39.151a81.642,81.642,0,0,0-27.691,26.371V87.888a6.462,6.462,0,1,0-12.924,0v45.95A6.469,6.469,0,0,0,104.2,140.3h45.95a6.462,6.462,0,1,0,0-12.923H120.428a68.2,68.2,0,1,1,1.136,72.192,7.078,7.078,0,0,0-5.876-3.266,6.518,6.518,0,0,0-5.742,3.326,5.923,5.923,0,0,0,.216,6.1A81.125,81.125,0,1,0,138.353,92.252m-96.39-19.6A6.242,6.242,0,1,1,48.2,78.894a6.248,6.248,0,0,1-6.241-6.242m-10.032,0A16.274,16.274,0,1,0,48.2,56.378,16.293,16.293,0,0,0,31.931,72.652m89.983-15.959a6.242,6.242,0,1,1,6.241,6.242,6.248,6.248,0,0,1-6.241-6.242m-10.032,0a16.274,16.274,0,1,0,16.274-16.274,16.293,16.293,0,0,0-16.274,16.274M59.518,17.606a83.914,83.914,0,0,1,34.933-7.573c1.064,0,2.121.026,3.175.065.01.255.022.508.022.762A19.678,19.678,0,0,1,77.993,30.517a19.561,19.561,0,0,1-18.474-12.91M94.452,0A94.474,94.474,0,0,0,57.685,181.478a94.547,94.547,0,0,0,123.793-50.261,93.553,93.553,0,0,0,7.114-29.091,61.412,61.412,0,0,0-9.723-.775c-.095,0-.189,0-.284,0a83.789,83.789,0,0,1-8.054,29.664l-5.445,9.606a85.08,85.08,0,0,1-26.247,25.6l-9.745,5.2a84.4,84.4,0,0,1-78.482-149.1,29.684,29.684,0,0,0,57.063-11.262,84.659,84.659,0,0,1,68.8,63.39c.8-.022,1.6-.035,2.4-.035,2.682,0,5.343.125,7.982.36A94.358,94.358,0,0,0,102.549.347c-.067-.007-.135-.014-.2-.017Q98.426.006,94.452,0Z" fill="url(#Backups-Icon)"></path></svg>