<svg xmlns="http://www.w3.org/2000/svg" xmlns:xlink="http://www.w3.org/1999/xlink" width="235" height="255.333" viewBox="0 0 235 255.333"><defs><clipPath id="a"><rect width="235" height="255.333" fill="none"></rect></clipPath></defs><g clip-path="url(#a)"><path d="M170.468,1.164a7.81,7.81,0,0,1,2.971,4.511c1.173,3.643,1.892,7.479,4.278,10.7a8.882,8.882,0,0,0,3.512,3.05c.047.342.217.532.588.47.553.246.991.875,1.725.517,2.257.9,4.629.733,6.973.705a67.571,67.571,0,0,1,15.878,1.718C228.932,27.974,242.028,45,244.64,66.128a45.764,45.764,0,0,0,1.005,8.554q.017.844.035,1.687c-.035,1.13-.1,2.259-.1,3.389q-.015,22.806-.014,45.611c-1.852.106-2.136-1.011-2.182-2.549a11.624,11.624,0,0,0-4.235-8.586,19.206,19.206,0,0,1-6.219-8.569c-1.416-4.2-6.51-4.044-7.508-8-2.347-.172-3.2-1.564-3.326-3.771a1.967,1.967,0,0,0-1.31-1.341c-2.161-.347-2.977-1.966-3.5-3.661-.972-3.132-5.032-3.728-5.68-7.1-.036-.188-1.047-.3-1.587-.259a2.661,2.661,0,0,1-2.878-1.789c-1.187-2.464-4.484-3.192-5.158-6.149-.1-.43-.7-.428-1.226-.409-1.934.073-3.195-1.1-4.185-2.575-.823-1.226-1.674-2.255-3.352-2.236a4.145,4.145,0,0,1-2.764-1.315c-2.916-2.629-6.837-4.024-9.04-7.583a3.14,3.14,0,0,0-3-1.326,2.276,2.276,0,0,1-2.669-2c-.529-2.277-2.05-2.661-4.062-2.575-1.542.066-3.386.492-3.641-1.994-.086-.834-.824-.368-1.321-.466-1.874-.37-3.927-.771-5.238-2.092a3.981,3.981,0,0,0-2.281-1.158c-2-.474-4.378-.116-5.937-1.437-1.458-1.237-2.731-2.439-4.666-2.925a15.894,15.894,0,0,1-5.6-3.055c-2.077-1.563-4.855-.89-7.366-.52,3.221-8.4,8.559-15.654,12.84-23.486A112.9,112.9,0,0,0,133.33,42.206c-.276-.061-.716-.033-.805-.2-1.748-3.185-4.3-3.659-7.905-4.227-3.881-.613-8.644-.457-11.916-3.793a.889.889,0,0,0-1.294-.011c-2.382,2.522-5.188.575-7.214-.073a21.083,21.083,0,0,0-6.7-1.4c-3.665.027-7.144-1.1-10.966-1.034-5.387.095-11.22.955-16.5-1.72a3.478,3.478,0,0,0-2.751.255,7.919,7.919,0,0,1-5.542.722c-2.356-.529-4.362.444-6.518.758-.732.107-1.28,1.21-2.029.8-3.926-2.168-7.154,3.653-11.1.926-.1-.071-.546.191-.711.394-.841,1.044-1.809.978-3.036.723a8.135,8.135,0,0,0-3.927.267c-3.1.9-5.929,3.335-9.5,1.89,5.171-6.08,12.014-9.748,19.317-12.3A64.461,64.461,0,0,1,67.77,21.033c.98.011,2.013.476,2.9-.341q9.938-.086,19.877-.181c.8-.009,1.708.421,2.356-.444,6.8-.384,13.174-2.717,19.574-4.682,12.19-3.743,24.458-7.2,36.694-10.781,4.031-1.178,7.995-2.589,11.98-3.918a19.276,19.276,0,0,1,8.1-.487c-1.526,1.95-4.534,1.969-5.713,4.373-3.893.78-6.388,3.628-9.133,6.108,3.173-1.852,6.475-3.506,9.2-6.034,2.591-.569,4.459-2.56,6.871-3.482M153.217,11.955c-2.068.43-3.028,1.3-3.327,3.407a10.113,10.113,0,0,0,3.327-3.407" transform="translate(-10.689 0)" fill="#fddc01"></path><path d="M267.71,4.719c1.179-2.4,4.187-2.422,5.713-4.373a1.615,1.615,0,0,1,1.223.966c-2.412.921-4.28,2.913-6.871,3.482Z" transform="translate(-114.866 -0.148)" fill="#f9c802"></path><path d="M299.293,34.5c-.371.062-.541-.127-.588-.47l.588.47" transform="translate(-128.165 -14.602)" fill="#f1f1f1"></path><path d="M323.639,155.023c.039,9.944.115,19.889.11,29.834-.007,14.116.085,28.235-.166,42.348-.186,10.525-1.856,20.839-6.256,30.54a32.567,32.567,0,0,1-2.035,3.371c-.387-3.19-1.47-6.438.668-9.437.681-.955-.026-1.277-.609-1.8-1.148-1.02-2.44-2.209-1.426-3.856,1.034-1.68.7-3.359.808-5.116.123-1.919-1.15-3.005-1.923-4.278-1.915-3.154.981-7.513-2.7-10.125-.137-.1-.017-.545-.029-.83-.271-6.174-.639-12.3-4.224-17.72-1.03-1.559-.7-3.919-2.883-4.884-.428-.189-.228-.86-.033-1.3a2.154,2.154,0,0,0,.028-2.186,31.41,31.41,0,0,1-3.867-7.807c-.983-2.555-4.592-4.067-4.18-6.721.7-4.484-4.843-6.147-3.923-10.39.033-.151-.351-.554-.559-.568-2.213-.143-2.633-1.592-2.856-3.455a3.619,3.619,0,0,0-2.084-2.564,5.755,5.755,0,0,1-2.563-2.95,31.389,31.389,0,0,0-4.305-6.625,9.92,9.92,0,0,1-1.942-8.116c.227-1.651,1.4-3.333.235-5.066.638-11.022-2.842-19.758-13.617-24.436-7.46-3.123-14.677-2.651-21.552,1.624-2.948,1.832-5.714,3.923-6.9,7.429l-.679,1.2c-.316.039-.464.2-.393.529l-.539.629c-.2-.194-.534-.359-.582-.583-.928-4.357-6.22-3.93-8.043-7.308-.063-.116-.591-.116-.805,0-1.655.926-2.284-.2-3.14-1.326-1.039-1.363-2.7-3.287-4.013-2.828-2.152.755-3.1.132-4.244-1.337-1.076-1.383-2.18-1.218-2.618.476-.56,2.166-1.555,4.259-1.244,6.614.154,1.168.115,2.377-1.637,2.24-.1-11.238-.067-22.469.471-33.7a66.132,66.132,0,0,1,6.325-24.962c2.51-.369,5.289-1.043,7.365.52a15.867,15.867,0,0,0,5.6,3.055c1.935.486,3.208,1.688,4.666,2.925,1.559,1.321,3.938.963,5.937,1.437a3.985,3.985,0,0,1,2.282,1.158c1.311,1.321,3.364,1.722,5.238,2.092.5.1,1.235-.367,1.321.466.255,2.486,2.1,2.06,3.641,1.994,2.012-.086,3.533.3,4.063,2.575a2.275,2.275,0,0,0,2.669,2,3.141,3.141,0,0,1,3,1.326c2.2,3.559,6.124,4.955,9.039,7.583a4.143,4.143,0,0,0,2.764,1.315c1.678-.019,2.529,1.009,3.352,2.236.991,1.475,2.252,2.649,4.186,2.575.525-.019,1.128-.021,1.226.409.675,2.958,3.971,3.686,5.158,6.149a2.661,2.661,0,0,0,2.878,1.789c.541-.047,1.551.07,1.587.258.649,3.374,4.708,3.97,5.681,7.1.526,1.7,1.342,3.315,3.5,3.661a1.968,1.968,0,0,1,1.31,1.341c.122,2.207.979,3.6,3.326,3.772,1,3.954,6.092,3.795,7.508,8a19.208,19.208,0,0,0,6.219,8.569,11.625,11.625,0,0,1,4.235,8.586c.045,1.538.329,2.655,2.181,2.549" transform="translate(-88.759 -29.655)" fill="#fcd901"></path><path d="M10.535,62.75c1.736-.914,2.122-3.1,3.824-4.047,3.574,1.444,6.4-.988,9.5-1.89a8.143,8.143,0,0,1,3.927-.267c1.228.256,2.2.322,3.036-.722.164-.2.608-.465.711-.394,3.95,2.727,7.178-3.094,11.1-.926.748.413,1.3-.69,2.029-.8,2.156-.315,4.162-1.286,6.518-.758a7.919,7.919,0,0,0,5.542-.722,3.478,3.478,0,0,1,2.751-.255c5.278,2.675,11.111,1.814,16.5,1.72,3.822-.068,7.3,1.061,10.966,1.034a21.083,21.083,0,0,1,6.7,1.4c2.026.648,4.832,2.594,7.214.072a.888.888,0,0,1,1.294.012c3.273,3.337,8.036,3.18,11.916,3.793,3.6.569,6.157,1.042,7.9,4.228.09.163.529.135.806.2-3.363,8.71-5.486,17.636-5.15,27.068.172,4.83,0,9.673-.011,14.51-3.208-.138-2.07-2.968-2.617-4.564-.932-2.723-2.6-4.492-5.505-4.519-2.233-.021-4.311-.234-6.052-1.865a2.06,2.06,0,0,0-2.658-.149c-1.7,1.439-2.738.495-3.8-.731-1.187-1.369-2.427-2.4-4.409-1.391a2.285,2.285,0,0,1-1.669.01c-4.3-1.688-9.022-1.128-13.383-2.5a3.328,3.328,0,0,0-2.207-.042c-2.961,1.434-5.448,1.446-8.892.359-2.864-.9-6.712-.681-10.1-.77-4.673-.122-9.318,2.259-14.114.442a.616.616,0,0,0-.521.164c-2.371,2.506-5.6-.328-8.376,1.51-2.137,1.413-5.356.176-7.929,1.484-2.834,1.442-6.316.49-9.066,1.869-4.461,2.238-9.577,2.758-13.791,5.539a3.306,3.306,0,0,1-2.154.6c-.412-13.5,1.449-26.415,9.8-37.645a3.71,3.71,0,0,0,.363-1.052" transform="translate(-0.136 -22.22)" fill="#fcd901"></path><path d="M204.5,96.137c.014-4.837.183-9.679.011-14.509-.336-9.433,1.787-18.359,5.15-27.068a112.868,112.868,0,0,1,15.145-25.766c-4.281,7.832-9.62,15.086-12.84,23.486a66.13,66.13,0,0,0-6.325,24.962c-.538,11.235-.575,22.466-.472,33.7a42.239,42.239,0,0,1,.526,8.7c-.014,8.683.007,17.365.014,26.048-.387,2.338-.038,4.216,2.833,4.516l-5.688.071-.039-.574c1.915.114,1.738-1.224,1.735-2.468q-.018-8.462-.017-16.923-.017-17.089-.034-34.178" transform="translate(-87.024 -12.355)" fill="#f9c802"></path><path d="M260.911,8.081c-2.723,2.528-6.024,4.181-9.2,6.034,2.746-2.481,5.241-5.328,9.133-6.108l.065.075" transform="translate(-108.002 -3.435)" fill="#f9c802"></path><path d="M247.142,20.939a10.113,10.113,0,0,1-3.327,3.407c.3-2.108,1.259-2.977,3.327-3.407" transform="translate(-104.614 -8.984)" fill="#f9c802"></path><path d="M207.484,199.725c-.007-8.683-.028-17.365-.014-26.047a42.24,42.24,0,0,0-.526-8.7c1.753.137,1.792-1.072,1.638-2.24-.311-2.354.685-4.448,1.244-6.614.438-1.694,1.542-1.86,2.618-.477,1.144,1.47,2.091,2.093,4.244,1.338,1.31-.46,2.975,1.464,4.013,2.828.855,1.123,1.485,2.252,3.14,1.326.214-.119.742-.119.805,0,1.822,3.379,7.114,2.951,8.043,7.308.048.225.381.39.582.583a1.483,1.483,0,0,1-.163.512c-1.761.621-1.5,2.178-1.645,3.545-1.059,3.847-.544,7.576.457,11.39,2.977,11.337,15.758,19.318,27.034,16.284,5.072-1.365,10.059-3.423,12.986-8.374,2.649-2.97,3.723-6.7,5.016-10.33,1.167,1.733-.007,3.415-.235,5.066a9.92,9.92,0,0,0,1.942,8.116,31.394,31.394,0,0,1,4.305,6.624,5.757,5.757,0,0,0,2.562,2.95,3.619,3.619,0,0,1,2.084,2.564c.224,1.864.643,3.312,2.856,3.455.208.014.591.417.559.568-.919,4.244,4.619,5.906,3.923,10.39-.412,2.653,3.2,4.165,4.18,6.72A31.432,31.432,0,0,0,303,236.313a2.156,2.156,0,0,1-.028,2.186c-.2.444-.4,1.116.032,1.3,2.184.964,1.853,3.325,2.883,4.884,3.584,5.424,3.953,11.546,4.224,17.72.013.284-.107.733.03.83,3.686,2.612.789,6.971,2.7,10.125.773,1.273,2.047,2.359,1.923,4.278-.112,1.756.226,3.436-.808,5.116-1.013,1.647.279,2.837,1.427,3.857.583.518,1.29.84.609,1.8-2.138,3-1.056,6.247-.669,9.437-4.034,7.186-10.149,12.271-17.1,16.354a51.232,51.232,0,0,1-24,6.939c-1.1-.823-2.149-1.29-2.9.4l-1.137,0c-.18-.426-.247-1.094-.559-1.242-2.763-1.309-2.874-3.5-2.344-6.094A4.943,4.943,0,0,1,268.4,311.7c1.033-1.157,1.617-2.235-.15-3.484-1.162-.821-1.516-2.848-.67-3.6,2.142-1.894,1.181-4.446,1.989-6.571.285-.749.013-1.687.688-2.379,3.024-3.1,3.988-7.463,6.635-10.807.875-1.106,2.031-2.311,2.213-3.59.918-6.47,4.263-12.234,4.962-18.814.986-9.268-1.831-16.68-9.077-22.467a43.428,43.428,0,0,0-10.067-5.792c-9.221-3.959-16.563-10.389-23.651-17.206a103.318,103.318,0,0,0-16.857-13.726c-3.72-2.315-8.144-2.346-11.821-4.543a2.15,2.15,0,0,0-2.421.351,3.615,3.615,0,0,1-2.689.655" transform="translate(-88.793 -66.385)" fill="#fbd401"></path><path d="M126.628,368.942c-1.038.055-2.076.156-3.114.157-20.964.021-41.935.353-62.89-.067-14.237-.286-26.949-5.2-37.2-15.506a6.345,6.345,0,0,1-1.825-2.8c.446-1.6-.6-3.035-.3-4.741.462-2.656,4.216-5.463.032-8.18-.141-.091.019-.7.1-1.061.687-3.237,4.006-5.516,3.335-9.294-.11-.617.832-.849,1.51-1.037,2.157-.6,3.162-1.966,2.458-4.233a2.671,2.671,0,0,1,.867-2.794,40.924,40.924,0,0,0,4.362-5.466,10.709,10.709,0,0,1,3.664-3.89c3.285-1.958,6.342-4.1,7.9-7.785a37.224,37.224,0,0,1,7.539-10.714c4.108-4.4,9.631-6.542,15.247-8.38,4.127-1.351,8.43-2.349,12.318-4.207,6.249-2.987,11.56-7.476,16.824-11.943a4.928,4.928,0,0,1,3.552-1.513c-.508,1.3-2.264,1.76-2.276,3.39l-.046.045-.522.517-.051.051-.522.516-.052.052-.517.545-.606.58a1.011,1.011,0,0,0-1.1.565l-.038.029-.535.53-.038.038-.534.529-.033.039a2.294,2.294,0,0,0-2.267,2.245l-.6.572a2.628,2.628,0,0,0-2.8,1.714l-.026.024a3.352,3.352,0,0,0-2.847,2.2l-.057.049a.993.993,0,0,0-1.068.529l-.067.042c-1.483.152-2.989.253-3.925,1.68l-.027.047a103.005,103.005,0,0,0-13.129,4.038c-.992.371-2.3.39-2.821,1.641l-.011.01a1.019,1.019,0,0,0-1.152,1.109l-.005.013-.561.56-.01.01-.561.56-.013.005c-2.446,1.812-2.826,3.516-1.651,7.421-1.1.457-1.363,1.492-1.713,2.474-1.25,3.5-.15,6.714,1.29,9.834,3.086,6.687,7.741,12.32,12.582,17.741a71.59,71.59,0,0,0,29.085,20.2c7.25,2.641,14.633,4.6,22.387,4.322,2.039-.073,2.587.111,2.526,2.184-.144,4.93-.054,9.866-.058,14.8" transform="translate(-9.112 -113.911)" fill="#f9c802"></path><path d="M117.481,134.6q.017,17.089.034,34.178c-1.887-1.439-1.924-3.664-2.226-5.678a8.743,8.743,0,0,0-7.385-7.476c-4.11-.694-8.161-1.732-12.244-2.59a4.84,4.84,0,0,1-2.4-1.745c-1.714-1.713-2.824-4.444-5.963-4.146A6.839,6.839,0,0,1,85,144.9c0-.821-.41-1.192-1.222-1.135a1.253,1.253,0,0,1-.465-.035c-.669-1.526-1.7-2.311-3.434-1.7l-1.081-.083-.612-.536c-.778-1.535-1.885-2.024-3.444-1.085-3.8-1-7.513-.224-11.124.794a20.149,20.149,0,0,0-12.727,10.571c-.3.822-1.249,1.311-1.184,2.319-2.7,2.308-2.056,5.543-2.36,8.514-1.415-1.057-2.148-.928-5.056-1.31-4.086-.536-7.632.736-11.119,2.459a3.464,3.464,0,0,1-2.422.482,7.912,7.912,0,0,0-6.687,1.446c-3.656,2.757-8.131,3.115-12.119,4.828-.686.295-1.522.334-1.937,1.013-1.8,2.948-5.289,2.689-7.853,4.175-.171-15.191-.265-30.381.081-45.57a3.309,3.309,0,0,0,2.154-.6c4.214-2.782,9.33-3.3,13.791-5.539,2.75-1.379,6.232-.428,9.066-1.869,2.573-1.309,5.792-.072,7.929-1.485,2.779-1.838,6.005,1,8.376-1.51a.616.616,0,0,1,.521-.164c4.8,1.818,9.441-.564,14.114-.442,3.39.089,7.238-.134,10.1.77,3.444,1.087,5.931,1.074,8.892-.359a3.321,3.321,0,0,1,2.207.042c4.361,1.375,9.08.815,13.383,2.5a2.281,2.281,0,0,0,1.67-.01c1.981-1.011,3.221.023,4.408,1.392,1.064,1.226,2.1,2.17,3.8.731a2.058,2.058,0,0,1,2.658.149c1.741,1.63,3.82,1.843,6.052,1.864,2.905.027,4.574,1.8,5.505,4.519.546,1.6-.591,4.426,2.617,4.564" transform="translate(0 -50.812)" fill="#fbd401"></path><path d="M87.412,168.7c3.138-.3,4.248,2.434,5.963,4.147a4.835,4.835,0,0,0,2.4,1.745c4.083.859,8.134,1.9,12.244,2.59a8.745,8.745,0,0,1,7.385,7.476c.3,2.014.339,4.239,2.226,5.678q.006,8.461.017,16.924c0,1.245.18,2.582-1.735,2.468l-6.814,1.72a.791.791,0,0,0-.957-.394c-4.733,1.632-9.474,3.182-13.9,5.645-3.235,1.8-6.267,4.267-10.447,3.907-1.677-.145-3.014-1.4-4.619-1.178-3.854.523-7.359-1.317-11.105-1.672-2.077-.2-4.428.617-6.473-.59-1.166-.688-2.222-.19-3.435.326-2.185.931-4.967-.362-6.97,1.661-.042.042-.477-.439-.689-.408-2.152.32-4.046-1.415-6.581.15a28.408,28.408,0,0,1-10.52,3.74c-4.531.671-8.342,2.885-12.207,4.786-3.911,1.922-6.935,5.526-11.339,6.795a1.286,1.286,0,0,0-.488.287c-2.534,2.317-5.8,3.795-7.787,6.755-.19.283-.863.24-1.311.347q0-22.215,0-44.43c2.564-1.487,6.049-1.226,7.853-4.175.415-.678,1.25-.718,1.937-1.012,3.988-1.713,8.462-2.071,12.119-4.828a7.912,7.912,0,0,1,6.687-1.446,3.463,3.463,0,0,0,2.422-.482c3.488-1.723,7.033-3,11.119-2.459,2.908.381,3.64.252,5.056,1.309-.246,6,2.186,11.061,5.8,15.57,8.634,10.779,27.411,9.288,34.724-.726,3.335-4.351,5.386-9.084,5.249-14.746A24.994,24.994,0,0,0,87.412,168.7" transform="translate(-0.115 -72.375)" fill="#facf02"></path><path d="M.189,273.414c.448-.108,1.121-.065,1.311-.347,1.991-2.961,5.253-4.439,7.787-6.755a1.287,1.287,0,0,1,.488-.287c4.4-1.268,7.428-4.873,11.339-6.8,3.865-1.9,7.676-4.114,12.207-4.785a28.408,28.408,0,0,0,10.52-3.74c2.535-1.564,4.429.17,6.581-.15.212-.031.647.45.689.408,2-2.022,4.786-.729,6.97-1.66,1.213-.517,2.269-1.014,3.435-.326,2.045,1.206,4.4.392,6.473.59,3.746.356,7.251,2.2,11.105,1.672,1.6-.218,2.942,1.034,4.619,1.178,4.18.361,7.212-2.1,10.447-3.906,4.424-2.464,9.165-4.014,13.9-5.645a.79.79,0,0,1,.957.393c-.842,1.29-3.057.9-3.411,2.787l-.054.043c-.956-.061-1.809.081-2.2,1.121l-.05.045a.96.96,0,0,0-1.117,1.067l-.051.043c-1.206-.061-2.148.229-2.232,1.667l-.047.05-.518.513-.059.046c-1.21-.065-2.144.239-2.231,1.671l-.039.046-.519.533-.048.042-.524.517-.051.051-.522.513-.056.045a.976.976,0,0,0-1.062.567l-.045.034-.528.522-.036.047-1.7.536a4.935,4.935,0,0,0-3.552,1.513c-5.263,4.467-10.574,8.957-16.823,11.943-3.888,1.858-8.191,2.856-12.318,4.207-5.616,1.838-11.138,3.985-15.247,8.38a37.225,37.225,0,0,0-7.539,10.714c-1.556,3.687-4.614,5.827-7.9,7.785a10.707,10.707,0,0,0-3.664,3.89,40.959,40.959,0,0,1-4.362,5.466,2.671,2.671,0,0,0-.867,2.794c.7,2.267-.3,3.635-2.458,4.233-.678.188-1.619.42-1.51,1.037.67,3.778-2.649,6.057-3.336,9.294-.075.358-.236.969-.095,1.061,4.183,2.717.43,5.524-.032,8.18-.3,1.706.748,3.144.3,4.741-4.2-3.742-6.425-8.75-8.413-13.783a59.9,59.9,0,0,1-4.025-22.26c.018-10.514.073-21.029.112-31.543" transform="translate(-0.033 -104.186)" fill="#facc02"></path><path d="M154.46,392.917c0-4.934-.086-9.87.058-14.8.061-2.073-.487-2.257-2.526-2.184-7.754.276-15.137-1.681-22.387-4.322a71.59,71.59,0,0,1-29.085-20.2c-4.841-5.421-9.5-11.054-12.582-17.741-1.44-3.12-2.539-6.334-1.29-9.834.351-.983.61-2.017,1.713-2.474,1.089,1.019,1.254,2.777,2.768,3.456.093,1.814,2.494,2.335,2.353,4.36-.153,2.208,1.061,3.961,2.337,5.633,5.364,7.032,12.211,12.332,19.731,16.848a126.148,126.148,0,0,0,20.526,9.666c7.146,2.7,14.685,2.222,22.03,3.247,3.761.525,7.506-.6,11.154-1.571a97.477,97.477,0,0,0,21.388-9c8.442-4.579,16.424-9.75,22.694-17.156,2.213-2.614,4.142-5.451,3.923-9.153a5.215,5.215,0,0,0,3.411-3.442,2,2,0,0,0,1.135-1.7l.553-.051c1.162.089,1.531.783,1.7,1.873a14.174,14.174,0,0,1-1.344,8.744c-3.793,7.63-9.736,13.643-15.316,19.882-7.818,8.743-17.51,14.892-28.343,19.3a55.26,55.26,0,0,1-17.8,4.254c-5.688.315-5.7.09-5.636,5.758q0,5.306-.008,10.613H154.46" transform="translate(-36.944 -137.886)" fill="#dbb402"></path><path d="M207.793,232.619a3.615,3.615,0,0,0,2.689-.655,2.15,2.15,0,0,1,2.421-.351c3.677,2.2,8.1,2.228,11.821,4.543a103.319,103.319,0,0,1,16.857,13.726c7.088,6.817,14.43,13.247,23.651,17.206A43.43,43.43,0,0,1,275.3,272.88c7.246,5.786,10.063,13.2,9.077,22.467-.7,6.579-4.044,12.344-4.962,18.814-.182,1.279-1.338,2.484-2.213,3.59-2.646,3.343-3.611,7.708-6.635,10.807-.675.692-.4,1.631-.688,2.379-.807,2.126.153,4.677-1.989,6.571-.846.749-.492,2.776.67,3.6,1.768,1.249,1.183,2.327.15,3.484A4.943,4.943,0,0,0,267.6,347.1c-.53,2.6-.419,4.786,2.344,6.094.312.148.379.815.559,1.242q-14.846,0-29.69,0c-1.127,0-2.253-.116-3.38-.178a13.934,13.934,0,0,0,4.39-7.7c.039-.207.406-.376.647-.519,7.444-4.416,12.861-11.036,18.588-17.276a91.557,91.557,0,0,0,13.054-18.017c2.4-4.4,4.851-8.742,6.319-13.583,1.916-6.317,2.219-12.382-1.756-18.132a5.323,5.323,0,0,0-3.545-2.553,7.03,7.03,0,0,0-2.187-2.913,52.958,52.958,0,0,0-17.776-6.811c-.437-.615-1.121-.5-1.737-.592-1.16-1.933-3.077-2.476-5.122-2.784l-.05-.043c-.056-1.121-.846-1.129-1.663-1.094l-.048-.043c-.094-1.42-1.019-1.734-2.228-1.668l-.051-.047a3.274,3.274,0,0,0-2.845-2.77l-.036-.033a1,1,0,0,0-1.087-.569l-1.174-1.139a7.3,7.3,0,0,0-4.555-4.514l-.036-.036a.977.977,0,0,0-1.058-.571l-.049-.045c-1.078-2.2-2.391-4.133-5.09-4.5l-.06-.047-.52-.508-.05-.051a.956.956,0,0,0-1.109-1.078l-.049-.043a.992.992,0,0,0-1.067-.543l-.058-.046a.95.95,0,0,0-1.109-1.07l-.053-.046c-.395-1.04-1.242-1.188-2.2-1.117l-.058-.046c-2.907-3.178-6.654-4.334-10.819-4.481a3.315,3.315,0,0,1-.56-.093c-2.871-.3-3.219-2.178-2.833-4.515" transform="translate(-89.102 -99.279)" fill="#facf02"></path><path d="M275.219,310.371a5.324,5.324,0,0,1,3.544,2.553c3.974,5.749,3.672,11.815,1.756,18.132-1.468,4.841-3.919,9.184-6.319,13.583a91.558,91.558,0,0,1-13.054,18.017c-5.727,6.241-11.144,12.86-18.589,17.276-.24.143-.607.312-.646.519a13.934,13.934,0,0,1-4.39,7.7c-9.883.344-19.768.291-29.652.055q0-5.307.007-10.614c3.273,1.37,6.561.922,9.9.216a87.414,87.414,0,0,0,26.743-10.461c15.191-9,25.72-21.957,33.173-37.653a16.979,16.979,0,0,0,.8-12.439c-.4-1.351-1.01-2.714-2.752-2.89q-.293-1.719-.586-3.438.027-.277.064-.553" transform="translate(-89.19 -133.171)" fill="#facc02"></path><path d="M319.719,446.053c.75-1.692,1.8-1.224,2.9-.4-.86.9-1.915.392-2.9.4" transform="translate(-137.182 -190.897)" fill="#facf02"></path><path d="M252.35,175.924a1.479,1.479,0,0,0,.163-.512l.538-.627.393-.531.679-1.2c2.363-1.751,5.207-2.406,7.88-3.452.138.9-.567,1.267-1.043,1.85-1.287,1.578-3.185,2.767-3.455,5.043-2.016,2.175-.991,4.8-1.007,7.245,0,.7.864,1.16,1.451,1.126,2.674-.151,5.315,1.239,8,.162-.544,6.69,5.234,10.239,10.932,7.956-.42,1.711-1.946,1.448-3.145,1.724-.619.142-1.578-.127-1.745.583a8.1,8.1,0,0,0,.344,5.222c.663,1.536,1.79,1.688,3.193,1.625s2.821,0,4.232,0a3.014,3.014,0,0,1-1.9,1.126c-7.981,2.671-18.979-2.925-22.128-11.186-.662-1.734-.621-3.935-2.367-5.025a3.239,3.239,0,0,1-1.567-3.333c.055-1.42.018-2.844.021-4.267q.264-1.768.528-3.536" transform="translate(-108.037 -72.772)" fill="#e0e0df"></path><path d="M319.334,184.23c-1.293,3.627-2.367,7.36-5.016,10.33-1.921-.145-.572-2.327-1.809-2.9a21.136,21.136,0,0,0,2.977-13.389c-.518-5.252-2.52-9.669-6.9-12.828.123-2.428-2.87-3.281-2.865-5.65,10.775,4.678,14.254,13.413,13.617,24.436" transform="translate(-131.174 -68.563)" fill="#b79301"></path><path d="M284.331,158.278c-.005,2.369,2.988,3.222,2.865,5.65l-1.179.073-1.089-.639c-.559-.839-1.131-1.662-2.286-1.7a15.173,15.173,0,0,0-13.276-.756l-1.689.6q-.572.289-1.146.574c-.919.093-1.777.288-2.16,1.283l.011-.007-.611.553-.016-.028c-2.673,1.047-5.517,1.7-7.88,3.452,1.19-3.506,3.957-5.6,6.9-7.429,6.875-4.274,14.091-4.746,21.552-1.623" transform="translate(-109.788 -67.047)" fill="#e2c163"></path><path d="M254.377,177.75l-.393.53c-.07-.327.077-.491.393-.53" transform="translate(-108.97 -76.267)" fill="#e2c163"></path><path d="M190.6,241.458a3.258,3.258,0,0,0,.56.093l10.819,4.481.058.046a1.925,1.925,0,0,0,2.2,1.117l.052.046a.974.974,0,0,0,1.109,1.07l.058.046a1.008,1.008,0,0,0,1.067.543l.049.043a.979.979,0,0,0,1.109,1.078l.05.051.52.509.059.047,3.39,3.951a3.554,3.554,0,0,0,1.011,2.53c1.3,1.848,2.5,3.753,2.425,6.205-.384,12.829-10.843,23.192-23.244,24.744-11.873,1.486-21.4-3.307-27.835-13.636-4.323-6.941-4.086-12.9.8-19.385.637-.846,1.393-1.559,1.21-2.732,0-.178,0-.355-.017-.532l.039-.046a2.564,2.564,0,0,0,2.231-1.672l.059-.045.518-.513.046-.049a2.582,2.582,0,0,0,2.232-1.667l.051-.043a.979.979,0,0,0,1.118-1.068l.05-.045a1.932,1.932,0,0,0,2.2-1.121l.054-.043,10.265-3.931,5.688-.072" transform="translate(-69.078 -103.602)" fill="#fc8900"></path><path d="M195.174,241.152l-10.265,3.932c.355-1.885,2.57-1.5,3.411-2.787l6.815-1.719c.013.191.026.383.039.574" transform="translate(-79.339 -103.225)" fill="#dbb402"></path><path d="M288.113,203.279c1.238.57-.112,2.752,1.81,2.9-2.927,4.951-7.914,7.009-12.985,8.374-11.276,3.034-24.057-4.947-27.034-16.284-1-3.815-1.516-7.544-.458-11.392l1.118-.009c0,1.422.034,2.846-.021,4.267a3.239,3.239,0,0,0,1.567,3.333c1.746,1.089,1.705,3.291,2.367,5.025,3.15,8.26,14.148,13.856,22.129,11.186a3.014,3.014,0,0,0,1.9-1.126l-.006,0c2.452.121,4.122-1.306,5.717-2.88l.5-.6a1.714,1.714,0,0,0,1.708-1.728l.561-.514,1.132-.553" transform="translate(-106.779 -80.179)" fill="#e2c163"></path><path d="M251,184.21q-.559,0-1.118.009c.147-1.366-.115-2.924,1.646-3.544q-.264,1.768-.528,3.535" transform="translate(-107.218 -77.522)" fill="#fcd901"></path><path d="M136,260.459c.182,1.173-.573,1.887-1.21,2.733-4.882,6.487-5.119,12.445-.8,19.385,6.433,10.329,15.963,15.122,27.836,13.636,12.4-1.552,22.859-11.915,23.243-24.744.074-2.452-1.121-4.358-2.424-6.2a3.555,3.555,0,0,1-1.011-2.53l1.7.552.048.045a.979.979,0,0,0,1.058.572l.036.035a7.853,7.853,0,0,0,4.555,4.514l1.173,1.139a1.009,1.009,0,0,0,1.088.568l.036.033a3.289,3.289,0,0,0,2.845,2.77l.05.047a2.469,2.469,0,0,0,2.228,1.668l.048.043a1.541,1.541,0,0,0,1.664,1.094l.05.043a9.108,9.108,0,0,0,5.122,2.783c.616.089,1.3-.023,1.737.593,2.871,2.1,6.356,2.716,9.6,3.893,3.768,1.366,7.387,2.867,9.712,6.384q0,1.362.006,2.724a89.29,89.29,0,0,1-24.526,7.519c.244-2.468-.163-3.563-3.279-2.957a79.342,79.342,0,0,1-15.707,1.753c-22.221-.2-44.549,1.68-66.574-2.824-2.394-.49-3.073.424-3.4,2.369a59.148,59.148,0,0,1-14.029-3.916,27.33,27.33,0,0,0-5.881-1.925c-.388-1.662.922-2.912,1.078-4.442l.013-.005.561-.561.01-.009.561-.56.005-.013a1.027,1.027,0,0,0,1.152-1.109l.011-.01c3.078-.459,5.884-1.81,8.809-2.755,2.439-.788,5.171-.962,7.14-2.924l.027-.047c1.493-.129,2.992-.245,3.925-1.68l.067-.042a.955.955,0,0,0,1.069-.529l.056-.049c1.323-.252,2.617-.541,2.847-2.2l.027-.025a2.71,2.71,0,0,0,2.8-1.714l.6-.572a2.427,2.427,0,0,0,2.267-2.245l.034-.038.534-.529.038-.038.535-.53.038-.029a1.043,1.043,0,0,0,1.1-.565l.605-.58.517-.545.052-.052.521-.516.051-.05.523-.517.045-.045A6.184,6.184,0,0,0,132.6,262.8l.036-.047.528-.523.046-.034a.991.991,0,0,0,1.062-.567l.056-.044.522-.514.051-.051.525-.517.048-.042.268.01Z" transform="translate(-39.017 -111.755)" fill="#f37201"></path><path d="M112.948,294.447c-1.969,1.962-4.7,2.136-7.14,2.924-2.925.945-5.732,2.3-8.809,2.754.521-1.251,1.829-1.27,2.821-1.641a103.094,103.094,0,0,1,13.129-4.038" transform="translate(-41.619 -126.338)" fill="#b79301"></path><path d="M91.226,308.362c-.157,1.53-1.466,2.781-1.079,4.444-.083,2.419,1.978,4.054,2.314,6.319l-.118.114c-1.515-.679-1.679-2.437-2.768-3.456-1.174-3.9-.8-5.609,1.651-7.421" transform="translate(-38.159 -132.309)" fill="#b79301"></path><path d="M160.92,264.557a6.184,6.184,0,0,1-3.974,3.926c.013-1.63,1.768-2.092,2.276-3.39l1.7-.536" transform="translate(-67.341 -113.513)" fill="#dbb402"></path><path d="M128.906,291.422c-.933,1.434-2.432,1.551-3.925,1.68.936-1.427,2.442-1.528,3.925-1.68" transform="translate(-53.626 -125.04)" fill="#dbb402"></path><path d="M136.79,286.479c-.23,1.661-1.524,1.951-2.847,2.2a3.35,3.35,0,0,1,2.847-2.2" transform="translate(-57.471 -122.92)" fill="#dbb402"></path><path d="M147.2,278.5a2.428,2.428,0,0,1-2.267,2.245A2.3,2.3,0,0,1,147.2,278.5" transform="translate(-62.188 -119.496)" fill="#dbb402"></path><path d="M141.776,283.42a2.711,2.711,0,0,1-2.8,1.715,2.628,2.628,0,0,1,2.8-1.715" transform="translate(-59.63 -121.6)" fill="#dbb402"></path><path d="M96.114,304.41a1.027,1.027,0,0,1-1.152,1.109,1.027,1.027,0,0,1,1.152-1.109" transform="translate(-40.745 -130.613)" fill="#b79301"></path><path d="M152.068,275.469a1.042,1.042,0,0,1-1.1.565,1.012,1.012,0,0,1,1.1-.565" transform="translate(-64.778 -118.195)" fill="#dbb402"></path><path d="M133.042,290.422a.955.955,0,0,1-1.069.529.993.993,0,0,1,1.069-.529" transform="translate(-56.626 -124.611)" fill="#dbb402"></path><path d="M149.5,277.505l-.534.529.534-.529" transform="translate(-63.917 -119.069)" fill="#dbb402"></path><path d="M93.532,307.372l-.561.561.561-.561" transform="translate(-39.891 -131.884)" fill="#b79301"></path><path d="M94.531,306.375l-.561.56.561-.56" transform="translate(-40.32 -131.456)" fill="#b79301"></path><path d="M155.47,272.506l-.522.516.522-.516" transform="translate(-66.484 -116.924)" fill="#dbb402"></path><path d="M154.469,273.5l-.517.545.517-.545" transform="translate(-66.056 -117.351)" fill="#dbb402"></path><path d="M150.5,276.511l-.535.53.535-.53" transform="translate(-64.347 -118.643)" fill="#dbb402"></path><path d="M156.474,271.511l-.523.517.523-.517" transform="translate(-66.914 -116.497)" fill="#dbb402"></path><path d="M86.563,172.917c-.066-1.007.884-1.5,1.183-2.317,2.313-.79,3.633-3.878,6.714-2.892.235,1.055-.779,1.535-1.08,2.343a1.667,1.667,0,0,0-1.149,1.7,1.217,1.217,0,0,0-.579,1.134c-1.636,1.733-2.513,9.1-1.258,10.86.261.367.7.877,1.049.866,2.761-.086,5.479,1.644,8.264.212a8.638,8.638,0,0,0,5.788,5.694c2.042.593,3.7-.66,5.57-.863-1.01,1.935-2.386,3.758-1.717,6.172.4,1.427.82,2.96,2.693,2.635,1.624-.281,3.436-.251,4.709-1.633,4.072-3.3,7.362-6.925,8.355-12.491,1.524-8.542-4.97-18.27-13.481-20.137-3.776-.828-7.308.45-10.95.081,1.873-1.44,4.046-1.5,6.309-1.72,4.083-.4,7.389,1.678,11,2.788a20.138,20.138,0,0,1,8.49,17.112c-.024,3.51-1.507,6.662-2.884,9.811-.682.225-.957.819-1.357,1.352a18.537,18.537,0,0,1-12.463,7.011C99.192,202.2,89.8,194.648,88.2,183.993c-.11-.731.073-1.546-.706-2.033-2.155-1.349-1.565-3.4-1.375-5.348.12-1.235,1.171-2.36.442-3.7" transform="translate(-36.858 -69.728)" fill="#e0e0df"></path><path d="M85.273,180.739c.729,1.335-.322,2.46-.442,3.7-.191,1.953-.78,4,1.375,5.348.779.488.6,1.3.706,2.033,1.6,10.655,10.99,18.2,21.569,16.64a18.537,18.537,0,0,0,12.463-7.011c.4-.533.675-1.127,1.357-1.352.438,1.318-1,3.165,1.133,4.006-7.312,10.014-26.09,11.5-34.725.726-3.612-4.509-6.043-9.572-5.8-15.57.3-2.972-.341-6.205,2.36-8.514" transform="translate(-35.568 -77.55)" fill="#e2c163"></path><path d="M147.083,195.033c-2.129-.842-.7-2.688-1.133-4.006,1.378-3.15,2.86-6.3,2.884-9.811a20.136,20.136,0,0,0-8.49-17.111c.3-2.052-2.369-2.573-2.331-4.492l1.081.083a6.349,6.349,0,0,0,3.434,1.7,1.246,1.246,0,0,0,.466.035,1.189,1.189,0,0,0,1.221,1.135,6.841,6.841,0,0,0,2.3,2.241,25,25,0,0,1,5.819,15.476c.136,5.662-1.914,10.395-5.249,14.747" transform="translate(-59.217 -68.485)" fill="#b79301"></path><path d="M117.041,158.045c-.038,1.919,2.626,2.44,2.331,4.492-3.614-1.11-6.921-3.185-11-2.788-2.263.22-4.436.279-6.308,1.72a3.228,3.228,0,0,0-.444.109,1.112,1.112,0,0,0-1.322.413.776.776,0,0,0-.409.063,1.906,1.906,0,0,0-1.832,1.126l-1,.611-.624.57.015-.015-.594.577-.008-.025c-3.08-.985-4.4,2.1-6.713,2.892a20.15,20.15,0,0,1,12.728-10.572c3.611-1.018,7.328-1.789,11.124-.794,1.009.8,2.276.787,3.444,1.086l.612.536" transform="translate(-38.244 -66.918)" fill="#e2c163"></path><path d="M143.341,161.307a6.349,6.349,0,0,1-3.434-1.7c1.729-.606,2.766.179,3.434,1.7" transform="translate(-60.03 -68.393)" fill="#facf02"></path><path d="M134.354,157.5c-1.168-.3-2.436-.284-3.444-1.086,1.559-.939,2.667-.449,3.444,1.086" transform="translate(-56.17 -66.907)" fill="#facf02"></path><path d="M147.96,163.934a1.189,1.189,0,0,1-1.221-1.136c.811-.057,1.226.315,1.221,1.136" transform="translate(-62.961 -69.85)" fill="#facf02"></path><path d="M172.146,256.512a2.565,2.565,0,0,1-2.231,1.672c.087-1.432,1.02-1.736,2.231-1.672" transform="translate(-72.905 -110.058)" fill="#dbb402"></path><path d="M177.146,252.528a2.581,2.581,0,0,1-2.232,1.667c.084-1.438,1.026-1.728,2.232-1.667" transform="translate(-75.05 -108.349)" fill="#dbb402"></path><path d="M183.16,248.537a1.932,1.932,0,0,1-2.2,1.121c.4-1.04,1.247-1.182,2.2-1.121" transform="translate(-77.643 -106.635)" fill="#dbb402"></path><path d="M180.029,250.588a.979.979,0,0,1-1.118,1.068.961.961,0,0,1,1.118-1.068" transform="translate(-76.765 -107.519)" fill="#dbb402"></path><path d="M166.036,262.507a.992.992,0,0,1-1.062.567.976.976,0,0,1,1.062-.567" transform="translate(-70.785 -112.634)" fill="#dbb402"></path><path d="M164.5,263.559l-.529.522.529-.522" transform="translate(-70.354 -113.085)" fill="#dbb402"></path><path d="M167.454,261.529l-.522.514.522-.514" transform="translate(-71.625 -112.214)" fill="#dbb402"></path><path d="M168.46,260.534l-.525.517.525-.517" transform="translate(-72.056 -111.787)" fill="#dbb402"></path><path d="M169.474,260.059l-.268.012-.268-.01.519-.534c.011.178.017.355.017.532" transform="translate(-72.486 -111.355)" fill="#dbb402"></path><path d="M174.442,255.54l-.518.513.518-.513" transform="translate(-74.626 -109.645)" fill="#dbb402"></path><path d="M221.042,330.2c.219,3.7-1.71,6.539-3.923,9.153-6.271,7.406-14.252,12.576-22.694,17.156a97.481,97.481,0,0,1-21.389,9c-3.648.968-7.392,2.1-11.154,1.571-7.345-1.025-14.884-.548-22.03-3.247a126.12,126.12,0,0,1-20.526-9.666c-7.52-4.515-14.366-9.816-19.731-16.848-1.276-1.672-2.49-3.425-2.337-5.633.14-2.025-2.26-2.545-2.353-4.36l.116-.114a4.479,4.479,0,0,1,1.252.6c5.728,5.577,12.676,9.127,19.971,12.133,12.812,5.279,26.26,7.537,39.992,8.393,7.116.444,14.138-.547,21.157-1.613,11.867-1.8,23.278-4.992,33.83-10.835,3.3-1.825,6.475-3.867,9.708-5.81l.111.113" transform="translate(-40.721 -140.398)" fill="#b79301"></path><path d="M275.738,317.363c1.742.176,2.347,1.539,2.751,2.889a16.978,16.978,0,0,1-.8,12.439c-7.453,15.7-17.981,28.652-33.173,37.653a87.406,87.406,0,0,1-26.743,10.462c-3.339.706-6.628,1.153-9.9-.217-.065-5.668-.052-5.444,5.636-5.758a55.25,55.25,0,0,0,17.8-4.253c10.833-4.411,20.524-10.56,28.343-19.3,5.58-6.24,11.523-12.252,15.315-19.882a14.172,14.172,0,0,0,1.345-8.744c-.173-1.09-.542-1.785-1.7-1.873.4-1.13.333-2.414,1.132-3.412" transform="translate(-89.187 -136.171)" fill="#f9c802"></path><path d="M325.408,314.778c-.8,1-.732,2.283-1.132,3.412l-.552.051-.1-.1q.307-2.042.615-4.084,0-1.362-.006-2.723l.589,0q.293,1.719.586,3.438" transform="translate(-138.857 -133.586)" fill="#b79301"></path><path d="M319.166,326.343a5.216,5.216,0,0,1-3.411,3.442l-.11-.112a5.509,5.509,0,0,1,3.413-3.424Z" transform="translate(-135.434 -139.983)" fill="#b79301"></path><path d="M322.866,323.357a2,2,0,0,1-1.135,1.7l-.107-.094c.042-.794.125-1.561,1.141-1.706Z" transform="translate(-137.999 -138.702)" fill="#b79301"></path><path d="M310.766,303.617l-.59,0c-2.324-3.517-5.944-5.018-9.712-6.384-3.245-1.176-6.728-1.792-9.6-3.893a52.936,52.936,0,0,1,17.776,6.811,7.03,7.03,0,0,1,2.187,2.913c-.024.184-.045.368-.062.553" transform="translate(-124.801 -125.863)" fill="#dbb402"></path><path d="M224.652,246.1l-10.819-4.482c4.166.147,7.912,1.3,10.819,4.482" transform="translate(-91.749 -103.672)" fill="#dbb402"></path><path d="M248.965,262.024l-1.7-.552-3.39-3.951c2.7.37,4.012,2.3,5.09,4.5" transform="translate(-104.639 -110.494)" fill="#dbb402"></path><path d="M259.347,271.063a7.852,7.852,0,0,1-4.555-4.514,7.3,7.3,0,0,1,4.555,4.514" transform="translate(-109.324 -114.368)" fill="#dbb402"></path><path d="M283.975,290.209a9.1,9.1,0,0,1-5.122-2.783c2.045.308,3.962.851,5.122,2.783" transform="translate(-119.647 -123.326)" fill="#dbb402"></path><path d="M269.638,280.274a3.289,3.289,0,0,1-2.845-2.77,3.275,3.275,0,0,1,2.845,2.77" transform="translate(-114.473 -119.069)" fill="#dbb402"></path><path d="M274.092,284.1a2.468,2.468,0,0,1-2.228-1.668c1.21-.066,2.134.247,2.228,1.668" transform="translate(-116.649 -121.179)" fill="#dbb402"></path><path d="M235.085,250.656a1.924,1.924,0,0,1-2.2-1.117c.959-.071,1.808.077,2.2,1.117" transform="translate(-99.923 -107.063)" fill="#dbb402"></path><path d="M277.515,286.521a1.54,1.54,0,0,1-1.664-1.094c.818-.035,1.607-.027,1.664,1.094" transform="translate(-118.359 -122.464)" fill="#dbb402"></path><path d="M241.939,255.648a.978.978,0,0,1-1.109-1.078.955.955,0,0,1,1.109,1.078" transform="translate(-103.333 -109.228)" fill="#dbb402"></path><path d="M237.941,252.657a.974.974,0,0,1-1.109-1.071.951.951,0,0,1,1.109,1.071" transform="translate(-101.617 -107.948)" fill="#dbb402"></path><path d="M265.913,277.019a1.009,1.009,0,0,1-1.088-.569,1.009,1.009,0,0,1,1.088.569" transform="translate(-113.628 -118.616)" fill="#dbb402"></path><path d="M239.942,254.086a1.008,1.008,0,0,1-1.067-.543.991.991,0,0,1,1.067.543" transform="translate(-102.494 -108.787)" fill="#dbb402"></path><path d="M253.933,266.057a.978.978,0,0,1-1.058-.572.978.978,0,0,1,1.058.572" transform="translate(-108.501 -113.912)" fill="#dbb402"></path><path d="M243.38,257.057l-.52-.509.52.509" transform="translate(-104.204 -110.077)" fill="#dbb402"></path><path d="M292.532,193.941l-.561.515a1.734,1.734,0,0,0-1.708,1.727l-.5.6-1.725.029a2.69,2.69,0,0,1-3.361-2.517c-.3-2.022-.452-4.067-.667-6.1a1.443,1.443,0,0,1,.1-.5c2.079-1.667,2.268-3.3.594-5.141-.847-3.31-2.8-5.356-6.347-5.714a10.98,10.98,0,0,0-5.659,1.2c-2.349-.575-4.678-1.475-7.053-1.623-1.936-.12-3.124-.69-3.848-2.4.271-2.276,2.168-3.464,3.455-5.043.476-.583,1.181-.95,1.043-1.85l.016.027.611-.553-.011.007c.818,0,1.688.233,2.321-.545,1.492-.179,3.2.161,3.991-1.684l1.117-.02c.992.768,1.847.952,2.31-.539l2.787.005c.288,1.145.838,1.424,1.744.526l2.833.582c.613,1.667,2.118,1.5,3.456,1.675l1.089.639c.1.26.128.628.32.766,7.446,5.382,8.417,15.9,4.353,23.511a4.6,4.6,0,0,0-.7,2.421" transform="translate(-112.33 -70.288)" fill="#fff"></path><path d="M279.016,187.784a10.98,10.98,0,0,1,5.658-1.2c3.551.359,5.5,2.4,6.347,5.714-.215,1.712.126,3.487-.593,5.141a1.444,1.444,0,0,0-.1.5l-2.836,2.311c-5.7,2.283-11.476-1.266-10.932-7.956a12.674,12.674,0,0,1,2.46-4.516m7.76,2.542c-.468-2.149-1.978-1.878-3.349-1.884-.791,0-1.795.2-1.829.934-.055,1.177,1.09.581,1.715.669,1.072.15,2.16.183,3.463.281" transform="translate(-118.647 -80.042)" fill="#2b2b2d"></path><path d="M291.851,208.823l2.836-2.311c.216,2.035.363,4.08.668,6.1a2.69,2.69,0,0,0,3.361,2.517c-.6,1.965-3.422.839-3.992,2.851l.006,0c-1.411-.006-2.824-.065-4.233,0s-2.529-.09-3.193-1.626a8.1,8.1,0,0,1-.344-5.222c.167-.71,1.126-.441,1.745-.583,1.2-.275,2.725-.013,3.145-1.723" transform="translate(-123.009 -88.608)" fill="#f1f1f1"></path><path d="M271.758,185.695a12.657,12.657,0,0,0-2.46,4.516c-2.681,1.076-5.323-.313-8-.162-.587.034-1.455-.423-1.451-1.127.016-2.449-1.01-5.07,1.006-7.245.724,1.705,1.912,2.274,3.848,2.394,2.375.148,4.7,1.048,7.053,1.623" transform="translate(-111.388 -77.952)" fill="#f1f1f1"></path><path d="M312.643,196.463a4.6,4.6,0,0,1,.7-2.421c4.064-7.608,3.093-18.129-4.353-23.511-.192-.138-.218-.506-.32-.766l1.178-.073c4.384,3.158,6.386,7.576,6.9,12.828a21.138,21.138,0,0,1-2.977,13.389l-1.132.553" transform="translate(-132.441 -72.81)" fill="#e0e0df"></path><path d="M287.035,163.189l-2.788-.005c-.809.014-1.7-.317-2.31.54l-1.117.019-1.148-.016-.17-.215a15.182,15.182,0,0,1,13.277.758l-1.169.029-2.833-.583c-.426-.688-1.1-.572-1.743-.526" transform="translate(-119.926 -69.657)" fill="#e0e0df"></path><path d="M300.711,165.745l1.169-.028c1.155.041,1.727.863,2.286,1.7-1.338-.175-2.842-.008-3.455-1.675" transform="translate(-129.026 -71.104)" fill="#f1f1f1"></path><path d="M273.077,167.188c-.634.778-1.5.55-2.321.545.383-.995,1.241-1.19,2.16-1.283l.167.182a3.421,3.421,0,0,0-.006.557" transform="translate(-116.173 -71.419)" fill="#e0e0df"></path><path d="M276.544,164.991q.845-.3,1.69-.6l.168.213c-.421.625-1.086.532-1.7.578Z" transform="translate(-118.657 -70.535)" fill="#e0e0df"></path><path d="M274.539,166.018q.574-.285,1.146-.573l.154.19-1.133.566Z" transform="translate(-117.796 -70.987)" fill="#e0e0df"></path><path d="M270.315,168.684l-.611.553.611-.553" transform="translate(-115.722 -72.377)" fill="#e0e0df"></path><path d="M300.763,224.437c.57-2.012,3.387-.887,3.991-2.851l1.725-.03c-1.595,1.575-3.265,3-5.716,2.88" transform="translate(-129.048 -95.063)" fill="#e0e0df"></path><path d="M311.655,219.211a1.734,1.734,0,0,1,1.708-1.727,1.715,1.715,0,0,1-1.708,1.727" transform="translate(-133.722 -93.316)" fill="#e0e0df"></path><path d="M223.835,320.192c-1.016.145-1.1.912-1.141,1.706a5.506,5.506,0,0,0-3.414,3.424c-3.233,1.942-6.41,3.984-9.708,5.81-10.553,5.842-21.964,9.033-33.83,10.835-7.019,1.066-14.041,2.057-21.157,1.613-13.732-.857-27.18-3.114-39.992-8.393-7.294-3.006-14.244-6.557-19.971-12.133a4.463,4.463,0,0,0-1.252-.6c-.335-2.265-2.4-3.9-2.313-6.319a27.226,27.226,0,0,1,5.881,1.923,59.146,59.146,0,0,0,14.029,3.916,20.824,20.824,0,0,0,2.663.968,205.56,205.56,0,0,0,35.579,4.645,196.417,196.417,0,0,0,50.716-3.955,89.28,89.28,0,0,0,24.525-7.519q-.307,2.04-.615,4.083" transform="translate(-39.068 -135.633)" fill="#d2522d"></path><path d="M214.889,326.155a196.419,196.419,0,0,1-50.716,3.955,205.619,205.619,0,0,1-35.579-4.645,20.923,20.923,0,0,1-2.663-.968c.324-1.946,1-2.859,3.4-2.37,22.026,4.5,44.354,2.625,66.574,2.824A79.385,79.385,0,0,0,211.61,323.2c3.116-.606,3.524.489,3.279,2.957" transform="translate(-54.033 -138.159)" fill="#fc8900"></path><path d="M99.992,167.655l1-.61,1.258.085c1.468.953,1.466-.294,1.726-1.15l.577-.537a3.15,3.15,0,0,1,.444-.11c3.641.369,7.174-.908,10.95-.081,8.511,1.866,15.005,11.594,13.481,20.136-.993,5.567-4.282,9.191-8.355,12.491-2.625-.847-2.48-3.251-2.79-5.265-.232-1.5-.728-2.295-2.308-2.151l2.355-2.848c.787-.162,1.321-.411.406-1.165.626-6.7-4.109-10.858-11.3-8.508-2.631-.566-5.245-1.452-7.9-1.592a3.716,3.716,0,0,1-3.556-2.415,1.218,1.218,0,0,1,.579-1.135c1.142-.053,1.146-.875,1.149-1.7.3-.808,1.314-1.287,1.08-2.342l.008.025.593-.577-.014.015.623-.57" transform="translate(-41.18 -70.783)" fill="#fff"></path><path d="M113.424,187.2c7.2-2.35,11.931,1.81,11.3,8.508-.663.2-.519.69-.406,1.165l-2.355,2.848-.587.241c-1.866.2-3.528,1.455-5.57.863a8.637,8.637,0,0,1-5.788-5.693c-.475-3.331,1.313-5.7,3.4-7.931m4.215,2.745c.691.815,1.308,1.2,1.606-.275-.856-1.808-2.614-1.762-4.385.178a5.6,5.6,0,0,0,2.779.1" transform="translate(-47.175 -80.037)" fill="#2b2b2d"></path><path d="M106.036,184.685c-2.087,2.236-3.875,4.6-3.4,7.931-2.784,1.432-5.5-.3-8.264-.212-.345.011-.788-.5-1.049-.866-1.255-1.761-.377-9.127,1.259-10.86a3.716,3.716,0,0,0,3.556,2.415c2.654.14,5.267,1.026,7.9,1.592" transform="translate(-39.787 -77.523)" fill="#f1f1f1"></path><path d="M128.552,209.855l.587-.241c1.58-.144,2.076.651,2.308,2.151.311,2.013.166,4.417,2.79,5.265-1.272,1.382-3.085,1.352-4.708,1.633-1.873.324-2.3-1.209-2.693-2.635-.669-2.414.707-4.237,1.717-6.172" transform="translate(-54.345 -89.932)" fill="#f1f1f1"></path><path d="M98.137,175.717c0,.823-.006,1.644-1.149,1.7a1.667,1.667,0,0,1,1.149-1.7" transform="translate(-41.615 -75.395)" fill="#f1f1f1"></path><path d="M108.688,166.643c-.26.856-.259,2.1-1.727,1.15l.572-1.212a.773.773,0,0,1,.41-.063l.744.124" transform="translate(-45.894 -71.446)" fill="#f1f1f1"></path><path d="M106.587,166.633l-.572,1.212-1.258-.086a1.9,1.9,0,0,1,1.83-1.126" transform="translate(-44.948 -71.497)" fill="#e0e0df"></path><path d="M109.426,166.294l-.744-.124a1.108,1.108,0,0,1,1.321-.413l-.577.537" transform="translate(-46.632 -71.096)" fill="#e0e0df"></path><path d="M102.542,169.675l-.623.57.623-.57" transform="translate(-43.73 -72.802)" fill="#e0e0df"></path><path d="M101.5,170.647l-.594.577.594-.577" transform="translate(-43.295 -73.219)" fill="#e0e0df"></path><path d="M300.88,201.768c.72-1.653.378-3.429.594-5.14,1.674,1.836,1.485,3.474-.594,5.14" transform="translate(-129.099 -84.367)" fill="#f1f1f1"></path><path d="M274.82,165.908l1.132-.566c.618-.046,1.284.047,1.7-.578l1.148.016c-.787,1.846-2.5,1.506-3.991,1.684a3.481,3.481,0,0,1,.006-.557" transform="translate(-117.911 -70.695)" fill="#f1f1f1"></path><path d="M283.766,164.315c.611-.857,1.5-.525,2.31-.54-.463,1.492-1.318,1.308-2.31.54" transform="translate(-121.755 -70.249)" fill="#f1f1f1"></path><path d="M292.7,163.8c.648-.046,1.317-.162,1.743.526-.906.9-1.455.618-1.743-.526" transform="translate(-125.587 -70.264)" fill="#f1f1f1"></path><path d="M290.589,191.744c-1.3-.1-2.392-.131-3.463-.281-.625-.088-1.77.508-1.715-.669.034-.735,1.038-.937,1.829-.934,1.371.006,2.881-.265,3.349,1.884" transform="translate(-122.46 -81.46)" fill="#e2c163"></path><path d="M135.054,203.763c-.112-.474-.257-.96.406-1.165.915.754.381,1-.406,1.165" transform="translate(-57.906 -86.929)" fill="#f1f1f1"></path><path d="M121.331,191.307a5.6,5.6,0,0,1-2.779-.1c1.771-1.94,3.528-1.986,4.388-.179-.577-.153-1.18-.441-1.609.276" transform="translate(-50.867 -81.401)" fill="#e2c163"></path><path d="M123.419,192.155c.429-.718,1.033-.429,1.609-.276-.3,1.478-.919,1.091-1.609.276" transform="translate(-52.955 -82.248)" fill="#d2522d"></path></g></svg>