<svg xmlns="http://www.w3.org/2000/svg" width="80" height="80.044" viewBox="0 0 80 80.044"><g transform="translate(-1.14 -1.134)"><path d="M41.144,65.713V81.178c26.212,0,46.582-25.308,38.009-52.792A38.733,38.733,0,0,0,53.885,3.118C26.448-5.454,1.14,14.956,1.14,41.127H16.605c0-16.416,16.281-29.116,33.566-22.859A23.18,23.18,0,0,1,64,32.1c6.3,17.267-6.415,33.531-22.813,33.566V50.289H25.766V65.713Z" transform="translate(0 0)" fill="#0080ff"></path><path d="M23.437,32.319H11.553V20.441H23.437ZM1.622,20.441h9.931V10.5H1.622Z" transform="translate(2.329 45.272)" fill="#0080ff"></path></g></svg>