<svg xmlns="http://www.w3.org/2000/svg" width="80" height="93.333" viewBox="0 0 80 93.333"><g transform="translate(-2 -1)"><path d="M82,42.313,68.713,35.167,57.5,41.82l-.133,6.813-5.46-3.493-7.413,4.4-.327-7.447-7.633-4.967,7.293-3.667c-.053,0,0,.707-1.08-24.373L25.493,1,2,8.107,7.247,32.68l7.887,5.96-6,2.747,3.92,18.52L18.56,64.94l-3.933,2.333,3.053,14.32,12.36,12.74c.06-.067,1.3-1,15.873-12.3l-.427-9.727,6.267,5.173c.087-.093,1.333-.993,12.807-9.867l.447-7.193,4.727,3.193c.08-.087,1.153-.887,10.413-8.04Z" fill="#231f20"></path><path d="M24.934,22.172l11.943-8.3-14.4-7.745L10.325,13.336l14.609,8.836Z" transform="translate(45.123 28.502)"></path><path d="M41.663,30.727l1.322-14.768L28.391,7.123l-.3,14.428,13.583,9.176ZM22.178,45.755v-15.3L7.424,19.564,8.58,34.593l13.6,11.155Z" transform="translate(27.064 32.584)" fill="#004b16"></path><path d="M22.178,27.353,36.989,17.021l-14.667-9.4-14.9,8.843L22.178,27.353Z" transform="translate(29.169 36.623)"></path><path d="M20.6,40.259,18.249,24.624,3.893,10.94,7.217,26.459,20.6,40.259Z" transform="translate(10.475 54.06)" fill="#004b16"></path><path d="M18.249,34.136l18.9-13.121L22.512,9.412,3.893,20.452Z" transform="translate(10.069 46.149)"></path><path d="M22.169,40.656,19.062,19.978,3.066,7.06,7.343,27.109Z" transform="translate(6.636 32.657)" fill="#004b16"></path><path d="M19.055,28.569,41.077,16.4,24.625,5.68,3.066,15.643,19.055,28.576Z" transform="translate(6.636 25.755)"></path><path d="M24.2,41.191l-4.27-28.322L2,2.067,7.686,28.7,24.2,41.2Z" transform="translate(0 6.642)" fill="#004b16"></path><path d="M19.925,19.518,46.13,9.742,27.461,1,2,8.7Z"></path><path d="M71.282,48.334c-11.09,7.837-11.343,7.976-11.293,7.976,1.373-14.153,1.257-13.519,1.322-13.519,12.644-8.062,11.856-7.6,11.943-7.6ZM54.4,60.279C40.669,70,40.452,70.06,40.51,70.06c-.137-14.663-.058-14.008,0-14.008C56.319,46,55.271,46.595,55.322,46.595ZM34.181,74.584c-17.123,12.13-17.282,12.2-17.2,12.2-2.435-14.749-2.377-14.312-2.377-14.312C34.752,59.69,33.48,60.464,33.531,60.464ZM30.7,2.21C31.9,27.111,31.8,26.4,31.869,26.4,9.2,36.873,8.706,37.078,8.749,37.078c-4.364-26.5-4.3-25.926-4.263-25.926L30.691,2.21Zm1.568,32.765c.91,18.876.795,18.221.881,18.221C13.539,64.935,13.315,65.06,13.395,65.06c-3.172-19.444-3.172-18.948-3.121-18.948L32.266,34.975Z" transform="translate(8.731 7.532)" fill="#1cb35c"></path></g></svg>