<svg xmlns="http://www.w3.org/2000/svg" xmlns:xlink="http://www.w3.org/1999/xlink" width="296.252" height="240" viewBox="0 0 296.252 240"><defs><linearGradient id="Media_storage_Icon" x1="0.101" y1="0.457" x2="1.182" y2="0.548" gradientUnits="objectBoundingBox"><stop offset="0" stop-color="#6179f8"></stop><stop offset="1" stop-color="#f5d361"></stop></linearGradient></defs><path d="M68.739,121.406c20.182,8.474,47.677,13.607,77.773,13.607s57.592-5.133,77.773-13.607c10.091-4.254,18.6-9.458,24.682-15.505,6.118-6.082,10.056-13.361,10.056-21.517,0-11.146-7.278-20.534-17.615-27.776-10.3-7.208-24.577-12.974-41.137-16.912V39.66A56.234,56.234,0,0,0,92.789,39.7c-16.6,3.938-30.835,9.7-41.172,16.912C41.28,63.85,34,73.237,34,84.383c0,8.157,3.938,15.435,10.056,21.517,6.083,6.048,14.626,11.251,24.682,15.505M146.513,11.251a45.132,45.132,0,0,1,44.969,47.36v-.036c-.176.141-.387.282-.6.457a44.036,44.036,0,0,1-7.735,4.43c-7.278,3.34-19.057,6.856-36.636,6.856S117.154,66.8,109.876,63.5a43.563,43.563,0,0,1-7.735-4.43c-.211-.176-.422-.317-.6-.457a45.132,45.132,0,0,1,44.969-47.36M58.086,65.819c7.841-5.485,18.881-10.3,32.382-13.958a61.852,61.852,0,0,0,.035,9.88,5.526,5.526,0,0,0,1.512,3.375l4.114-3.868-.035.035c-4.114,3.868-4.114,3.868-4.079,3.868l.035.036.07.07.211.211c.176.176.387.387.668.633.563.527,1.406,1.2,2.461,2A54.447,54.447,0,0,0,105.2,73.73c8.79,4.008,22.186,7.841,41.313,7.841s32.523-3.833,41.313-7.841a54.448,54.448,0,0,0,9.739-5.626,28.628,28.628,0,0,0,2.461-2,6.13,6.13,0,0,0,.668-.633l.211-.211.07-.07.035-.036-4.079-3.868,4.114,3.868a5.526,5.526,0,0,0,1.512-3.375,61.853,61.853,0,0,0,.035-9.88c13.466,3.622,24.541,8.473,32.382,13.958,8.966,6.258,12.8,12.728,12.8,18.53,0,4.289-2.039,8.86-6.751,13.536-4.747,4.711-11.849,9.211-21.131,13.114-18.494,7.771-44.442,12.728-73.378,12.728S91.628,118.8,73.1,111.034c-9.247-3.9-16.384-8.4-21.131-13.114-4.676-4.677-6.716-9.247-6.716-13.536,0-5.8,3.832-12.271,12.833-18.565m20.92,29.816A8.438,8.438,0,1,0,70.568,87.2a8.438,8.438,0,0,0,8.438,8.438m135.013,0a8.438,8.438,0,1,0-8.438-8.438,8.438,8.438,0,0,0,8.438,8.438m-67.507,16.877a8.438,8.438,0,1,0-8.438-8.438,8.438,8.438,0,0,0,8.438,8.438M83.16,186.935,47.652,175.491a12.507,12.507,0,0,0-15.709,7.842l-9.684,29.141a12.237,12.237,0,0,0,7.962,15.472L65.729,239.39a12.508,12.508,0,0,0,15.71-7.842l9.684-29.141a12.238,12.238,0,0,0-7.962-15.471m-.915,12.61-9.684,29.141a3.133,3.133,0,0,1-3.927,1.961L33.126,219.2a3.065,3.065,0,0,1-1.991-3.868l9.684-29.141a3.133,3.133,0,0,1,3.927-1.96L55.1,187.571,51.23,199.228a3.066,3.066,0,0,0,1.991,3.868l8.877,2.861A3.133,3.133,0,0,0,66.025,204L69.9,192.339l10.356,3.338a3.065,3.065,0,0,1,1.99,3.868m98.285-25.967A12.386,12.386,0,0,0,167.7,161.694l-37.343,1.124a12.357,12.357,0,0,0-12.068,12.634l.951,30.648a12.386,12.386,0,0,0,12.828,11.884l37.344-1.124a12.358,12.358,0,0,0,12.068-12.634Zm-11.4,34.087-37.343,1.124a3.1,3.1,0,0,1-3.207-2.971l-.951-30.648a3.1,3.1,0,0,1,3.017-3.159l10.892-.328.38,12.259a3.1,3.1,0,0,0,3.207,2.972l9.336-.282a3.1,3.1,0,0,0,3.017-3.158l-.38-12.259,10.892-.327a3.1,3.1,0,0,1,3.207,2.971l.951,30.648a3.1,3.1,0,0,1-3.017,3.158M295.138,165.2l-12.865-27.884a12.508,12.508,0,0,0-16.484-6.047l-34.015,15.322a12.237,12.237,0,0,0-6.192,16.261l12.865,27.884a12.507,12.507,0,0,0,16.484,6.046l34.015-15.322a12.237,12.237,0,0,0,6.192-16.261m-10.051,7.9-34.015,15.322a3.133,3.133,0,0,1-4.121-1.512l-12.865-27.883a3.066,3.066,0,0,1,1.548-4.066l9.921-4.468,5.146,11.153a3.133,3.133,0,0,0,4.121,1.511l8.5-3.83a3.066,3.066,0,0,0,1.548-4.065L259.728,144.1l9.921-4.469a3.134,3.134,0,0,1,4.121,1.512l12.865,27.884a3.065,3.065,0,0,1-1.548,4.065M47.262,122.676l-2.436-1.406a3.526,3.526,0,0,0-4.8,1.287L.468,191.067a3.526,3.526,0,0,0,1.287,4.8l2.436,1.406a3.526,3.526,0,0,0,4.8-1.287l39.555-68.51a3.527,3.527,0,0,0-1.287-4.8m157.77,21.515a3.526,3.526,0,0,0-4.189-2.679l-2.747.6a3.526,3.526,0,0,0-2.679,4.189l19.467,88.575a3.526,3.526,0,0,0,4.189,2.68l2.747-.6a3.525,3.525,0,0,0,2.679-4.188Zm-104.095-1.9-2.7-.781a3.526,3.526,0,0,0-4.354,2.4l-8.69,30.066a3.527,3.527,0,0,0,2.4,4.354l2.7.781a3.526,3.526,0,0,0,4.354-2.4l8.69-30.066a3.527,3.527,0,0,0-2.4-4.354" transform="translate(0)" fill="url(#Media_storage_Icon)"></path></svg>