<svg id="Ebene_2" xmlns="http://www.w3.org/2000/svg" viewBox="0 0 1049.83 477.44"><g id="Icons"><path id="Nextcloud-Icon" d="m525.37,0c-108.76,0-200.93,73.74-229.51,173.28-24.89-53.46-78.35-90.33-141.02-90.33C70.05,82.95,0,153,0,238.72s70.05,155.77,155.77,155.77c61.75,0,116.14-36.87,141.02-90.33,27.65,99.54,119.82,173.28,228.58,173.28s200.01-72.81,229.51-171.44c24.89,51.62,78.35,87.56,139.18,87.56,85.72,0,155.77-70.05,155.77-155.77s-70.05-154.85-155.77-154.85c-60.83,0-114.29,35.95-139.18,87.56C725.38,72.81,634.13,0,525.37,0Zm0,91.25c82.03,0,147.47,65.44,147.47,147.47s-65.44,147.47-147.47,147.47-147.47-65.44-147.47-147.47,65.44-147.47,147.47-147.47Zm-369.6,82.95c35.95,0,64.52,28.57,64.52,64.52s-28.57,64.52-64.52,64.52-64.52-28.57-64.52-64.52,28.57-64.52,64.52-64.52Zm738.29,0c35.95,0,64.52,28.57,64.52,64.52s-28.57,64.52-64.52,64.52-64.52-28.57-64.52-64.52c.92-35.95,28.57-64.52,64.52-64.52Z" fill="#0082c9"></path></g></svg>