<svg id="Ebene_2" xmlns="http://www.w3.org/2000/svg" viewBox="0 0 653.2 619.23"><g id="Icons"><g id="Rclone_Icon"><path id="path7" d="m626.42,319.69c-20.65-35.77-50.71-62.74-85.25-79.57-4.42,23.59-12.78,46.85-25.45,68.8l-19.99,34.69c13.31,7.4,24.9,18.28,33.08,32.44,24.01,41.59,9.76,94.79-31.84,118.8-41.59,24.01-94.79,9.77-118.8-31.83l-40.33-69.75h-65.09l-32.54,56.36,40.36,69.74c55.15,95.51,177.26,128.23,272.77,73.08,95.5-55.14,128.22-177.25,73.08-272.76" fill="#70caf2"></path><path id="path11" d="m426.42,26.78C330.92-28.35,208.8,4.37,153.66,99.87c-20.66,35.77-28.98,75.28-26.29,113.61,22.64-7.97,46.96-12.36,72.31-12.36l40.02-.04c-.25-15.22,3.39-30.71,11.55-44.86,24.02-41.6,77.21-55.86,118.81-31.83,41.6,24.01,55.85,77.2,31.83,118.8l-40.23,69.81,32.53,56.37h65.09s40.21-69.84,40.21-69.84c55.15-95.5,22.42-217.62-73.08-272.76" fill="#b4e3f9"></path><path id="path15" d="m264.36,528.73l-20.05-34.65c-13.06,7.84-28.28,12.42-44.62,12.42-48.04,0-86.98-38.94-86.98-86.98s38.94-86.97,86.98-86.97l80.56-.06,32.55-56.36-32.55-56.36-80.57.08c-110.28,0-199.67,89.4-199.67,199.67s89.39,199.68,199.67,199.68c41.3,0,79.66-12.55,111.5-34.01-18.22-15.63-34.15-34.53-46.81-56.47" fill="#3f79ad"></path></g></g></svg>