<svg id="Ebene_1" xmlns="http://www.w3.org/2000/svg" xmlns:xlink="http://www.w3.org/1999/xlink" viewBox="0 0 418.61 357.74"><defs><clipPath id="clippath"><polygon points="347.71 240.28 347.71 258.02 418.61 216.67 418.61 198.93 347.71 240.28" fill="none"></polygon></clipPath><linearGradient id="Unbenannter_Verlauf_3" x1="-500.52" y1="556.83" x2="-498.83" y2="555.79" gradientTransform="translate(42786.62 43032.88) scale(84.88 -76.95)" gradientUnits="userSpaceOnUse"><stop offset="0" stop-color="#6179f8"></stop><stop offset="1" stop-color="#f5d361"></stop></linearGradient><clipPath id="clippath-1"><polygon points="349.96 241.58 416.36 202.85 416.36 215.37 349.96 254.1 349.96 241.58" fill="none"></polygon></clipPath><linearGradient id="Unbenannter_Verlauf_4" x1="-498.23" y1="556.94" x2="-496.54" y2="555.9" gradientTransform="translate(33402.34 28740.69) scale(66.4 -51.25)" gradientUnits="userSpaceOnUse"><stop offset="0" stop-color="#6179f8"></stop><stop offset="1" stop-color="#f5d361"></stop></linearGradient><clipPath id="clippath-2"><polygon points="415.61 203.29 415.61 215.12 349.96 253.41 349.96 254.1 416.36 215.37 416.36 202.85 415.61 203.29" fill="none"></polygon></clipPath><linearGradient id="Unbenannter_Verlauf_5" x1="-498.23" y1="556.94" x2="-496.54" y2="555.9" gradientTransform="translate(33402.34 28740.69) scale(66.4 -51.25)" gradientUnits="userSpaceOnUse"><stop offset="0" stop-color="#6179f8"></stop><stop offset="1" stop-color="#f5d361"></stop></linearGradient><clipPath id="clippath-3"><polygon points="347.74 240.29 347.74 258.02 276.6 216.55 276.6 198.85 347.74 240.29" fill="none"></polygon></clipPath><linearGradient id="Unbenannter_Verlauf_6" x1="-500.13" y1="556.97" x2="-498.45" y2="555.93" gradientTransform="translate(41426.79 41010.21) scale(82.36 -73.3)" gradientUnits="userSpaceOnUse"><stop offset="0" stop-color="#6179f8"></stop><stop offset="1" stop-color="#f5d361"></stop></linearGradient><clipPath id="clippath-4"><polygon points="279.73 214.88 279.73 203.29 278.86 202.78 278.86 215.25 345.49 254.1 345.49 253.21 279.73 214.88" fill="none"></polygon></clipPath><linearGradient id="Unbenannter_Verlauf_8" x1="-498.25" y1="556.95" x2="-496.56" y2="555.91" gradientTransform="translate(33450.21 28784.92) scale(66.63 -51.33)" gradientUnits="userSpaceOnUse"><stop offset="0" stop-color="#6179f8"></stop><stop offset="1" stop-color="#f5d361"></stop></linearGradient><clipPath id="clippath-5"><polygon points="276.6 198.86 347.74 240.29 418.61 198.93 347.39 157.46 276.6 198.86" fill="none"></polygon></clipPath><linearGradient id="Unbenannter_Verlauf_9" x1="-504.5" y1="558.12" x2="-502.81" y2="557.08" gradientTransform="translate(70508.84 91767.68) scale(139.33 -164.24)" gradientUnits="userSpaceOnUse"><stop offset="0" stop-color="#6179f8"></stop><stop offset="1" stop-color="#f5d361"></stop></linearGradient><clipPath id="clippath-6"><polygon points="347.7 225.64 347.7 237.23 413.58 198.81 413.58 187.21 347.7 225.64" fill="none"></polygon></clipPath><linearGradient id="Unbenannter_Verlauf_40" x1="-500.13" y1="556.2" x2="-498.44" y2="555.16" gradientTransform="translate(39049.47 37338) scale(77.46 -66.82)" gradientUnits="userSpaceOnUse"><stop offset="0" stop-color="#6179f8"></stop><stop offset="1" stop-color="#f5d361"></stop></linearGradient><clipPath id="clippath-7"><polygon points="347.74 225.64 347.74 237.23 281.63 198.7 281.63 187.14 347.74 225.64" fill="none"></polygon></clipPath><linearGradient id="Unbenannter_Verlauf_42" x1="-499.73" y1="556.33" x2="-498.04" y2="555.29" gradientTransform="translate(37953.55 35412.29) scale(75.46 -63.34)" gradientUnits="userSpaceOnUse"><stop offset="0" stop-color="#6179f8"></stop><stop offset="1" stop-color="#f5d361"></stop></linearGradient><clipPath id="clippath-8"><polygon points="347.71 215.49 347.71 233.23 418.61 191.87 418.61 174.13 347.71 215.49" fill="none"></polygon></clipPath><linearGradient id="Unbenannter_Verlauf_44" x1="-500.52" y1="556.83" x2="-498.83" y2="555.79" gradientTransform="translate(42786.62 43008.08) scale(84.88 -76.95)" gradientUnits="userSpaceOnUse"><stop offset="0" stop-color="#6179f8"></stop><stop offset="1" stop-color="#f5d361"></stop></linearGradient><clipPath id="clippath-9"><polygon points="349.96 216.78 416.36 178.05 416.36 190.58 349.96 229.31 349.96 216.78" fill="none"></polygon></clipPath><linearGradient id="Unbenannter_Verlauf_45" x1="-498.23" y1="556.94" x2="-496.54" y2="555.9" gradientTransform="translate(33402.34 28715.89) scale(66.4 -51.25)" gradientUnits="userSpaceOnUse"><stop offset="0" stop-color="#6179f8"></stop><stop offset="1" stop-color="#f5d361"></stop></linearGradient><clipPath id="clippath-10"><polygon points="415.61 178.5 415.61 190.33 349.96 228.61 349.96 229.3 416.36 190.58 416.36 178.06 415.61 178.5" fill="none"></polygon></clipPath><linearGradient id="Unbenannter_Verlauf_46" x1="-498.23" y1="556.94" x2="-496.54" y2="555.9" gradientTransform="translate(33402.34 28715.89) scale(66.4 -51.25)" gradientUnits="userSpaceOnUse"><stop offset="0" stop-color="#6179f8"></stop><stop offset="1" stop-color="#f5d361"></stop></linearGradient><clipPath id="clippath-11"><polygon points="347.74 215.49 347.74 233.23 276.6 191.75 276.6 174.06 347.74 215.49" fill="none"></polygon></clipPath><linearGradient id="Unbenannter_Verlauf_47" x1="-500.14" y1="556.97" x2="-498.45" y2="555.93" gradientTransform="translate(41438.01 40996.37) scale(82.38 -73.32)" gradientUnits="userSpaceOnUse"><stop offset="0" stop-color="#6179f8"></stop><stop offset="1" stop-color="#f5d361"></stop></linearGradient><clipPath id="clippath-12"><polygon points="279.73 190.08 279.73 178.49 278.86 177.98 278.86 190.46 345.49 229.3 345.49 228.42 279.73 190.08" fill="none"></polygon></clipPath><linearGradient id="Unbenannter_Verlauf_49" x1="-498.25" y1="556.95" x2="-496.56" y2="555.91" gradientTransform="translate(33450.21 28758.45) scale(66.63 -51.32)" gradientUnits="userSpaceOnUse"><stop offset="0" stop-color="#6179f8"></stop><stop offset="1" stop-color="#f5d361"></stop></linearGradient><clipPath id="clippath-13"><polygon points="276.6 174.06 347.74 215.49 418.61 174.13 347.39 132.66 276.6 174.06" fill="none"></polygon></clipPath><linearGradient id="Unbenannter_Verlauf_50" x1="-504.5" y1="558.12" x2="-502.81" y2="557.08" gradientTransform="translate(70508.84 91742.33) scale(139.33 -164.23)" gradientUnits="userSpaceOnUse"><stop offset="0" stop-color="#6179f8"></stop><stop offset="1" stop-color="#f5d361"></stop></linearGradient><clipPath id="clippath-14"><polygon points="347.7 200.84 347.7 212.44 413.58 174.01 413.58 162.41 347.7 200.84" fill="none"></polygon></clipPath><linearGradient id="Unbenannter_Verlauf_81" x1="-500.13" y1="556.2" x2="-498.44" y2="555.16" gradientTransform="translate(39049.46 37314.33) scale(77.46 -66.82)" gradientUnits="userSpaceOnUse"><stop offset="0" stop-color="#6179f8"></stop><stop offset="1" stop-color="#f5d361"></stop></linearGradient><clipPath id="clippath-15"><polygon points="347.74 200.84 347.74 212.44 281.64 173.91 281.64 162.35 347.74 200.84" fill="none"></polygon></clipPath><linearGradient id="Unbenannter_Verlauf_83" x1="-499.73" y1="556.33" x2="-498.04" y2="555.29" gradientTransform="translate(37964.34 35398.06) scale(75.48 -63.36)" gradientUnits="userSpaceOnUse"><stop offset="0" stop-color="#6179f8"></stop><stop offset="1" stop-color="#f5d361"></stop></linearGradient><clipPath id="clippath-16"><polygon points="347.71 190.69 347.71 208.43 418.61 167.08 418.61 149.34 347.71 190.69" fill="none"></polygon></clipPath><linearGradient id="Unbenannter_Verlauf_85" x1="-500.52" y1="556.83" x2="-498.83" y2="555.79" gradientTransform="translate(42786.62 42983.29) scale(84.88 -76.95)" gradientUnits="userSpaceOnUse"><stop offset="0" stop-color="#6179f8"></stop><stop offset="1" stop-color="#f5d361"></stop></linearGradient><clipPath id="clippath-17"><polygon points="349.96 191.99 416.36 153.26 416.36 165.78 349.96 204.51 349.96 191.99" fill="none"></polygon></clipPath><linearGradient id="Unbenannter_Verlauf_86" x1="-498.23" y1="556.94" x2="-496.54" y2="555.9" gradientTransform="translate(33402.34 28691.09) scale(66.4 -51.25)" gradientUnits="userSpaceOnUse"><stop offset="0" stop-color="#6179f8"></stop><stop offset="1" stop-color="#f5d361"></stop></linearGradient><clipPath id="clippath-18"><polygon points="415.61 153.7 415.61 165.53 349.96 203.82 349.96 204.51 416.36 165.78 416.36 153.26 415.61 153.7" fill="none"></polygon></clipPath><linearGradient id="Unbenannter_Verlauf_87" x1="-498.23" y1="556.94" x2="-496.54" y2="555.9" gradientTransform="translate(33402.34 28691.09) scale(66.4 -51.25)" gradientUnits="userSpaceOnUse"><stop offset="0" stop-color="#6179f8"></stop><stop offset="1" stop-color="#f5d361"></stop></linearGradient><clipPath id="clippath-19"><polygon points="347.74 190.69 347.74 208.43 276.6 166.96 276.6 149.26 347.74 190.69" fill="none"></polygon></clipPath><linearGradient id="Unbenannter_Verlauf_88" x1="-500.14" y1="556.97" x2="-498.45" y2="555.93" gradientTransform="translate(41438.01 40971.57) scale(82.38 -73.32)" gradientUnits="userSpaceOnUse"><stop offset="0" stop-color="#6179f8"></stop><stop offset="1" stop-color="#f5d361"></stop></linearGradient><clipPath id="clippath-20"><polygon points="279.73 165.29 279.73 153.7 278.86 153.18 278.86 165.66 345.49 204.51 345.49 203.62 279.73 165.29" fill="none"></polygon></clipPath><linearGradient id="Unbenannter_Verlauf_90" x1="-498.25" y1="556.95" x2="-496.56" y2="555.91" gradientTransform="translate(33450.21 28733.65) scale(66.63 -51.32)" gradientUnits="userSpaceOnUse"><stop offset="0" stop-color="#6179f8"></stop><stop offset="1" stop-color="#f5d361"></stop></linearGradient><clipPath id="clippath-21"><polygon points="276.6 149.26 347.74 190.69 418.61 149.34 347.39 107.86 276.6 149.26" fill="none"></polygon></clipPath><linearGradient id="Unbenannter_Verlauf_91" x1="-504.5" y1="558.12" x2="-502.81" y2="557.08" gradientTransform="translate(70550.69 91773.13) scale(139.41 -164.33)" gradientUnits="userSpaceOnUse"><stop offset="0" stop-color="#6179f8"></stop><stop offset="1" stop-color="#f5d361"></stop></linearGradient><clipPath id="clippath-22"><polygon points="347.7 176.05 347.7 187.64 413.58 149.22 413.58 137.62 347.7 176.05" fill="none"></polygon></clipPath><linearGradient id="Unbenannter_Verlauf_122" x1="-500.13" y1="556.2" x2="-498.44" y2="555.16" gradientTransform="translate(39049.47 37288.41) scale(77.46 -66.82)" gradientUnits="userSpaceOnUse"><stop offset="0" stop-color="#6179f8"></stop><stop offset="1" stop-color="#f5d361"></stop></linearGradient><clipPath id="clippath-23"><polygon points="347.74 176.05 347.74 187.64 281.64 149.11 281.64 137.55 347.74 176.05" fill="none"></polygon></clipPath><linearGradient id="Unbenannter_Verlauf_124" x1="-499.73" y1="556.33" x2="-498.04" y2="555.29" gradientTransform="translate(37953.55 35362.7) scale(75.46 -63.34)" gradientUnits="userSpaceOnUse"><stop offset="0" stop-color="#6179f8"></stop><stop offset="1" stop-color="#f5d361"></stop></linearGradient><clipPath id="clippath-24"><polygon points="347.71 165.9 347.71 183.63 418.61 142.28 418.61 124.54 347.71 165.9" fill="none"></polygon></clipPath><linearGradient id="Unbenannter_Verlauf_126" x1="-500.52" y1="556.83" x2="-498.83" y2="555.79" gradientTransform="translate(42786.62 42958.49) scale(84.88 -76.95)" gradientUnits="userSpaceOnUse"><stop offset="0" stop-color="#6179f8"></stop><stop offset="1" stop-color="#f5d361"></stop></linearGradient><clipPath id="clippath-25"><polygon points="349.96 167.19 416.36 128.47 416.36 140.98 349.96 179.71 349.96 167.19" fill="none"></polygon></clipPath><linearGradient id="Unbenannter_Verlauf_127" x1="-498.23" y1="556.94" x2="-496.54" y2="555.9" gradientTransform="translate(33402.34 28664.62) scale(66.4 -51.24)" gradientUnits="userSpaceOnUse"><stop offset="0" stop-color="#6179f8"></stop><stop offset="1" stop-color="#f5d361"></stop></linearGradient><clipPath id="clippath-26"><polygon points="415.61 128.9 415.61 140.74 349.96 179.02 349.96 179.71 416.36 140.98 416.36 128.47 415.61 128.9" fill="none"></polygon></clipPath><linearGradient id="Unbenannter_Verlauf_128" x1="-498.23" y1="556.94" x2="-496.54" y2="555.9" gradientTransform="translate(33402.34 28664.62) scale(66.4 -51.24)" gradientUnits="userSpaceOnUse"><stop offset="0" stop-color="#6179f8"></stop><stop offset="1" stop-color="#f5d361"></stop></linearGradient><clipPath id="clippath-27"><polygon points="347.74 165.9 347.74 183.64 276.6 142.16 276.6 124.47 347.74 165.9" fill="none"></polygon></clipPath><linearGradient id="Unbenannter_Verlauf_129" x1="-500.14" y1="556.97" x2="-498.45" y2="555.93" gradientTransform="translate(41438.01 40946.78) scale(82.38 -73.32)" gradientUnits="userSpaceOnUse"><stop offset="0" stop-color="#6179f8"></stop><stop offset="1" stop-color="#f5d361"></stop></linearGradient><clipPath id="clippath-28"><polygon points="279.73 140.49 279.73 128.9 278.86 128.39 278.86 140.87 345.49 179.71 345.49 178.83 279.73 140.49" fill="none"></polygon></clipPath><linearGradient id="Unbenannter_Verlauf_131" x1="-498.25" y1="556.95" x2="-496.56" y2="555.91" gradientTransform="translate(33450.21 28710.53) scale(66.63 -51.33)" gradientUnits="userSpaceOnUse"><stop offset="0" stop-color="#6179f8"></stop><stop offset="1" stop-color="#f5d361"></stop></linearGradient><clipPath id="clippath-29"><polygon points="276.6 124.47 347.74 165.9 418.61 124.54 347.39 83.07 276.6 124.47" fill="none"></polygon></clipPath><linearGradient id="Unbenannter_Verlauf_132" x1="-504.5" y1="558.12" x2="-502.81" y2="557.08" gradientTransform="translate(70508.84 91693.29) scale(139.33 -164.24)" gradientUnits="userSpaceOnUse"><stop offset="0" stop-color="#6179f8"></stop><stop offset="1" stop-color="#f5d361"></stop></linearGradient><clipPath id="clippath-30"><polygon points="347.7 151.25 347.7 162.85 413.58 124.42 413.58 112.82 347.7 151.25" fill="none"></polygon></clipPath><linearGradient id="Unbenannter_Verlauf_163" x1="-500.13" y1="556.2" x2="-498.44" y2="555.16" gradientTransform="translate(39049.46 37264.74) scale(77.46 -66.82)" gradientUnits="userSpaceOnUse"><stop offset="0" stop-color="#6179f8"></stop><stop offset="1" stop-color="#f5d361"></stop></linearGradient><clipPath id="clippath-31"><polygon points="347.74 151.25 347.74 162.85 281.64 124.31 281.64 112.76 347.74 151.25" fill="none"></polygon></clipPath><linearGradient id="Unbenannter_Verlauf_165" x1="-499.73" y1="556.33" x2="-498.04" y2="555.29" gradientTransform="translate(37954.06 35339.02) scale(75.46 -63.34)" gradientUnits="userSpaceOnUse"><stop offset="0" stop-color="#6179f8"></stop><stop offset="1" stop-color="#f5d361"></stop></linearGradient><clipPath id="clippath-32"><polygon points="347.71 141.1 347.71 158.84 418.61 117.48 418.61 99.74 347.71 141.1" fill="none"></polygon></clipPath><linearGradient id="Unbenannter_Verlauf_167" x1="-500.52" y1="556.83" x2="-498.83" y2="555.79" gradientTransform="translate(42786.62 42933.7) scale(84.88 -76.95)" gradientUnits="userSpaceOnUse"><stop offset="0" stop-color="#6179f8"></stop><stop offset="1" stop-color="#f5d361"></stop></linearGradient><clipPath id="clippath-33"><polygon points="349.96 142.4 416.36 103.67 416.36 116.19 349.96 154.92 349.96 142.4" fill="none"></polygon></clipPath><linearGradient id="Unbenannter_Verlauf_168" x1="-498.23" y1="556.94" x2="-496.54" y2="555.9" gradientTransform="translate(33402.34 28641.5) scale(66.4 -51.25)" gradientUnits="userSpaceOnUse"><stop offset="0" stop-color="#6179f8"></stop><stop offset="1" stop-color="#f5d361"></stop></linearGradient><clipPath id="clippath-34"><polygon points="415.61 104.11 415.61 115.94 349.96 154.23 349.96 154.92 416.36 116.19 416.36 103.67 415.61 104.11" fill="none"></polygon></clipPath><linearGradient id="Unbenannter_Verlauf_169" x1="-498.23" y1="556.94" x2="-496.54" y2="555.9" gradientTransform="translate(33402.34 28641.5) scale(66.4 -51.25)" gradientUnits="userSpaceOnUse"><stop offset="0" stop-color="#6179f8"></stop><stop offset="1" stop-color="#f5d361"></stop></linearGradient><clipPath id="clippath-35"><polygon points="347.74 141.1 347.74 158.84 276.6 117.37 276.6 99.67 347.74 141.1" fill="none"></polygon></clipPath><linearGradient id="Unbenannter_Verlauf_170" x1="-500.13" y1="556.97" x2="-498.45" y2="555.93" gradientTransform="translate(41426.79 40911.03) scale(82.36 -73.3)" gradientUnits="userSpaceOnUse"><stop offset="0" stop-color="#6179f8"></stop><stop offset="1" stop-color="#f5d361"></stop></linearGradient><clipPath id="clippath-36"><polygon points="279.73 115.7 279.73 104.1 278.86 103.59 278.86 116.07 345.49 154.92 345.49 154.03 279.73 115.7" fill="none"></polygon></clipPath><linearGradient id="Unbenannter_Verlauf_172" x1="-498.25" y1="556.95" x2="-496.56" y2="555.91" gradientTransform="translate(33450.21 28684.06) scale(66.63 -51.32)" gradientUnits="userSpaceOnUse"><stop offset="0" stop-color="#6179f8"></stop><stop offset="1" stop-color="#f5d361"></stop></linearGradient><clipPath id="clippath-37"><polygon points="276.6 99.67 347.74 141.1 418.61 99.74 347.39 58.27 276.6 99.67" fill="none"></polygon></clipPath><linearGradient id="Unbenannter_Verlauf_173" x1="-504.5" y1="558.12" x2="-502.81" y2="557.08" gradientTransform="translate(70508.84 91668.49) scale(139.33 -164.24)" gradientUnits="userSpaceOnUse"><stop offset="0" stop-color="#6179f8"></stop><stop offset="1" stop-color="#f5d361"></stop></linearGradient><clipPath id="clippath-38"><polygon points="347.7 122.89 347.7 134.49 413.58 96.06 413.58 84.47 347.7 122.89" fill="none"></polygon></clipPath><linearGradient id="Unbenannter_Verlauf_204" x1="-500.13" y1="556.2" x2="-498.44" y2="555.16" gradientTransform="translate(39049.47 37235.25) scale(77.46 -66.82)" gradientUnits="userSpaceOnUse"><stop offset="0" stop-color="#6179f8"></stop><stop offset="1" stop-color="#f5d361"></stop></linearGradient><clipPath id="clippath-39"><polygon points="347.74 122.89 347.74 134.49 281.64 95.95 281.64 84.4 347.74 122.89" fill="none"></polygon></clipPath><linearGradient id="Unbenannter_Verlauf_206" x1="-499.73" y1="556.33" x2="-498.04" y2="555.29" gradientTransform="translate(37953.55 35309.55) scale(75.46 -63.34)" gradientUnits="userSpaceOnUse"><stop offset="0" stop-color="#6179f8"></stop><stop offset="1" stop-color="#f5d361"></stop></linearGradient><clipPath id="clippath-40"><polygon points="347.71 112.74 347.71 130.48 418.61 89.13 418.61 71.39 347.71 112.74" fill="none"></polygon></clipPath><linearGradient id="Unbenannter_Verlauf_208" x1="-500.52" y1="556.83" x2="-498.83" y2="555.79" gradientTransform="translate(42786.62 42905.34) scale(84.88 -76.95)" gradientUnits="userSpaceOnUse"><stop offset="0" stop-color="#6179f8"></stop><stop offset="1" stop-color="#f5d361"></stop></linearGradient><clipPath id="clippath-41"><polygon points="349.96 114.04 416.36 75.31 416.36 87.83 349.96 126.56 349.96 114.04" fill="none"></polygon></clipPath><linearGradient id="Unbenannter_Verlauf_209" x1="-498.23" y1="556.94" x2="-496.54" y2="555.9" gradientTransform="translate(33402.34 28613.15) scale(66.4 -51.25)" gradientUnits="userSpaceOnUse"><stop offset="0" stop-color="#6179f8"></stop><stop offset="1" stop-color="#f5d361"></stop></linearGradient><clipPath id="clippath-42"><polygon points="415.61 75.75 415.61 87.58 349.96 125.87 349.96 126.56 416.36 87.83 416.36 75.31 415.61 75.75" fill="none"></polygon></clipPath><linearGradient id="Unbenannter_Verlauf_210" x1="-498.23" y1="556.94" x2="-496.54" y2="555.9" gradientTransform="translate(33402.34 28613.15) scale(66.4 -51.25)" gradientUnits="userSpaceOnUse"><stop offset="0" stop-color="#6179f8"></stop><stop offset="1" stop-color="#f5d361"></stop></linearGradient><clipPath id="clippath-43"><polygon points="347.74 112.74 347.74 130.48 276.6 89.01 276.6 71.31 347.74 112.74" fill="none"></polygon></clipPath><linearGradient id="Unbenannter_Verlauf_211" x1="-500.13" y1="556.97" x2="-498.45" y2="555.93" gradientTransform="translate(41426.79 40882.67) scale(82.36 -73.3)" gradientUnits="userSpaceOnUse"><stop offset="0" stop-color="#6179f8"></stop><stop offset="1" stop-color="#f5d361"></stop></linearGradient><clipPath id="clippath-44"><polygon points="278.86 87.71 278.86 75.23 345.49 114.03 345.49 126.56 278.86 87.71" fill="none"></polygon></clipPath><linearGradient id="Unbenannter_Verlauf_212" x1="-498.25" y1="556.95" x2="-496.56" y2="555.91" gradientTransform="translate(33450.21 28656.82) scale(66.63 -51.33)" gradientUnits="userSpaceOnUse"><stop offset="0" stop-color="#6179f8"></stop><stop offset="1" stop-color="#f5d361"></stop></linearGradient><clipPath id="clippath-45"><polygon points="279.73 87.34 279.73 75.75 278.86 75.23 278.86 87.71 345.49 126.56 345.49 125.67 279.73 87.34" fill="none"></polygon></clipPath><linearGradient id="Unbenannter_Verlauf_213" x1="-498.25" y1="556.95" x2="-496.56" y2="555.91" gradientTransform="translate(33450.21 28656.82) scale(66.63 -51.33)" gradientUnits="userSpaceOnUse"><stop offset="0" stop-color="#6179f8"></stop><stop offset="1" stop-color="#f5d361"></stop></linearGradient><clipPath id="clippath-46"><polygon points="276.6 71.31 347.74 112.74 418.61 71.39 347.39 29.91 276.6 71.31" fill="none"></polygon></clipPath><linearGradient id="Unbenannter_Verlauf_214" x1="-504.5" y1="558.12" x2="-502.81" y2="557.08" gradientTransform="translate(70551.7 91695.75) scale(139.41 -164.34)" gradientUnits="userSpaceOnUse"><stop offset="0" stop-color="#6179f8"></stop><stop offset="1" stop-color="#f5d361"></stop></linearGradient><clipPath id="clippath-47"><polygon points="395.39 71.86 347.61 44.03 299.79 71.58 347.61 99.43 395.39 71.86" fill="none"></polygon></clipPath><linearGradient id="Unbenannter_Verlauf_245" x1="-504.45" y1="556.72" x2="-502.77" y2="555.68" gradientTransform="translate(47412.54 61466.98) scale(93.47 -110.39)" gradientUnits="userSpaceOnUse"><stop offset="0" stop-color="#6179f8"></stop><stop offset="1" stop-color="#f5d361"></stop></linearGradient><clipPath id="clippath-48"><polygon points="347.64 52.26 347.64 44.05 347.61 44.03 299.79 71.58 306.89 75.71 347.64 52.26" fill="none"></polygon></clipPath><linearGradient id="Unbenannter_Verlauf_246" x1="-498.49" y1="553.69" x2="-496.8" y2="552.65" gradientTransform="translate(27853.33 24928.11) scale(55.33 -44.96)" gradientUnits="userSpaceOnUse"><stop offset="0" stop-color="#6179f8"></stop><stop offset="1" stop-color="#f5d361"></stop></linearGradient><clipPath id="clippath-49"><polygon points="347.61 52.26 388.29 75.95 395.39 71.86 347.61 44.03 347.61 52.26" fill="none"></polygon></clipPath><linearGradient id="Unbenannter_Verlauf_247" x1="-499.21" y1="553.56" x2="-497.52" y2="552.52" gradientTransform="translate(28552.01 26810.7) scale(56.56 -48.38)" gradientUnits="userSpaceOnUse"><stop offset="0" stop-color="#6179f8"></stop><stop offset="1" stop-color="#f5d361"></stop></linearGradient><clipPath id="clippath-50"><polygon points="322.79 75.62 347.42 89.96 372.38 75.6 347.73 61.24 322.79 75.62" fill="none"></polygon></clipPath><linearGradient id="Unbenannter_Verlauf_248" x1="-496.07" y1="553.77" x2="-494.38" y2="552.73" gradientTransform="translate(24902.27 15962.91) scale(49.59 -28.72)" gradientUnits="userSpaceOnUse"><stop offset="0" stop-color="#6179f8"></stop><stop offset="1" stop-color="#f5d361"></stop></linearGradient><clipPath id="clippath-51"><polygon points="240.31 357.74 239.93 357.52 182.2 324.05 210.37 307.78 163.36 280.73 164.11 279.43 213.38 307.78 185.2 324.05 240.31 355.99 323.84 307.02 256.03 267.81 312.51 235.22 313.26 236.52 259.04 267.81 326.83 307.02 240.31 357.74" fill="none"></polygon></clipPath><linearGradient id="Unbenannter_Verlauf_249" x1="-503.16" y1="558.94" x2="-501.47" y2="557.9" gradientTransform="translate(101104.6 102055.36) scale(200.82 -182.24)" gradientUnits="userSpaceOnUse"><stop offset="0" stop-color="#6179f8"></stop><stop offset="1" stop-color="#f5d361"></stop></linearGradient><clipPath id="clippath-52"><polygon points="222.66 213.62 222.66 215.36 318.66 271.31 255.21 308.03 184.77 267.66 184.03 268.96 255.21 309.76 321.65 271.32 222.66 213.62" fill="none"></polygon></clipPath><linearGradient id="Unbenannter_Verlauf_250" x1="-504.07" y1="558.22" x2="-502.38" y2="557.18" gradientTransform="translate(80231.56 93853.01) scale(158.96 -167.83)" gradientUnits="userSpaceOnUse"><stop offset="0" stop-color="#6179f8"></stop><stop offset="1" stop-color="#f5d361"></stop></linearGradient><clipPath id="clippath-53"><rect x=".33" width="269.11" height="319.34" fill="none"></rect></clipPath><clipPath id="clippath-54"><path d="m267.97,125.67c-38.56-21.88-76.27-57.07-107.87-100.66l-.43-.25c-31.6,7.11-69.3-1.24-107.87-23.89l-1.47-.87L.33,28.56l23.39,15.39c7.32,97.61,45.42,177.74,106.73,272.61l1.49.87c11.02-4.33-5.67,5.64,3.8.3.41-.23,56.47-31.33,56.88-31.56,42.53-24.41,68.79-61.85,74.74-134.29l2.08-25.37-1.47-.84Z" fill="none"></path></clipPath><linearGradient id="Unbenannter_Verlauf_251" x1="-503.92" y1="560.04" x2="-502.23" y2="559.01" gradientTransform="translate(198097.67 231689.1) scale(393.58 -413.83)" gradientUnits="userSpaceOnUse"><stop offset="0" stop-color="#6179f8"></stop><stop offset="1" stop-color="#f5d361"></stop></linearGradient><clipPath id="clippath-55"><path d="m267.97,125.67c-38.56-21.88-76.27-57.07-107.87-100.66l-.43-.25c-31.6,7.11-69.3-1.24-107.87-23.89l-1.47-.87-5.54,3.41,1.48.87c38.56,22.65,76.27,31,107.87,23.89l.43.25c31.6,43.6,69.3,78.79,107.87,100.67l1.48.83-2.08,25.36c-5.58,67.92-29.01,105.07-66.96,129.55,41.21-24.43,66.67-61.81,72.51-132.96l2.08-25.37-1.48-.84Z" fill="none"></path></clipPath><linearGradient id="Unbenannter_Verlauf_252" x1="-503.8" y1="559.9" x2="-502.12" y2="558.86" gradientTransform="translate(169143.39 200737.62) scale(336.04 -358.64)" gradientUnits="userSpaceOnUse"><stop offset="0" stop-color="#6179f8"></stop><stop offset="1" stop-color="#f5d361"></stop></linearGradient><clipPath id="clippath-56"><rect x="51.86" y="24.76" width="217.59" height="134.81" fill="none"></rect></clipPath><clipPath id="clippath-57"><path d="m267.97,125.67c-38.56-21.88-76.26-57.07-107.86-100.66l-.43-.25c-.21.05-.42.09-.62.13l-107.18,61.79,158.9,72.89,58.69-33.06-1.49-.83Z" fill="none"></path></clipPath><linearGradient id="Unbenannter_Verlauf_253" x1="-503.81" y1="559.22" x2="-502.13" y2="558.18" gradientTransform="translate(127835.95 135174.7) scale(253.89 -241.8)" gradientUnits="userSpaceOnUse"><stop offset="0" stop-color="#6179f8"></stop><stop offset="1" stop-color="#f5d361"></stop></linearGradient><clipPath id="clippath-58"><path d="m.33,28.56l23.39,15.39c7.32,97.61,45.42,177.74,106.73,272.61l1.5.86c5.32-2.09,4.18-.85,2.64.4-1.65,1.33-3.74,2.67,1.16-.1.41-.23,15.35-7.98,15.76-8.21,42.53-24.41,68.79-61.85,74.74-134.29l2.08-25.36-1.47-.84c-38.57-21.87-76.28-57.06-107.88-100.66l-.43-.25c-31.6,7.11-69.3-1.24-107.87-23.89l-1.47-.87L.33,28.56Z" fill="none"></path></clipPath><linearGradient id="Unbenannter_Verlauf_254" x1="-503.82" y1="559.94" x2="-502.14" y2="558.9" gradientTransform="translate(173550.68 207598.94) scale(344.88 -370.83)" gradientUnits="userSpaceOnUse"><stop offset="0" stop-color="#6179f8"></stop><stop offset="1" stop-color="#f5d361"></stop></linearGradient><clipPath id="clippath-59"><path d="m117.93,48.24l-66.06,38.43,158.9,72.89,17.57-9.7-1.47-.84c-38.57-21.88-76.28-57.07-107.88-100.67l-.43-.25c-.2.05-.42.09-.63.13" fill="none"></path></clipPath><linearGradient id="Unbenannter_Verlauf_255" x1="-503.64" y1="558.82" x2="-501.95" y2="557.78" gradientTransform="translate(104276.91 110451.39) scale(207.15 -197.67)" gradientUnits="userSpaceOnUse"><stop offset="0" stop-color="#6179f8"></stop><stop offset="1" stop-color="#f5d361"></stop></linearGradient><linearGradient id="Unbenannter_Verlauf_264" x1="0" y1="178.7" x2="219.12" y2="178.7" gradientUnits="userSpaceOnUse"><stop offset=".24" stop-color="#6179f8"></stop><stop offset=".34" stop-color="#687df0"></stop><stop offset=".48" stop-color="#7e8ada"></stop><stop offset=".66" stop-color="#a19fb6"></stop><stop offset=".86" stop-color="#d1bd85"></stop><stop offset="1" stop-color="#f5d361"></stop></linearGradient><clipPath id="clippath-60"><path d="m2.08,55.85c7.32,97.61,45.42,177.74,106.74,272.61l1.49.86c61.32-24.07,99.41-60.21,106.73-149.37l2.08-25.36-1.47-.84c-38.57-21.88-76.27-57.07-107.87-100.67l-.43-.25c-31.6,7.11-69.3-1.24-107.87-23.89l-1.47-.86,2.08,27.76Z" fill="url(#Unbenannter_Verlauf_264)"></path></clipPath><linearGradient id="Unbenannter_Verlauf_264-2" x1="-503.65" y1="559.99" x2="-501.97" y2="558.95" gradientTransform="translate(162204.83 203922.44) scale(322.44 -364.21)" xlink:href="#Unbenannter_Verlauf_264"></linearGradient><clipPath id="clippath-61"><path d="m13.99,54.96c7.18,95.74,45.14,173.61,100.25,259.86,51.25-21.84,84.17-53.89,90.9-135.84l1.46-17.84c-36.65-21.89-71.79-54.63-102.21-95.23-5.94.89-11.95,1.34-17.96,1.33-22.87,0-47.76-6.3-72.9-18.35l.45,6.06Z" fill="none"></path></clipPath><linearGradient id="Unbenannter_Verlauf_259" x1="-502.4" y1="560.21" x2="-500.72" y2="559.17" gradientTransform="translate(96928.73 148998.28) scale(193.07 -265.92)" gradientUnits="userSpaceOnUse"><stop offset="0" stop-color="#6179f8"></stop><stop offset="1" stop-color="#f5d361"></stop></linearGradient></defs><g clip-path="url(#clippath)"><rect x="340.72" y="190" width="84.88" height="76.95" transform="translate(-49.44 119.52) rotate(-16.67)" fill="url(#Unbenannter_Verlauf_3)"></rect></g><g clip-path="url(#clippath-1)"><rect x="349.96" y="202.85" width="66.4" height="51.25" fill="url(#Unbenannter_Verlauf_4)"></rect></g><g clip-path="url(#clippath-2)"><rect x="349.96" y="202.85" width="66.4" height="51.25" fill="url(#Unbenannter_Verlauf_5)"></rect></g><g clip-path="url(#clippath-3)"><rect x="270.99" y="191.79" width="82.36" height="73.3" transform="translate(-42.41 73.82) rotate(-12.64)" fill="url(#Unbenannter_Verlauf_6)"></rect></g><g clip-path="url(#clippath-4)"><rect x="278.86" y="202.78" width="66.63" height="51.33" fill="url(#Unbenannter_Verlauf_8)"></rect></g><g clip-path="url(#clippath-5)"><rect x="277.94" y="116.75" width="139.33" height="164.24" transform="translate(10 414.27) rotate(-62.31)" fill="url(#Unbenannter_Verlauf_9)"></rect></g><g clip-path="url(#clippath-6)"><rect x="341.91" y="178.81" width="77.46" height="66.82" transform="translate(-44.88 118.11) rotate(-16.67)" fill="url(#Unbenannter_Verlauf_40)"></rect></g><g clip-path="url(#clippath-7)"><rect x="276.95" y="180.52" width="75.46" height="63.34" transform="translate(-38.79 73.97) rotate(-12.64)" fill="url(#Unbenannter_Verlauf_42)"></rect></g><g clip-path="url(#clippath-8)"><rect x="340.72" y="165.21" width="84.88" height="76.95" transform="translate(-42.32 118.47) rotate(-16.67)" fill="url(#Unbenannter_Verlauf_44)"></rect></g><g clip-path="url(#clippath-9)"><rect x="349.96" y="178.06" width="66.4" height="51.25" fill="url(#Unbenannter_Verlauf_45)"></rect></g><g clip-path="url(#clippath-10)"><rect x="349.96" y="178.06" width="66.4" height="51.25" fill="url(#Unbenannter_Verlauf_46)"></rect></g><g clip-path="url(#clippath-11)"><rect x="271" y="166.98" width="82.38" height="73.32" transform="translate(-37.01 73.29) rotate(-12.65)" fill="url(#Unbenannter_Verlauf_47)"></rect></g><g clip-path="url(#clippath-12)"><rect x="278.86" y="177.98" width="66.63" height="51.32" fill="url(#Unbenannter_Verlauf_49)"></rect></g><g clip-path="url(#clippath-13)"><rect x="277.94" y="91.96" width="139.33" height="164.23" transform="translate(31.95 401) rotate(-62.31)" fill="url(#Unbenannter_Verlauf_50)"></rect></g><g clip-path="url(#clippath-14)"><rect x="341.91" y="154.02" width="77.46" height="66.82" transform="translate(-37.77 117.06) rotate(-16.67)" fill="url(#Unbenannter_Verlauf_81)"></rect></g><g clip-path="url(#clippath-15)"><rect x="276.96" y="155.71" width="75.48" height="63.36" transform="translate(-33.39 73.45) rotate(-12.65)" fill="url(#Unbenannter_Verlauf_83)"></rect></g><g clip-path="url(#clippath-16)"><rect x="340.72" y="140.41" width="84.88" height="76.95" transform="translate(-35.21 117.42) rotate(-16.67)" fill="url(#Unbenannter_Verlauf_85)"></rect></g><g clip-path="url(#clippath-17)"><rect x="349.96" y="153.26" width="66.4" height="51.25" fill="url(#Unbenannter_Verlauf_86)"></rect></g><g clip-path="url(#clippath-18)"><rect x="349.96" y="153.26" width="66.4" height="51.25" fill="url(#Unbenannter_Verlauf_87)"></rect></g><g clip-path="url(#clippath-19)"><rect x="271" y="142.19" width="82.38" height="73.32" transform="translate(-31.58 72.69) rotate(-12.65)" fill="url(#Unbenannter_Verlauf_88)"></rect></g><g clip-path="url(#clippath-20)"><rect x="278.86" y="153.18" width="66.63" height="51.32" fill="url(#Unbenannter_Verlauf_90)"></rect></g><g clip-path="url(#clippath-21)"><rect x="277.97" y="67.1" width="139.41" height="164.33" transform="translate(53.93 387.75) rotate(-62.31)" fill="url(#Unbenannter_Verlauf_91)"></rect></g><g clip-path="url(#clippath-22)"><rect x="341.91" y="129.22" width="77.46" height="66.82" transform="translate(-30.66 116.02) rotate(-16.67)" fill="url(#Unbenannter_Verlauf_122)"></rect></g><g clip-path="url(#clippath-23)"><rect x="276.95" y="130.93" width="75.46" height="63.34" transform="translate(-27.95 72.77) rotate(-12.64)" fill="url(#Unbenannter_Verlauf_124)"></rect></g><g clip-path="url(#clippath-24)"><rect x="340.72" y="115.61" width="84.88" height="76.95" transform="translate(-28.1 116.39) rotate(-16.67)" fill="url(#Unbenannter_Verlauf_126)"></rect></g><g clip-path="url(#clippath-25)"><rect x="349.96" y="128.47" width="66.4" height="51.24" fill="url(#Unbenannter_Verlauf_127)"></rect></g><g clip-path="url(#clippath-26)"><rect x="349.96" y="128.47" width="66.4" height="51.24" fill="url(#Unbenannter_Verlauf_128)"></rect></g><g clip-path="url(#clippath-27)"><rect x="271" y="117.39" width="82.38" height="73.32" transform="translate(-26.15 72.09) rotate(-12.65)" fill="url(#Unbenannter_Verlauf_129)"></rect></g><g clip-path="url(#clippath-28)"><rect x="278.86" y="128.39" width="66.63" height="51.33" fill="url(#Unbenannter_Verlauf_131)"></rect></g><g clip-path="url(#clippath-29)"><rect x="277.94" y="42.36" width="139.33" height="164.24" transform="translate(75.87 374.45) rotate(-62.31)" fill="url(#Unbenannter_Verlauf_132)"></rect></g><g clip-path="url(#clippath-30)"><rect x="341.91" y="104.43" width="77.46" height="66.82" transform="translate(-23.54 114.98) rotate(-16.67)" fill="url(#Unbenannter_Verlauf_163)"></rect></g><g clip-path="url(#clippath-31)"><rect x="276.95" y="106.13" width="75.46" height="63.34" transform="translate(-22.52 72.17) rotate(-12.64)" fill="url(#Unbenannter_Verlauf_165)"></rect></g><g clip-path="url(#clippath-32)"><rect x="340.72" y="90.82" width="84.88" height="76.95" transform="translate(-20.99 115.34) rotate(-16.67)" fill="url(#Unbenannter_Verlauf_167)"></rect></g><g clip-path="url(#clippath-33)"><rect x="349.96" y="103.67" width="66.4" height="51.25" fill="url(#Unbenannter_Verlauf_168)"></rect></g><g clip-path="url(#clippath-34)"><rect x="349.96" y="103.67" width="66.4" height="51.25" fill="url(#Unbenannter_Verlauf_169)"></rect></g><g clip-path="url(#clippath-35)"><rect x="270.99" y="92.61" width="82.36" height="73.3" transform="translate(-20.71 71.41) rotate(-12.64)" fill="url(#Unbenannter_Verlauf_170)"></rect></g><g clip-path="url(#clippath-36)"><rect x="278.86" y="103.59" width="66.63" height="51.32" fill="url(#Unbenannter_Verlauf_172)"></rect></g><g clip-path="url(#clippath-37)"><rect x="277.94" y="17.57" width="139.33" height="164.24" transform="translate(97.82 361.17) rotate(-62.31)" fill="url(#Unbenannter_Verlauf_173)"></rect></g><g clip-path="url(#clippath-38)"><rect x="341.91" y="76.07" width="77.46" height="66.82" transform="translate(-15.41 113.79) rotate(-16.67)" fill="url(#Unbenannter_Verlauf_204)"></rect></g><g clip-path="url(#clippath-39)"><rect x="276.95" y="77.78" width="75.46" height="63.34" transform="translate(-16.32 71.48) rotate(-12.64)" fill="url(#Unbenannter_Verlauf_206)"></rect></g><g clip-path="url(#clippath-40)"><rect x="340.72" y="62.46" width="84.88" height="76.95" transform="translate(-12.85 114.15) rotate(-16.67)" fill="url(#Unbenannter_Verlauf_208)"></rect></g><g clip-path="url(#clippath-41)"><rect x="349.96" y="75.31" width="66.4" height="51.25" fill="url(#Unbenannter_Verlauf_209)"></rect></g><g clip-path="url(#clippath-42)"><rect x="349.96" y="75.31" width="66.4" height="51.25" fill="url(#Unbenannter_Verlauf_210)"></rect></g><g clip-path="url(#clippath-43)"><rect x="270.99" y="64.25" width="82.36" height="73.3" transform="translate(-14.51 70.73) rotate(-12.64)" fill="url(#Unbenannter_Verlauf_211)"></rect></g><g clip-path="url(#clippath-44)"><rect x="278.86" y="75.23" width="66.63" height="51.33" fill="url(#Unbenannter_Verlauf_212)"></rect></g><g clip-path="url(#clippath-45)"><rect x="278.86" y="75.23" width="66.63" height="51.33" fill="url(#Unbenannter_Verlauf_213)"></rect></g><g clip-path="url(#clippath-46)"><rect x="277.97" y="-10.85" width="139.41" height="164.34" transform="translate(122.95 346.03) rotate(-62.31)" fill="url(#Unbenannter_Verlauf_214)"></rect></g><g clip-path="url(#clippath-47)"><rect x="300.85" y="16.53" width="93.47" height="110.39" transform="translate(122.57 346.19) rotate(-62.31)" fill="url(#Unbenannter_Verlauf_245)"></rect></g><g clip-path="url(#clippath-48)"><rect x="296.06" y="37.39" width="55.33" height="44.96" transform="translate(-2.62 103.28) rotate(-18.05)" fill="url(#Unbenannter_Verlauf_246)"></rect></g><g clip-path="url(#clippath-49)"><rect x="343.22" y="35.8" width="56.56" height="48.38" transform="translate(7.08 153.83) rotate(-23.61)" fill="url(#Unbenannter_Verlauf_247)"></rect></g><g clip-path="url(#clippath-50)"><rect x="322.79" y="61.24" width="49.59" height="28.72" fill="url(#Unbenannter_Verlauf_248)"></rect></g><g clip-path="url(#clippath-51)"><rect x="144.69" y="205.36" width="200.82" height="182.24" transform="translate(-105.97 139.24) rotate(-26.29)" fill="url(#Unbenannter_Verlauf_249)"></rect></g><g clip-path="url(#clippath-52)"><rect x="173.35" y="177.78" width="158.96" height="167.83" transform="translate(-107.76 310.52) rotate(-53.7)" fill="url(#Unbenannter_Verlauf_250)"></rect></g><g clip-path="url(#clippath-53)"><g clip-path="url(#clippath-54)"><rect x="-61.9" y="-45.38" width="393.58" height="413.83" transform="translate(-62.19 87.72) rotate(-29.6)" fill="url(#Unbenannter_Verlauf_251)"></rect></g></g><g clip-path="url(#clippath-55)"><rect x="-10.91" y="-36.9" width="336.04" height="358.64" transform="translate(-49.84 96.2) rotate(-29.6)" fill="url(#Unbenannter_Verlauf_252)"></rect></g><g opacity=".3"><g clip-path="url(#clippath-56)"><g clip-path="url(#clippath-57)"><rect x="33.71" y="-28.74" width="253.89" height="241.8" transform="translate(-22.16 121.88) rotate(-39.07)" fill="url(#Unbenannter_Verlauf_253)"></rect></g></g></g><g clip-path="url(#clippath-58)"><rect x="-58.19" y="-13.59" width="344.88" height="370.83" transform="translate(-69.99 78.91) rotate(-29.62)" fill="url(#Unbenannter_Verlauf_254)"></rect></g><g clip-path="url(#clippath-59)"><rect x="36.45" y="5.01" width="207.15" height="197.67" transform="translate(-34.13 111.48) rotate(-39.07)" fill="url(#Unbenannter_Verlauf_255)"></rect></g><path d="m2.08,55.85c7.32,97.61,45.42,177.74,106.74,272.61l1.49.86c61.32-24.07,99.41-60.21,106.73-149.37l2.08-25.36-1.47-.84c-38.57-21.88-76.27-57.07-107.87-100.67l-.43-.25c-31.6,7.11-69.3-1.24-107.87-23.89l-1.47-.86,2.08,27.76Z" fill="url(#Unbenannter_Verlauf_264)"></path><g clip-path="url(#clippath-60)"><rect x="-51.66" y="-3.4" width="322.44" height="364.21" transform="translate(-63.05 59.77) rotate(-23.92)" fill="url(#Unbenannter_Verlauf_264-2)"></rect></g><g clip-path="url(#clippath-61)"><rect x="13.53" y="48.9" width="193.07" height="265.92" fill="url(#Unbenannter_Verlauf_259)"></rect></g></svg>