<svg id="Ebene_2" xmlns="http://www.w3.org/2000/svg" viewBox="0 0 670.16 686.16"><g id="Icons"><path id="Apache-Spark-Icon" d="m638.65,111.56c-11.93-2.14-23.71-1.01-35.34,2.06l-169.3,44.98c-4.99,1.34-7.45.41-10.15-4.13l-69.12-114.85c-5.23-8.66-11.48-17.11-18.64-24.27-21.2-21.2-49.2-20.36-69.26,1.92-5.54,6.15-10.21,13.45-14.1,20.67-10.13,18.96-12.13,40.43-15.88,61.24l-20.63,116.85c-.79,4.59-2.86,6.49-6.98,7.81l-151.46,48.11c-11.04,3.6-22.1,8.26-31.85,14.48-29.78,18.9-34.19,50.02-11.84,77.35,9.88,12.09,22.59,20.57,36.69,26.76l94.33,42.04c.8.43,1.64.72,2.5.88l19.92,14.36s0,0,0,0h-.01s-19.82,219.19,17.32,234.56c-1.32-.26-2.14-.42-2.14-.42,0,0,3.74,4.27,14.17,2.93,11.1,2.08,7.03,1.24.45-.06,13.88-1.96,39.27-13.74,82.78-57.41,6.05-5.41,9.93-9.42,9.93-9.42l95.38-102.97,22.22,7.83c.8,1.15,2.01,1.83,3.91,2.4l106.23,32.31c14.5,4.48,28.88,7.78,44.35,5.51,27.63-4.04,47.96-26.79,47.68-54.6-.1-12.22-4.39-23.27-10-33.91l-70.36-133.39c-2.24-4.23-2.17-6.95,1.06-10.73l118.16-138.89c7.65-9.13,14.56-18.89,18.56-30.24,8.8-25.02-2.58-44.9-28.57-49.77Zm-85.21,90.28l-108.01,126.85c-3.05,3.68-3.34,6.26-1.03,10.59l68.27,129.43,3.12,6.64-.09.1-121.77-33.58-.02-.07-23.03-6.47-136.59,151.4,24.99-199.05-22.42-9.77.04-.03-126.85-50.37c2.42-2.21,4.61-3.11,6.88-3.84l154.19-48.73c3.63-1.14,5.69-2.53,6.04-6.65l2.15-12.62,20.76-116.85,6-33.07c2.73,1.91,4.13,3.89,5.41,6.03l74.38,123.92c2.03,3.36,3.88,4.56,7.94,3.47l130.98-34.81,31.54-8.25c-.48,2.64-1.63,4.23-2.89,5.71Z" fill="#e25a1c"></path></g></svg>