<svg xmlns="http://www.w3.org/2000/svg" xmlns:xlink="http://www.w3.org/1999/xlink" width="180.188" height="220" viewBox="0 0 180.188 220"><defs><linearGradient id="Storing_Data_Icon" x1="0.06" y1="0.375" x2="1.14" y2="0.51" gradientUnits="objectBoundingBox"><stop offset="0" stop-color="#6179f8"></stop><stop offset="1" stop-color="#f5d361"></stop></linearGradient></defs><path d="M90.868,59.052l20.812,8.342,4.944,21.871a5.129,5.129,0,0,0,8.949,2.158L139.912,74.2l22.3,2.079a5.128,5.128,0,0,0,4.813-7.847L155.079,49.452l8.826-20.6a5.131,5.131,0,0,0-5.973-7l-21.7,5.474L119.4,12.531a5.137,5.137,0,0,0-8.522,3.523L109.4,38.424l-.02.008L90.154,49.878a5.135,5.135,0,0,0,.713,9.174m23.783-11.8a10.279,10.279,0,0,0,4.988-8.151l.792-11.972,9.015,7.918a10.243,10.243,0,0,0,9.287,2.249l11.635-2.935L145.624,45.4a10.212,10.212,0,0,0,.737,9.511l6.407,10.177-11.94-1.106a10.222,10.222,0,0,0-8.838,3.654l-7.653,9.206-2.642-11.71-.008-.02a10.292,10.292,0,0,0-6.194-7.255L104.339,53.39ZM29.513,91.3l12.918,1.493a10.6,10.6,0,0,0-1.075-2.489L34.968,79.558l12.4,1.455a10.7,10.7,0,0,0,9.28-3.577l8.232-9.39,2.436,12.247a10.66,10.66,0,0,0,6.249,7.737l11.47,4.939-7.022,3.938,12.093,1.4,9.136-1.056.46-.259a5.34,5.34,0,0,0-.5-9.563L77.81,78.218,73.268,55.333A5.346,5.346,0,0,0,64,52.85L48.624,70.4l-.021-.006L25.472,67.679a5.344,5.344,0,0,0-5.217,8.031Zm126.12,99.411a4.691,4.691,0,0,1-3.539,4.534l-57.3,14.333V140.837a4.68,4.68,0,1,0-9.361,0v68.742l-57.3-14.333a4.691,4.691,0,0,1-3.539-4.534V149.2l-9.361-2.662v44.17a14.139,14.139,0,0,0,10.618,13.661l60.844,15.211a14.138,14.138,0,0,0,6.816,0l60.844-15.211a14.074,14.074,0,0,0,10.648-13.631v-44.17l-9.361,2.662Zm23.606-68.771-9.361-21.851a9.378,9.378,0,0,0-9.682-5.616l-70.087,8.1-70.087-8.1-.029-.029a9.378,9.378,0,0,0-9.682,5.616L.95,121.911a11.7,11.7,0,0,0,8.132,16L55.65,148.706a14.079,14.079,0,0,0,14.6-5.529l19.862-27.818,19.862,27.789a14.047,14.047,0,0,0,14.6,5.529l46.54-10.735a11.7,11.7,0,0,0,8.132-16m-116.6,15.767a4.622,4.622,0,0,1-4.856,1.843L11.217,128.815a2.317,2.317,0,0,1-1.638-3.188l9.361-21.851,62.745,7.254ZM169,128.815,122.432,139.55a4.691,4.691,0,0,1-4.856-1.843L98.534,111.03l62.745-7.254,9.361,21.851A2.343,2.343,0,0,1,169,128.815M34.536,28.885l11.3,6.524,1.044,13.006a4.291,4.291,0,0,0,7.163,2.852l9.682-8.74L76.4,45.565a4.3,4.3,0,0,0,4.924-5.932l-5.315-11.92,6.785-11.138a4.3,4.3,0,0,0-4.119-6.511L65.719,11.427,57.241,1.512a4.3,4.3,0,0,0-7.48,1.907L47.068,16.183,35.036,21.194a4.3,4.3,0,0,0-.5,7.691m16.4-5a7.437,7.437,0,0,0,4.406-5.324l1.021-4.832,3.207,3.747A7.4,7.4,0,0,0,66,20.046l4.918-.517-2.581,4.226a7.4,7.4,0,0,0-.447,6.89l2.019,4.526-4.8-1.147a7.4,7.4,0,0,0-6.706,1.71l-3.651,3.3-.393-4.925L54.348,34V34a7.435,7.435,0,0,0-3.683-5.733l-4.291-2.474Z" transform="translate(0)" fill="url(#Storing_Data_Icon)"></path></svg>