<svg id="Ebene_1" xmlns="http://www.w3.org/2000/svg" xmlns:xlink="http://www.w3.org/1999/xlink" viewBox="0 0 550 495.33"><defs><clipPath id="clippath"><path d="m167.96,250.56L7.03,343.51l-7.03-1.23v4.12h0c.15,1.15.89,2.15,1.96,2.61l250.44,144.79c2.38,1.37,5.97,1.52,8.03.33l166.57-96.21c.82-.37,1.35-1.17,1.39-2.06h0v-4.02l-12.35-2.17-240.05-138.8c-1.39-.76-2.96-1.15-4.54-1.13-1.21-.04-2.41.24-3.49.8" fill="none"></path></clipPath><linearGradient id="Unbenannter_Verlauf_2" x1="-406.44" y1="632.11" x2="-404.76" y2="631.8" gradientTransform="translate(173956.68 155559.74) scale(428.41 -245.57)" gradientUnits="userSpaceOnUse"><stop offset="0" stop-color="#6179f8"></stop><stop offset=".14" stop-color="#6f81e9"></stop><stop offset=".42" stop-color="#9498c3"></stop><stop offset=".79" stop-color="#cfbc87"></stop><stop offset="1" stop-color="#f5d361"></stop></linearGradient><clipPath id="clippath-1"><path d="m192.38,61.57v-.02s-4.1,2.35-4.1,2.35l1.77.8c-.12.35-.2.71-.24,1.08l-20.59,176.69c-.32,2.69,1,5.31,3.34,6.66l248.04,143.25c.58.34,1.22.57,1.88.69l-.6,2.06,4.01-2.3c1.81-.9,3.04-2.66,3.27-4.67l20.58-176.69c.31-2.69-1-5.3-3.34-6.66L198.35,61.57c-.9-.53-1.93-.8-2.97-.81-1.05,0-2.09.28-3,.81" fill="none"></path></clipPath><linearGradient id="Unbenannter_Verlauf_13" x1="-405.97" y1="632.23" x2="-404.3" y2="631.92" gradientTransform="translate(114193.9 211575.54) scale(281.14 -334.37)" gradientUnits="userSpaceOnUse"><stop offset="0" stop-color="#6179f8"></stop><stop offset=".14" stop-color="#6f81e9"></stop><stop offset=".42" stop-color="#9498c3"></stop><stop offset=".79" stop-color="#cfbc87"></stop><stop offset="1" stop-color="#f5d361"></stop></linearGradient><linearGradient id="Unbenannter_Verlauf_161" x1="161.71" y1="226.49" x2="434.67" y2="226.49" gradientUnits="userSpaceOnUse"><stop offset="0" stop-color="#6179f8"></stop><stop offset=".46" stop-color="#6f81e9"></stop><stop offset=".61" stop-color="#9498c3"></stop><stop offset=".79" stop-color="#cfbc87"></stop><stop offset="1" stop-color="#f5d361"></stop></linearGradient><clipPath id="clippath-2"><path d="m181.75,70.06l-20,171.63c-.3,2.61.97,5.16,3.25,6.47l240.94,139.15c2.79,1.61,6.35.65,7.96-2.14.4-.69.65-1.45.74-2.23l19.99-171.63c.3-2.61-.97-5.15-3.25-6.47L190.45,65.69c-.88-.51-1.88-.78-2.9-.78-2.96,0-5.46,2.21-5.8,5.16" fill="url(#Unbenannter_Verlauf_161)"></path></clipPath><linearGradient id="Unbenannter_Verlauf_161-2" x1="-405.97" y1="632.24" x2="-404.34" y2="631.94" gradientTransform="translate(114356.1 211383.64) scale(281.55 -334.07)" xlink:href="#Unbenannter_Verlauf_161"></linearGradient><clipPath id="clippath-3"><path d="m108.03,68.11c-.22.1-.43.22-.63.37l-.05.05c-.19.14-.35.3-.48.49-.09.08-.16.17-.22.27-.1.12-.19.25-.24.39-.19.29-.34.61-.43.95-.09.21-.15.43-.18.66-.03.04-.04.1-.02.15-.06.22-.1.45-.12.68-.02.29-.05.61-.05.93v172.15c.28,5.23,3.04,10,7.43,12.86l210.14,121.07,7.08,4.09h.02s.19.11.19.11c.74.46,1.59.7,2.46.71.32,0,.64-.04.95-.12.22-.05.43-.12.63-.22.13-.07.26-.14.39-.22l.32-.21c1.65-.88,2.68-2.59,2.67-4.46v-1.62s0-.04,0,3.48v-170.35c0-8.27-3.34-14.04-7.43-16.4L113.03,68.74c-.99-.61-2.13-.96-3.3-1-.59,0-1.17.12-1.7.37" fill="none"></path></clipPath><linearGradient id="Unbenannter_Verlauf_51" x1="-405.64" y1="632.23" x2="-403.96" y2="631.92" gradientTransform="translate(94240.63 200152.08) scale(232.29 -316.3)" gradientUnits="userSpaceOnUse"><stop offset="0" stop-color="#6179f8"></stop><stop offset=".14" stop-color="#6f81e9"></stop><stop offset=".42" stop-color="#9498c3"></stop><stop offset=".79" stop-color="#cfbc87"></stop><stop offset="1" stop-color="#f5d361"></stop></linearGradient><clipPath id="clippath-4"><path d="m326.96,203.65c0,2.4,1.26,5.07,2.82,5.97s2.82-.31,2.82-2.71-1.26-5.07-2.82-5.97c-.3-.19-.64-.29-.99-.3-1.07,0-1.83,1.15-1.83,3.01" fill="none"></path></clipPath><linearGradient id="Unbenannter_Verlauf_56" x1="-335.17" y1="618.99" x2="-333.5" y2="618.68" gradientTransform="translate(2213.81 6318.38) scale(5.64 -9.88)" gradientUnits="userSpaceOnUse"><stop offset="0" stop-color="#6179f8"></stop><stop offset=".14" stop-color="#6f81e9"></stop><stop offset=".42" stop-color="#9498c3"></stop><stop offset=".79" stop-color="#cfbc87"></stop><stop offset="1" stop-color="#f5d361"></stop></linearGradient><clipPath id="clippath-5"><path d="m316.81,197.78c0,2.4,1.26,5.07,2.82,5.97s2.82-.31,2.82-2.71-1.26-5.07-2.82-5.97c-.3-.19-.64-.29-.99-.3-1.07,0-1.83,1.15-1.83,3.01" fill="none"></path></clipPath><linearGradient id="Unbenannter_Verlauf_57" x1="-335.23" y1="618.99" x2="-333.55" y2="618.68" gradientTransform="translate(2205.29 6312.51) scale(5.64 -9.88)" gradientUnits="userSpaceOnUse"><stop offset="0" stop-color="#6179f8"></stop><stop offset=".14" stop-color="#6f81e9"></stop><stop offset=".42" stop-color="#9498c3"></stop><stop offset=".79" stop-color="#cfbc87"></stop><stop offset="1" stop-color="#f5d361"></stop></linearGradient><clipPath id="clippath-6"><path d="m306.66,191.91c0,2.4,1.26,5.07,2.82,5.97s2.82-.32,2.82-2.72-1.26-5.06-2.82-5.97c-.3-.18-.64-.29-.99-.3-1.07,0-1.83,1.15-1.83,3.01" fill="none"></path></clipPath><linearGradient id="Unbenannter_Verlauf_58" x1="-335.17" y1="618.99" x2="-333.5" y2="618.68" gradientTransform="translate(2193.51 6306.64) scale(5.64 -9.88)" gradientUnits="userSpaceOnUse"><stop offset="0" stop-color="#6179f8"></stop><stop offset=".14" stop-color="#6f81e9"></stop><stop offset=".42" stop-color="#9498c3"></stop><stop offset=".79" stop-color="#cfbc87"></stop><stop offset="1" stop-color="#f5d361"></stop></linearGradient><clipPath id="clippath-7"><path d="m146.13,128.23c.09,1.2.74,2.29,1.76,2.93l53.73,30.95c.97.56,1.77.16,1.77-.89-.09-1.2-.75-2.29-1.77-2.93l-53.73-30.95c-.25-.16-.53-.24-.83-.26-.56,0-.94.42-.94,1.15" fill="none"></path></clipPath><linearGradient id="Unbenannter_Verlauf_69" x1="-400.28" y1="628.87" x2="-398.6" y2="628.56" gradientTransform="translate(23042.73 22521.7) scale(57.26 -35.59)" gradientUnits="userSpaceOnUse"><stop offset="0" stop-color="#6179f8"></stop><stop offset=".14" stop-color="#6f81e9"></stop><stop offset=".42" stop-color="#9498c3"></stop><stop offset=".79" stop-color="#cfbc87"></stop><stop offset="1" stop-color="#f5d361"></stop></linearGradient><clipPath id="clippath-8"><path d="m146.07,174.37c.09,1.2.74,2.29,1.76,2.93l82.41,47.46c.98.56,1.77.16,1.77-.89-.09-1.2-.75-2.29-1.77-2.93l-82.41-47.45c-.25-.16-.53-.24-.83-.26-.56,0-.94.42-.94,1.15" fill="none"></path></clipPath><linearGradient id="Unbenannter_Verlauf_70" x1="-402.65" y1="630.07" x2="-400.98" y2="629.76" gradientTransform="translate(34717.06 33018.61) scale(85.94 -52.1)" gradientUnits="userSpaceOnUse"><stop offset="0" stop-color="#6179f8"></stop><stop offset=".14" stop-color="#6f81e9"></stop><stop offset=".42" stop-color="#9498c3"></stop><stop offset=".79" stop-color="#cfbc87"></stop><stop offset="1" stop-color="#f5d361"></stop></linearGradient><clipPath id="clippath-9"><path d="m206.71,163.13c.09,1.2.74,2.29,1.76,2.93l22.85,13.21c.98.56,1.76.16,1.76-.89-.09-1.2-.74-2.29-1.76-2.93l-22.85-13.21c-.25-.15-.54-.24-.83-.25-.56,0-.93.42-.93,1.15" fill="none"></path></clipPath><linearGradient id="Unbenannter_Verlauf_71" x1="-391.96" y1="625.1" x2="-390.28" y2="624.79" gradientTransform="translate(10536.36 11325.34) scale(26.38 -17.85)" gradientUnits="userSpaceOnUse"><stop offset="0" stop-color="#6179f8"></stop><stop offset=".14" stop-color="#6f81e9"></stop><stop offset=".42" stop-color="#9498c3"></stop><stop offset=".79" stop-color="#cfbc87"></stop><stop offset="1" stop-color="#f5d361"></stop></linearGradient><clipPath id="clippath-10"><path d="m146.13,139.22c.09,1.2.74,2.29,1.76,2.93l19.32,11.06c.97.56,1.76.17,1.76-.89-.09-1.2-.74-2.29-1.76-2.93l-19.31-11.06c-.25-.16-.53-.24-.83-.26-.56,0-.94.42-.94,1.15" fill="none"></path></clipPath><linearGradient id="Unbenannter_Verlauf_72" x1="-389.57" y1="624.06" x2="-387.89" y2="623.75" gradientTransform="translate(9036.24 9943.01) scale(22.84 -15.7)" gradientUnits="userSpaceOnUse"><stop offset="0" stop-color="#6179f8"></stop><stop offset=".14" stop-color="#6f81e9"></stop><stop offset=".42" stop-color="#9498c3"></stop><stop offset=".79" stop-color="#cfbc87"></stop><stop offset="1" stop-color="#f5d361"></stop></linearGradient><clipPath id="clippath-11"><path d="m146.13,150.14c.09,1.2.74,2.29,1.76,2.93l21.2,12.28c.98.56,1.77.16,1.77-.89-.09-1.2-.75-2.29-1.77-2.93l-21.2-12.28c-.25-.16-.53-.24-.83-.25-.56,0-.94.41-.94,1.15" fill="none"></path></clipPath><linearGradient id="Unbenannter_Verlauf_74" x1="-390.93" y1="624.68" x2="-389.25" y2="624.37" gradientTransform="translate(9803.84 10721.76) scale(24.73 -16.92)" gradientUnits="userSpaceOnUse"><stop offset="0" stop-color="#6179f8"></stop><stop offset=".14" stop-color="#6f81e9"></stop><stop offset=".42" stop-color="#9498c3"></stop><stop offset=".79" stop-color="#cfbc87"></stop><stop offset="1" stop-color="#f5d361"></stop></linearGradient><clipPath id="clippath-12"><path d="m172.29,154.23c.09,1.2.75,2.29,1.77,2.93l16.05,9.19c.97.57,1.76.17,1.76-.89-.09-1.2-.74-2.29-1.76-2.93l-16.05-9.19c-.25-.16-.54-.24-.83-.26-.56,0-.94.42-.94,1.15" fill="none"></path></clipPath><linearGradient id="Unbenannter_Verlauf_76" x1="-386.6" y1="622.91" x2="-384.93" y2="622.6" gradientTransform="translate(7735.16 8778.75) scale(19.58 -13.84)" gradientUnits="userSpaceOnUse"><stop offset="0" stop-color="#6179f8"></stop><stop offset=".14" stop-color="#6f81e9"></stop><stop offset=".42" stop-color="#9498c3"></stop><stop offset=".79" stop-color="#cfbc87"></stop><stop offset="1" stop-color="#f5d361"></stop></linearGradient><clipPath id="clippath-13"><path d="m164.52,212.57c.09,1.2.74,2.3,1.76,2.94l65.04,37.15c.98.56,1.76.17,1.76-.89-.09-1.2-.74-2.29-1.76-2.93l-65.04-37.16c-.25-.16-.54-.24-.83-.26-.56,0-.93.42-.93,1.15" fill="none"></path></clipPath><linearGradient id="Unbenannter_Verlauf_78" x1="-401.45" y1="629.43" x2="-399.78" y2="629.12" gradientTransform="translate(27663.07 26537.58) scale(68.56 -41.8)" gradientUnits="userSpaceOnUse"><stop offset="0" stop-color="#6179f8"></stop><stop offset=".14" stop-color="#6f81e9"></stop><stop offset=".42" stop-color="#9498c3"></stop><stop offset=".79" stop-color="#cfbc87"></stop><stop offset="1" stop-color="#f5d361"></stop></linearGradient><clipPath id="clippath-14"><path d="m164.52,201.65c.09,1.2.74,2.29,1.76,2.93l65.04,37.1c.98.56,1.76.16,1.76-.89-.09-1.2-.74-2.29-1.76-2.93l-65.04-37.1c-.25-.16-.54-.24-.83-.26-.56,0-.93.42-.93,1.15" fill="none"></path></clipPath><linearGradient id="Unbenannter_Verlauf_79" x1="-401.45" y1="629.43" x2="-399.78" y2="629.12" gradientTransform="translate(27663.07 26489.32) scale(68.56 -41.74)" gradientUnits="userSpaceOnUse"><stop offset="0" stop-color="#6179f8"></stop><stop offset=".14" stop-color="#6f81e9"></stop><stop offset=".42" stop-color="#9498c3"></stop><stop offset=".79" stop-color="#cfbc87"></stop><stop offset="1" stop-color="#f5d361"></stop></linearGradient><clipPath id="clippath-15"><path d="m173,165.72c.09,1.2.74,2.29,1.76,2.93l18.94,10.78c.98.56,1.77.16,1.77-.89-.09-1.2-.74-2.29-1.77-2.93l-18.94-10.77c-.25-.16-.53-.24-.83-.26-.56,0-.94.42-.94,1.15" fill="none"></path></clipPath><linearGradient id="Unbenannter_Verlauf_80" x1="-389.28" y1="623.91" x2="-387.6" y2="623.6" gradientTransform="translate(8912.51 9789.75) scale(22.47 -15.42)" gradientUnits="userSpaceOnUse"><stop offset="0" stop-color="#6179f8"></stop><stop offset=".14" stop-color="#6f81e9"></stop><stop offset=".42" stop-color="#9498c3"></stop><stop offset=".79" stop-color="#cfbc87"></stop><stop offset="1" stop-color="#f5d361"></stop></linearGradient><clipPath id="clippath-16"><path d="m198.79,180.44c.09,1.2.74,2.29,1.76,2.93l29.73,17.55c.98.56,1.77.16,1.77-.89-.09-1.2-.75-2.29-1.77-2.93l-29.73-17.55c-.25-.16-.53-.24-.83-.26-.56,0-.94.42-.94,1.15" fill="none"></path></clipPath><linearGradient id="Unbenannter_Verlauf_82" x1="-395.15" y1="626.58" x2="-393.47" y2="626.27" gradientTransform="translate(13328.6 14092.39) scale(33.26 -22.19)" gradientUnits="userSpaceOnUse"><stop offset="0" stop-color="#6179f8"></stop><stop offset=".14" stop-color="#6f81e9"></stop><stop offset=".42" stop-color="#9498c3"></stop><stop offset=".79" stop-color="#cfbc87"></stop><stop offset="1" stop-color="#f5d361"></stop></linearGradient><clipPath id="clippath-17"><path d="m146.07,161.59c.09,1.2.74,2.29,1.76,2.93l45.87,26.62c.98.56,1.77.17,1.77-.89-.09-1.2-.74-2.29-1.77-2.93l-45.87-26.63c-.25-.16-.53-.24-.83-.26-.56,0-.94.42-.94,1.15" fill="none"></path></clipPath><linearGradient id="Unbenannter_Verlauf_84" x1="-399.15" y1="628.34" x2="-397.47" y2="628.03" gradientTransform="translate(19846.5 19817.35) scale(49.4 -31.27)" gradientUnits="userSpaceOnUse"><stop offset="0" stop-color="#6179f8"></stop><stop offset=".14" stop-color="#6f81e9"></stop><stop offset=".42" stop-color="#9498c3"></stop><stop offset=".79" stop-color="#cfbc87"></stop><stop offset="1" stop-color="#f5d361"></stop></linearGradient><clipPath id="clippath-18"><path d="m198.79,192.17c.09,1.2.74,2.29,1.76,2.93l29.73,17.55c.98.56,1.77.17,1.77-.89-.09-1.2-.75-2.29-1.77-2.93l-29.73-17.55c-.25-.16-.53-.24-.83-.26-.56,0-.94.42-.94,1.15" fill="none"></path></clipPath><linearGradient id="Unbenannter_Verlauf_86" x1="-395.15" y1="626.58" x2="-393.47" y2="626.27" gradientTransform="translate(13328.6 14101.58) scale(33.26 -22.19)" gradientUnits="userSpaceOnUse"><stop offset="0" stop-color="#6179f8"></stop><stop offset=".14" stop-color="#6f81e9"></stop><stop offset=".42" stop-color="#9498c3"></stop><stop offset=".79" stop-color="#cfbc87"></stop><stop offset="1" stop-color="#f5d361"></stop></linearGradient><clipPath id="clippath-19"><path d="m146.13,248.16c.09,1.2.75,2.29,1.77,2.94l21.2,12.27c.98.56,1.77.16,1.77-.89-.09-1.2-.74-2.29-1.77-2.93l-21.2-12.27c-.25-.16-.53-.24-.83-.26-.56,0-.94.42-.94,1.15" fill="none"></path></clipPath><linearGradient id="Unbenannter_Verlauf_88" x1="-390.93" y1="624.68" x2="-389.25" y2="624.37" gradientTransform="translate(9803.84 10819.78) scale(24.73 -16.92)" gradientUnits="userSpaceOnUse"><stop offset="0" stop-color="#6179f8"></stop><stop offset=".14" stop-color="#6f81e9"></stop><stop offset=".42" stop-color="#9498c3"></stop><stop offset=".79" stop-color="#cfbc87"></stop><stop offset="1" stop-color="#f5d361"></stop></linearGradient><clipPath id="clippath-20"><path d="m173,263.74c.09,1.2.74,2.29,1.76,2.93l18.94,10.77c.98.56,1.77.17,1.77-.89-.09-1.2-.74-2.29-1.77-2.93l-18.94-10.77c-.25-.16-.53-.24-.83-.25-.56,0-.94.41-.94,1.15" fill="none"></path></clipPath><linearGradient id="Unbenannter_Verlauf_90" x1="-389.28" y1="623.9" x2="-387.6" y2="623.59" gradientTransform="translate(8912.51 9882.71) scale(22.47 -15.41)" gradientUnits="userSpaceOnUse"><stop offset="0" stop-color="#6179f8"></stop><stop offset=".14" stop-color="#6f81e9"></stop><stop offset=".42" stop-color="#9498c3"></stop><stop offset=".79" stop-color="#cfbc87"></stop><stop offset="1" stop-color="#f5d361"></stop></linearGradient><clipPath id="clippath-21"><path d="m198.79,278.46c.09,1.2.74,2.29,1.76,2.93l29.73,17.55c.98.56,1.77.16,1.77-.89-.09-1.2-.75-2.29-1.77-2.93l-29.73-17.55c-.25-.16-.53-.24-.83-.26-.56,0-.94.42-.94,1.15" fill="none"></path></clipPath><linearGradient id="Unbenannter_Verlauf_92" x1="-395.15" y1="626.58" x2="-393.47" y2="626.27" gradientTransform="translate(13328.6 14187.88) scale(33.26 -22.19)" gradientUnits="userSpaceOnUse"><stop offset="0" stop-color="#6179f8"></stop><stop offset=".14" stop-color="#6f81e9"></stop><stop offset=".42" stop-color="#9498c3"></stop><stop offset=".79" stop-color="#cfbc87"></stop><stop offset="1" stop-color="#f5d361"></stop></linearGradient><clipPath id="clippath-22"><path d="m146.07,259.61c.09,1.2.74,2.29,1.76,2.93l45.87,26.62c.98.57,1.77.17,1.77-.89-.08-1.21-.74-2.3-1.77-2.94l-45.87-26.62c-.25-.16-.53-.24-.83-.25-.56,0-.94.41-.94,1.15" fill="none"></path></clipPath><linearGradient id="Unbenannter_Verlauf_94" x1="-399.15" y1="628.34" x2="-397.47" y2="628.03" gradientTransform="translate(19846.5 19915.37) scale(49.4 -31.27)" gradientUnits="userSpaceOnUse"><stop offset="0" stop-color="#6179f8"></stop><stop offset=".14" stop-color="#6f81e9"></stop><stop offset=".42" stop-color="#9498c3"></stop><stop offset=".79" stop-color="#cfbc87"></stop><stop offset="1" stop-color="#f5d361"></stop></linearGradient><clipPath id="clippath-23"><path d="m198.79,290.19c.09,1.2.74,2.29,1.76,2.93l29.73,17.55c.98.56,1.77.16,1.77-.89-.09-1.2-.75-2.29-1.77-2.93l-29.73-17.55c-.25-.16-.53-.24-.83-.26-.56,0-.94.42-.94,1.15" fill="none"></path></clipPath><linearGradient id="Unbenannter_Verlauf_96" x1="-395.15" y1="626.58" x2="-393.47" y2="626.27" gradientTransform="translate(13328.6 14202.13) scale(33.26 -22.19)" gradientUnits="userSpaceOnUse"><stop offset="0" stop-color="#6179f8"></stop><stop offset=".14" stop-color="#6f81e9"></stop><stop offset=".42" stop-color="#9498c3"></stop><stop offset=".79" stop-color="#cfbc87"></stop><stop offset="1" stop-color="#f5d361"></stop></linearGradient><clipPath id="clippath-24"><path d="m164.52,223.63c.09,1.2.74,2.29,1.76,2.93l65.04,37.43c.98.56,1.76.16,1.76-.89-.09-1.2-.74-2.29-1.76-2.93l-65.04-37.43c-.25-.16-.54-.24-.83-.26-.56,0-.93.42-.93,1.15" fill="none"></path></clipPath><linearGradient id="Unbenannter_Verlauf_98" x1="-401.45" y1="629.45" x2="-399.78" y2="629.14" gradientTransform="translate(27663.07 26717.65) scale(68.56 -42.07)" gradientUnits="userSpaceOnUse"><stop offset="0" stop-color="#6179f8"></stop><stop offset=".14" stop-color="#6f81e9"></stop><stop offset=".42" stop-color="#9498c3"></stop><stop offset=".79" stop-color="#cfbc87"></stop><stop offset="1" stop-color="#f5d361"></stop></linearGradient><clipPath id="clippath-25"><path d="m164.52,234.57c.09,1.2.74,2.29,1.76,2.93l65.04,37.43c.98.56,1.76.17,1.76-.89-.09-1.2-.74-2.29-1.76-2.93l-65.04-37.43c-.25-.16-.54-.24-.83-.26-.56,0-.93.42-.93,1.15" fill="none"></path></clipPath><linearGradient id="Unbenannter_Verlauf_99" x1="-401.45" y1="629.45" x2="-399.78" y2="629.14" gradientTransform="translate(27663.07 26726.69) scale(68.56 -42.07)" gradientUnits="userSpaceOnUse"><stop offset="0" stop-color="#6179f8"></stop><stop offset=".14" stop-color="#6f81e9"></stop><stop offset=".42" stop-color="#9498c3"></stop><stop offset=".79" stop-color="#cfbc87"></stop><stop offset="1" stop-color="#f5d361"></stop></linearGradient><clipPath id="clippath-26"><path d="m164.52,245.52c.09,1.2.74,2.29,1.76,2.93l65.04,37.43c.98.56,1.76.17,1.76-.89-.09-1.2-.74-2.29-1.76-2.93l-65.04-37.43c-.25-.16-.54-.24-.83-.26-.56,0-.93.41-.93,1.15" fill="none"></path></clipPath><linearGradient id="Unbenannter_Verlauf_100" x1="-401.45" y1="629.45" x2="-399.78" y2="629.14" gradientTransform="translate(27663.07 26737.64) scale(68.56 -42.07)" gradientUnits="userSpaceOnUse"><stop offset="0" stop-color="#6179f8"></stop><stop offset=".14" stop-color="#6f81e9"></stop><stop offset=".42" stop-color="#9498c3"></stop><stop offset=".79" stop-color="#cfbc87"></stop><stop offset="1" stop-color="#f5d361"></stop></linearGradient><clipPath id="clippath-27"><path d="m146.51,189.71c.09,1.2.74,2.29,1.76,2.93l8.17,4.74c.98.56,1.77.17,1.77-.89-.09-1.2-.75-2.29-1.77-2.93l-8.17-4.74c-.25-.16-.54-.24-.83-.26-.56,0-.93.42-.93,1.15" fill="none"></path></clipPath><linearGradient id="Unbenannter_Verlauf_101" x1="-372.61" y1="618.27" x2="-370.93" y2="617.96" gradientTransform="translate(4501.81 5991.7) scale(11.7 -9.38)" gradientUnits="userSpaceOnUse"><stop offset="0" stop-color="#6179f8"></stop><stop offset=".14" stop-color="#6f81e9"></stop><stop offset=".42" stop-color="#9498c3"></stop><stop offset=".79" stop-color="#cfbc87"></stop><stop offset="1" stop-color="#f5d361"></stop></linearGradient><clipPath id="clippath-28"><path d="m146.51,213.24c.09,1.2.74,2.29,1.76,2.93l8.17,4.74c.98.56,1.77.17,1.77-.89-.09-1.2-.75-2.29-1.77-2.93l-8.17-4.74c-.25-.16-.54-.24-.83-.26-.56,0-.93.42-.93,1.15" fill="none"></path></clipPath><linearGradient id="Unbenannter_Verlauf_103" x1="-372.61" y1="618.27" x2="-370.93" y2="617.96" gradientTransform="translate(4501.81 6015.23) scale(11.7 -9.38)" gradientUnits="userSpaceOnUse"><stop offset="0" stop-color="#6179f8"></stop><stop offset=".14" stop-color="#6f81e9"></stop><stop offset=".42" stop-color="#9498c3"></stop><stop offset=".79" stop-color="#cfbc87"></stop><stop offset="1" stop-color="#f5d361"></stop></linearGradient><clipPath id="clippath-29"><path d="m146.51,224.18c.09,1.2.74,2.29,1.76,2.93l8.17,4.74c.98.56,1.77.17,1.77-.89-.09-1.2-.74-2.29-1.77-2.93l-8.17-4.74c-.25-.15-.53-.24-.83-.25-.56,0-.94.42-.94,1.15" fill="none"></path></clipPath><linearGradient id="Unbenannter_Verlauf_105" x1="-372.61" y1="618.27" x2="-370.93" y2="617.96" gradientTransform="translate(4501.81 6026.18) scale(11.7 -9.38)" gradientUnits="userSpaceOnUse"><stop offset="0" stop-color="#6179f8"></stop><stop offset=".14" stop-color="#6f81e9"></stop><stop offset=".42" stop-color="#9498c3"></stop><stop offset=".79" stop-color="#cfbc87"></stop><stop offset="1" stop-color="#f5d361"></stop></linearGradient><clipPath id="clippath-30"><path d="m146.51,235.13c.09,1.2.74,2.29,1.76,2.93l8.17,4.75c.98.56,1.77.16,1.77-.89-.09-1.2-.75-2.29-1.77-2.93l-8.17-4.74c-.25-.16-.54-.24-.83-.26-.56,0-.93.42-.93,1.15" fill="none"></path></clipPath><linearGradient id="Unbenannter_Verlauf_107" x1="-372.61" y1="618.28" x2="-370.93" y2="617.97" gradientTransform="translate(4501.81 6039.65) scale(11.7 -9.39)" gradientUnits="userSpaceOnUse"><stop offset="0" stop-color="#6179f8"></stop><stop offset=".14" stop-color="#6f81e9"></stop><stop offset=".42" stop-color="#9498c3"></stop><stop offset=".79" stop-color="#cfbc87"></stop><stop offset="1" stop-color="#f5d361"></stop></linearGradient><clipPath id="clippath-31"><path d="m248.65,188.52v129.9c.18,3.26,1.9,6.23,4.63,8.01l68.9,39.77c2.56,1.47,4.63.28,4.63-2.67v-129.9c-.18-3.26-1.9-6.23-4.63-8.01l-68.9-39.78c-.62-.39-1.33-.6-2.06-.63-1.52,0-2.56,1.21-2.56,3.3" fill="none"></path></clipPath><linearGradient id="Unbenannter_Verlauf_109" x1="-402.18" y1="631.92" x2="-400.5" y2="631.61" gradientTransform="translate(31649.11 115551.84) scale(78.15 -182.47)" gradientUnits="userSpaceOnUse"><stop offset="0" stop-color="#6179f8"></stop><stop offset=".14" stop-color="#6f81e9"></stop><stop offset=".42" stop-color="#9498c3"></stop><stop offset=".79" stop-color="#cfbc87"></stop><stop offset="1" stop-color="#f5d361"></stop></linearGradient><clipPath id="clippath-32"><path d="m307.1,294.62c.12,1.59.99,3.04,2.34,3.89l6.34,3.65c1.3.75,2.34.21,2.34-1.19-.12-1.59-.99-3.04-2.34-3.89l-6.34-3.65c-.33-.21-.71-.32-1.1-.34-.74,0-1.25.55-1.25,1.52" fill="none"></path></clipPath><linearGradient id="Unbenannter_Verlauf_110" x1="-370.48" y1="618.91" x2="-368.81" y2="618.6" gradientTransform="translate(4388.49 6370.96) scale(11.03 -9.81)" gradientUnits="userSpaceOnUse"><stop offset="0" stop-color="#6179f8"></stop><stop offset=".14" stop-color="#6f81e9"></stop><stop offset=".42" stop-color="#9498c3"></stop><stop offset=".79" stop-color="#cfbc87"></stop><stop offset="1" stop-color="#f5d361"></stop></linearGradient><clipPath id="clippath-33"><path d="m307.1,229.47c.12,1.6.99,3.04,2.34,3.89l6.34,3.65c1.3.75,2.34.22,2.34-1.18-.12-1.59-.99-3.04-2.34-3.89l-6.34-3.65c-.33-.21-.71-.32-1.1-.34-.74,0-1.25.55-1.25,1.52" fill="none"></path></clipPath><linearGradient id="Unbenannter_Verlauf_112" x1="-370.48" y1="618.91" x2="-368.81" y2="618.6" gradientTransform="translate(4388.49 6305.81) scale(11.03 -9.81)" gradientUnits="userSpaceOnUse"><stop offset="0" stop-color="#6179f8"></stop><stop offset=".14" stop-color="#6f81e9"></stop><stop offset=".42" stop-color="#9498c3"></stop><stop offset=".79" stop-color="#cfbc87"></stop><stop offset="1" stop-color="#f5d361"></stop></linearGradient><clipPath id="clippath-34"><path d="m298.19,237.33c.12,1.59.98,3.04,2.34,3.89l6.34,3.65c1.29.75,2.34.22,2.34-1.18-.12-1.6-.99-3.04-2.34-3.89l-6.34-3.65c-.33-.21-.71-.32-1.1-.34-.74,0-1.24.56-1.24,1.52" fill="none"></path></clipPath><linearGradient id="Unbenannter_Verlauf_114" x1="-370.47" y1="618.91" x2="-368.79" y2="618.6" gradientTransform="translate(4377.96 6313.67) scale(11.02 -9.81)" gradientUnits="userSpaceOnUse"><stop offset="0" stop-color="#6179f8"></stop><stop offset=".14" stop-color="#6f81e9"></stop><stop offset=".42" stop-color="#9498c3"></stop><stop offset=".79" stop-color="#cfbc87"></stop><stop offset="1" stop-color="#f5d361"></stop></linearGradient><clipPath id="clippath-35"><path d="m298.19,250.32c.11,1.6.98,3.04,2.34,3.89l6.34,3.65c1.29.75,2.34.22,2.34-1.18-.12-1.59-.99-3.04-2.34-3.89l-6.34-3.65c-.33-.21-.71-.33-1.1-.34-.74,0-1.24.55-1.24,1.52" fill="none"></path></clipPath><linearGradient id="Unbenannter_Verlauf_116" x1="-370.47" y1="618.9" x2="-368.79" y2="618.59" gradientTransform="translate(4377.96 6324.13) scale(11.02 -9.81)" gradientUnits="userSpaceOnUse"><stop offset="0" stop-color="#6179f8"></stop><stop offset=".14" stop-color="#6f81e9"></stop><stop offset=".42" stop-color="#9498c3"></stop><stop offset=".79" stop-color="#cfbc87"></stop><stop offset="1" stop-color="#f5d361"></stop></linearGradient><clipPath id="clippath-36"><path d="m307.1,268.55c.12,1.59.99,3.04,2.34,3.89l6.34,3.65c1.3.75,2.34.22,2.34-1.18-.12-1.59-.99-3.04-2.34-3.89l-6.34-3.65c-.33-.21-.71-.32-1.1-.34-.74,0-1.25.56-1.25,1.52" fill="none"></path></clipPath><linearGradient id="Unbenannter_Verlauf_118" x1="-370.48" y1="618.91" x2="-368.81" y2="618.6" gradientTransform="translate(4388.49 6344.89) scale(11.03 -9.81)" gradientUnits="userSpaceOnUse"><stop offset="0" stop-color="#6179f8"></stop><stop offset=".14" stop-color="#6f81e9"></stop><stop offset=".42" stop-color="#9498c3"></stop><stop offset=".79" stop-color="#cfbc87"></stop><stop offset="1" stop-color="#f5d361"></stop></linearGradient><clipPath id="clippath-37"><path d="m298.19,276.42c.11,1.59.98,3.04,2.34,3.89l6.34,3.65c1.29.75,2.34.22,2.34-1.18-.12-1.6-.99-3.04-2.34-3.89l-6.34-3.65c-.33-.21-.71-.33-1.1-.34-.74,0-1.24.56-1.24,1.52" fill="none"></path></clipPath><linearGradient id="Unbenannter_Verlauf_120" x1="-370.47" y1="618.91" x2="-368.79" y2="618.6" gradientTransform="translate(4377.96 6352.76) scale(11.02 -9.81)" gradientUnits="userSpaceOnUse"><stop offset="0" stop-color="#6179f8"></stop><stop offset=".14" stop-color="#6f81e9"></stop><stop offset=".42" stop-color="#9498c3"></stop><stop offset=".79" stop-color="#cfbc87"></stop><stop offset="1" stop-color="#f5d361"></stop></linearGradient><clipPath id="clippath-38"><path d="m257.34,200.75c.11,1.6.98,3.04,2.34,3.89l38.74,22.36c1.29.75,2.34.22,2.34-1.18-.12-1.59-.98-3.04-2.34-3.89l-38.74-22.37c-.33-.21-.71-.32-1.1-.34-.74,0-1.24.56-1.24,1.52" fill="none"></path></clipPath><linearGradient id="Unbenannter_Verlauf_122" x1="-398.01" y1="627.93" x2="-396.34" y2="627.62" gradientTransform="translate(17519.43 18116.02) scale(43.41 -28.52)" gradientUnits="userSpaceOnUse"><stop offset="0" stop-color="#6179f8"></stop><stop offset=".14" stop-color="#6f81e9"></stop><stop offset=".42" stop-color="#9498c3"></stop><stop offset=".79" stop-color="#cfbc87"></stop><stop offset="1" stop-color="#f5d361"></stop></linearGradient><clipPath id="clippath-39"><path d="m257.34,265.9c.12,1.59.98,3.04,2.34,3.89l38.74,22.36c1.29.75,2.34.22,2.34-1.18-.12-1.59-.98-3.04-2.34-3.89l-38.74-22.36c-.33-.21-.71-.32-1.1-.34-.74,0-1.24.56-1.24,1.52" fill="none"></path></clipPath><linearGradient id="Unbenannter_Verlauf_124" x1="-398.01" y1="627.93" x2="-396.34" y2="627.62" gradientTransform="translate(17519.43 18181.17) scale(43.41 -28.52)" gradientUnits="userSpaceOnUse"><stop offset="0" stop-color="#6179f8"></stop><stop offset=".14" stop-color="#6f81e9"></stop><stop offset=".42" stop-color="#9498c3"></stop><stop offset=".79" stop-color="#cfbc87"></stop><stop offset="1" stop-color="#f5d361"></stop></linearGradient><clipPath id="clippath-40"><path d="m257.34,213.78c.11,1.6.98,3.04,2.34,3.89l29.82,17.18c1.29.75,2.34.22,2.34-1.18-.12-1.59-.99-3.04-2.34-3.89l-29.82-17.18c-.33-.21-.71-.32-1.1-.34-.74,0-1.24.55-1.24,1.52" fill="none"></path></clipPath><linearGradient id="Unbenannter_Verlauf_126" x1="-395.59" y1="626.88" x2="-393.91" y2="626.57" gradientTransform="translate(13892.25 14853.3) scale(34.5 -23.34)" gradientUnits="userSpaceOnUse"><stop offset="0" stop-color="#6179f8"></stop><stop offset=".14" stop-color="#6f81e9"></stop><stop offset=".42" stop-color="#9498c3"></stop><stop offset=".79" stop-color="#cfbc87"></stop><stop offset="1" stop-color="#f5d361"></stop></linearGradient><clipPath id="clippath-41"><path d="m257.34,226.81c.11,1.59.98,3.04,2.34,3.88l29.82,17.18c1.29.75,2.34.22,2.34-1.18-.12-1.6-.98-3.04-2.34-3.89l-29.82-17.18c-.33-.21-.71-.32-1.1-.33-.74,0-1.24.55-1.24,1.52" fill="none"></path></clipPath><linearGradient id="Unbenannter_Verlauf_128" x1="-395.59" y1="626.88" x2="-393.91" y2="626.57" gradientTransform="translate(13892.25 14863.8) scale(34.5 -23.34)" gradientUnits="userSpaceOnUse"><stop offset="0" stop-color="#6179f8"></stop><stop offset=".14" stop-color="#6f81e9"></stop><stop offset=".42" stop-color="#9498c3"></stop><stop offset=".79" stop-color="#cfbc87"></stop><stop offset="1" stop-color="#f5d361"></stop></linearGradient><clipPath id="clippath-42"><path d="m257.34,239.84c.11,1.6.98,3.04,2.34,3.89l38.74,22.37c1.29.74,2.34.21,2.34-1.18-.12-1.6-.98-3.04-2.34-3.89l-38.74-22.36c-.33-.21-.71-.33-1.1-.34-.74,0-1.24.55-1.24,1.52" fill="none"></path></clipPath><linearGradient id="Unbenannter_Verlauf_130" x1="-398.01" y1="627.93" x2="-396.34" y2="627.62" gradientTransform="translate(17519.43 18155.11) scale(43.41 -28.52)" gradientUnits="userSpaceOnUse"><stop offset="0" stop-color="#6179f8"></stop><stop offset=".14" stop-color="#6f81e9"></stop><stop offset=".42" stop-color="#9498c3"></stop><stop offset=".79" stop-color="#cfbc87"></stop><stop offset="1" stop-color="#f5d361"></stop></linearGradient><clipPath id="clippath-43"><path d="m257.34,252.87c.12,1.59.98,3.04,2.34,3.89l29.82,17.19c1.29.75,2.34.22,2.34-1.18-.12-1.59-.99-3.04-2.34-3.89l-29.82-17.19c-.33-.21-.71-.32-1.1-.34-.74,0-1.24.55-1.24,1.52" fill="none"></path></clipPath><linearGradient id="Unbenannter_Verlauf_132" x1="-395.59" y1="626.88" x2="-393.91" y2="626.57" gradientTransform="translate(13892.25 14894.92) scale(34.5 -23.35)" gradientUnits="userSpaceOnUse"><stop offset="0" stop-color="#6179f8"></stop><stop offset=".14" stop-color="#6f81e9"></stop><stop offset=".42" stop-color="#9498c3"></stop><stop offset=".79" stop-color="#cfbc87"></stop><stop offset="1" stop-color="#f5d361"></stop></linearGradient><clipPath id="clippath-44"><path d="m307.1,320.82c.12,1.6.99,3.04,2.34,3.89l6.34,3.65c1.3.74,2.34.21,2.34-1.18-.12-1.6-.99-3.04-2.34-3.89l-6.34-3.65c-.33-.21-.71-.33-1.1-.34-.74,0-1.25.55-1.25,1.52" fill="none"></path></clipPath><linearGradient id="Unbenannter_Verlauf_134" x1="-370.48" y1="618.9" x2="-368.81" y2="618.59" gradientTransform="translate(4388.49 6394.63) scale(11.03 -9.81)" gradientUnits="userSpaceOnUse"><stop offset="0" stop-color="#6179f8"></stop><stop offset=".14" stop-color="#6f81e9"></stop><stop offset=".42" stop-color="#9498c3"></stop><stop offset=".79" stop-color="#cfbc87"></stop><stop offset="1" stop-color="#f5d361"></stop></linearGradient><clipPath id="clippath-45"><path d="m298.19,302.62c.12,1.59.98,3.04,2.34,3.89l6.34,3.65c1.29.75,2.34.22,2.34-1.18-.12-1.59-.99-3.04-2.34-3.89l-6.34-3.65c-.33-.21-.71-.32-1.1-.34-.74,0-1.24.56-1.24,1.52" fill="none"></path></clipPath><linearGradient id="Unbenannter_Verlauf_136" x1="-370.47" y1="618.91" x2="-368.79" y2="618.6" gradientTransform="translate(4377.96 6378.96) scale(11.02 -9.81)" gradientUnits="userSpaceOnUse"><stop offset="0" stop-color="#6179f8"></stop><stop offset=".14" stop-color="#6f81e9"></stop><stop offset=".42" stop-color="#9498c3"></stop><stop offset=".79" stop-color="#cfbc87"></stop><stop offset="1" stop-color="#f5d361"></stop></linearGradient><clipPath id="clippath-46"><path d="m257.34,292.1c.12,1.59.98,3.04,2.34,3.89l38.74,22.36c1.29.75,2.34.22,2.34-1.18-.12-1.6-.98-3.04-2.34-3.89l-38.74-22.36c-.33-.21-.71-.32-1.1-.33-.74,0-1.24.55-1.24,1.52" fill="none"></path></clipPath><linearGradient id="Unbenannter_Verlauf_138" x1="-398.01" y1="627.93" x2="-396.34" y2="627.62" gradientTransform="translate(17519.43 18207.37) scale(43.41 -28.52)" gradientUnits="userSpaceOnUse"><stop offset="0" stop-color="#6179f8"></stop><stop offset=".14" stop-color="#6f81e9"></stop><stop offset=".42" stop-color="#9498c3"></stop><stop offset=".79" stop-color="#cfbc87"></stop><stop offset="1" stop-color="#f5d361"></stop></linearGradient><clipPath id="clippath-47"><path d="m257.34,279.07c.11,1.6.98,3.04,2.34,3.89l29.82,17.19c1.29.74,2.34.22,2.34-1.19-.12-1.59-.98-3.04-2.34-3.89l-29.82-17.19c-.33-.21-.71-.33-1.1-.34-.74,0-1.24.55-1.24,1.52" fill="none"></path></clipPath><linearGradient id="Unbenannter_Verlauf_140" x1="-395.59" y1="626.88" x2="-393.91" y2="626.57" gradientTransform="translate(13892.25 14918.59) scale(34.5 -23.34)" gradientUnits="userSpaceOnUse"><stop offset="0" stop-color="#6179f8"></stop><stop offset=".14" stop-color="#6f81e9"></stop><stop offset=".42" stop-color="#9498c3"></stop><stop offset=".79" stop-color="#cfbc87"></stop><stop offset="1" stop-color="#f5d361"></stop></linearGradient><clipPath id="clippath-48"><path d="m307.1,346.77c.12,1.6.99,3.04,2.34,3.89l6.34,3.65c1.3.75,2.34.22,2.34-1.18-.12-1.6-.99-3.04-2.34-3.89l-6.34-3.66c-.33-.21-.71-.33-1.1-.34-.74,0-1.25.55-1.25,1.52" fill="none"></path></clipPath><linearGradient id="Unbenannter_Verlauf_142" x1="-370.48" y1="618.9" x2="-368.81" y2="618.59" gradientTransform="translate(4388.49 6420.58) scale(11.03 -9.81)" gradientUnits="userSpaceOnUse"><stop offset="0" stop-color="#6179f8"></stop><stop offset=".14" stop-color="#6f81e9"></stop><stop offset=".42" stop-color="#9498c3"></stop><stop offset=".79" stop-color="#cfbc87"></stop><stop offset="1" stop-color="#f5d361"></stop></linearGradient><clipPath id="clippath-49"><path d="m298.19,328.57c.12,1.59.98,3.04,2.34,3.89l6.34,3.65c1.29.75,2.34.22,2.34-1.18-.12-1.59-.99-3.04-2.34-3.89l-6.34-3.66c-.33-.21-.71-.32-1.1-.34-.74,0-1.24.55-1.24,1.52" fill="none"></path></clipPath><linearGradient id="Unbenannter_Verlauf_144" x1="-370.47" y1="618.91" x2="-368.79" y2="618.6" gradientTransform="translate(4377.96 6404.91) scale(11.02 -9.81)" gradientUnits="userSpaceOnUse"><stop offset="0" stop-color="#6179f8"></stop><stop offset=".14" stop-color="#6f81e9"></stop><stop offset=".42" stop-color="#9498c3"></stop><stop offset=".79" stop-color="#cfbc87"></stop><stop offset="1" stop-color="#f5d361"></stop></linearGradient><clipPath id="clippath-50"><path d="m257.34,318.05c.11,1.6.98,3.04,2.34,3.89l38.74,22.36c1.29.74,2.34.22,2.34-1.18-.11-1.6-.98-3.04-2.34-3.89l-38.74-22.37c-.33-.21-.71-.32-1.1-.33-.74,0-1.24.55-1.24,1.52" fill="none"></path></clipPath><linearGradient id="Unbenannter_Verlauf_146" x1="-398.01" y1="627.93" x2="-396.34" y2="627.62" gradientTransform="translate(17519.43 18230.79) scale(43.41 -28.51)" gradientUnits="userSpaceOnUse"><stop offset="0" stop-color="#6179f8"></stop><stop offset=".14" stop-color="#6f81e9"></stop><stop offset=".42" stop-color="#9498c3"></stop><stop offset=".79" stop-color="#cfbc87"></stop><stop offset="1" stop-color="#f5d361"></stop></linearGradient><clipPath id="clippath-51"><path d="m257.34,305.02c.11,1.6.98,3.04,2.34,3.89l29.82,17.19c1.29.74,2.34.22,2.34-1.19-.12-1.59-.98-3.04-2.34-3.89l-29.82-17.19c-.33-.21-.71-.33-1.1-.34-.74,0-1.24.56-1.24,1.52" fill="none"></path></clipPath><linearGradient id="Unbenannter_Verlauf_148" x1="-395.59" y1="626.88" x2="-393.91" y2="626.57" gradientTransform="translate(13892.25 14947.06) scale(34.5 -23.35)" gradientUnits="userSpaceOnUse"><stop offset="0" stop-color="#6179f8"></stop><stop offset=".14" stop-color="#6f81e9"></stop><stop offset=".42" stop-color="#9498c3"></stop><stop offset=".79" stop-color="#cfbc87"></stop><stop offset="1" stop-color="#f5d361"></stop></linearGradient><clipPath id="clippath-52"><path d="m479.71,170.87l8.44,24.37-10.5,19.74,16.04-9.26h0c.32-.15.58-.38.76-.68l11.11-19.25v-14.92l-25.84-14.92v14.92Z" fill="none"></path></clipPath><linearGradient id="Unbenannter_Verlauf_150" x1="-392.8" y1="630.37" x2="-391.12" y2="630.06" gradientTransform="translate(11422.7 37388.63) scale(27.89 -59.03)" gradientUnits="userSpaceOnUse"><stop offset="0" stop-color="#6179f8"></stop><stop offset=".14" stop-color="#6f81e9"></stop><stop offset=".42" stop-color="#9498c3"></stop><stop offset=".79" stop-color="#cfbc87"></stop><stop offset="1" stop-color="#f5d361"></stop></linearGradient><clipPath id="clippath-53"><path d="m398.15,1.85l-6.31,3.64c-4.57,2.98-7.45,7.97-7.75,13.42v106.46c.29,5.45,3.17,10.44,7.75,13.42l71.68,41.49,11.72,33.83c.3.86,1.24,1.32,2.1,1.02.38-.13.7-.39.9-.74l11.09-19.2,31.12,17.98c4.87,2.47,10.63,2.47,15.5,0l6.31-3.65c4.57-2.98,7.45-7.97,7.75-13.42v-106.46c-.3-5.45-3.17-10.44-7.75-13.42L413.65,1.85c-4.87-2.47-10.63-2.47-15.5,0" fill="none"></path></clipPath><linearGradient id="Unbenannter_Verlauf_152" x1="-404.94" y1="632.03" x2="-403.26" y2="631.72" gradientTransform="translate(67499.61 136360.59) scale(165.9 -215.63)" gradientUnits="userSpaceOnUse"><stop offset="0" stop-color="#6179f8"></stop><stop offset=".14" stop-color="#6f81e9"></stop><stop offset=".42" stop-color="#9498c3"></stop><stop offset=".79" stop-color="#cfbc87"></stop><stop offset="1" stop-color="#f5d361"></stop></linearGradient><clipPath id="clippath-54"><path d="m432.12,64.93l-27.04,12.49c-.56.21-1.05.54-1.45.98-.41.68-.59,1.47-.51,2.26v4.37c-.02.97.15,1.94.51,2.84.41.92.9,1.81,1.45,2.66l27.04,43.72c.13.19.28.36.44.51.09.09.19.16.3.23.3.24.73.22,1.01-.04.31-.37.46-.85.41-1.33v-16.86c.04-1.2-.22-2.4-.78-3.47-.52-.92-.98-1.67-1.39-2.26l-11.83-18.28,11.83-4.51c.5-.16.97-.4,1.39-.71.52-.36.78-1.23.78-2.62v-16.86c0-.62-.14-1.24-.41-1.8-.21-.5-.56-.92-1.01-1.21-.09-.06-.2-.1-.3-.13-.06-.01-.12-.02-.18-.02-.09,0-.18.01-.26.03" fill="none"></path></clipPath><linearGradient id="Unbenannter_Verlauf_155" x1="-394.33" y1="630.74" x2="-392.65" y2="630.43" gradientTransform="translate(12680.27 44447.92) scale(31.17 -70.33)" gradientUnits="userSpaceOnUse"><stop offset="0" stop-color="#6179f8"></stop><stop offset=".14" stop-color="#6f81e9"></stop><stop offset=".42" stop-color="#9498c3"></stop><stop offset=".79" stop-color="#cfbc87"></stop><stop offset="1" stop-color="#f5d361"></stop></linearGradient><clipPath id="clippath-55"><path d="m463.08,73.07c-.46.42-.81.95-1.02,1.55l-22.64,71.14c-.09.27-.14.56-.14.85,0,.65.16,1.29.44,1.87.21.52.57.97,1.04,1.28l8.86,5.12c.9.52,1.58.56,2.02.13.45-.42.77-.95.94-1.54l22.85-71.01c.09-.28.14-.57.14-.86,0-.65-.16-1.29-.44-1.87-.21-.52-.58-.97-1.04-1.28l-9.06-5.23c-.37-.24-.8-.39-1.24-.41-.27,0-.52.09-.72.26" fill="none"></path></clipPath><linearGradient id="Unbenannter_Verlauf_156" x1="-396.18" y1="631.03" x2="-394.5" y2="630.72" gradientTransform="translate(14810.04 52239.15) scale(36.31 -82.62)" gradientUnits="userSpaceOnUse"><stop offset="0" stop-color="#6179f8"></stop><stop offset=".14" stop-color="#6f81e9"></stop><stop offset=".42" stop-color="#9498c3"></stop><stop offset=".79" stop-color="#cfbc87"></stop><stop offset="1" stop-color="#f5d361"></stop></linearGradient><clipPath id="clippath-56"><path d="m480.99,93.47c-.31.37-.46.85-.41,1.33v16.86c-.04,1.22.23,2.43.78,3.52.42.79.88,1.56,1.39,2.31l11.83,18.17-11.83,4.62c-.49.16-.95.38-1.39.66-.52.32-.78,1.18-.78,2.57v16.86c0,.62.14,1.24.41,1.8.21.5.56.92,1.02,1.21.09.06.19.1.3.12.15.03.3.03.44,0l27.04-12.49c.55-.21,1.05-.55,1.46-.99.41-.68.58-1.47.5-2.26v-4.37c.03-.97-.14-1.94-.5-2.84-.42-.92-.9-1.81-1.46-2.66l-27.04-43.72c-.13-.18-.28-.36-.44-.52-.09-.08-.19-.16-.3-.22-.16-.1-.34-.16-.53-.17-.18,0-.36.08-.48.21" fill="none"></path></clipPath><linearGradient id="Unbenannter_Verlauf_157" x1="-394.33" y1="630.74" x2="-392.65" y2="630.43" gradientTransform="translate(12757.74 44436.4) scale(31.17 -70.27)" gradientUnits="userSpaceOnUse"><stop offset="0" stop-color="#6179f8"></stop><stop offset=".14" stop-color="#6f81e9"></stop><stop offset=".42" stop-color="#9498c3"></stop><stop offset=".79" stop-color="#cfbc87"></stop><stop offset="1" stop-color="#f5d361"></stop></linearGradient></defs><g clip-path="url(#clippath)"><rect y="249.76" width="428.41" height="245.57" fill="url(#Unbenannter_Verlauf_2)"></rect></g><g clip-path="url(#clippath-1)"><rect x="168.91" y="60.77" width="281.14" height="334.37" fill="url(#Unbenannter_Verlauf_13)"></rect></g><path d="m181.75,70.06l-20,171.63c-.3,2.61.97,5.16,3.25,6.47l240.94,139.15c2.79,1.61,6.35.65,7.96-2.14.4-.69.65-1.45.74-2.23l19.99-171.63c.3-2.61-.97-5.15-3.25-6.47L190.45,65.69c-.88-.51-1.88-.78-2.9-.78-2.96,0-5.46,2.21-5.8,5.16" fill="url(#Unbenannter_Verlauf_161)"></path><g clip-path="url(#clippath-2)"><rect x="161.45" y="64.9" width="273.49" height="324.5" fill="url(#Unbenannter_Verlauf_161-2)"></rect></g><g clip-path="url(#clippath-3)"><rect x="105.6" y="67.74" width="232.29" height="316.3" fill="url(#Unbenannter_Verlauf_51)"></rect></g><g clip-path="url(#clippath-4)"><rect x="326.96" y="200.64" width="5.64" height="9.88" fill="url(#Unbenannter_Verlauf_56)"></rect></g><g clip-path="url(#clippath-5)"><rect x="316.81" y="194.77" width="5.64" height="9.88" fill="url(#Unbenannter_Verlauf_57)"></rect></g><g clip-path="url(#clippath-6)"><rect x="306.66" y="188.9" width="5.64" height="9.88" fill="url(#Unbenannter_Verlauf_58)"></rect></g><g clip-path="url(#clippath-7)"><rect x="146.14" y="127.08" width="57.26" height="35.59" fill="url(#Unbenannter_Verlauf_69)"></rect></g><g clip-path="url(#clippath-8)"><rect x="146.07" y="173.22" width="85.94" height="52.1" fill="url(#Unbenannter_Verlauf_70)"></rect></g><g clip-path="url(#clippath-9)"><rect x="206.71" y="161.98" width="26.38" height="17.85" fill="url(#Unbenannter_Verlauf_71)"></rect></g><g clip-path="url(#clippath-10)"><rect x="146.14" y="138.07" width="22.84" height="15.7" fill="url(#Unbenannter_Verlauf_72)"></rect></g><g clip-path="url(#clippath-11)"><rect x="146.14" y="148.99" width="24.73" height="16.92" fill="url(#Unbenannter_Verlauf_74)"></rect></g><g clip-path="url(#clippath-12)"><rect x="172.29" y="153.08" width="19.58" height="13.84" fill="url(#Unbenannter_Verlauf_76)"></rect></g><g clip-path="url(#clippath-13)"><rect x="164.52" y="211.42" width="68.56" height="41.8" fill="url(#Unbenannter_Verlauf_78)"></rect></g><g clip-path="url(#clippath-14)"><rect x="164.52" y="200.51" width="68.56" height="41.74" fill="url(#Unbenannter_Verlauf_79)"></rect></g><g clip-path="url(#clippath-15)"><rect x="173" y="164.57" width="22.47" height="15.42" fill="url(#Unbenannter_Verlauf_80)"></rect></g><g clip-path="url(#clippath-16)"><rect x="198.79" y="179.29" width="33.26" height="22.19" fill="url(#Unbenannter_Verlauf_82)"></rect></g><g clip-path="url(#clippath-17)"><rect x="146.07" y="160.44" width="49.4" height="31.27" fill="url(#Unbenannter_Verlauf_84)"></rect></g><g clip-path="url(#clippath-18)"><rect x="198.79" y="191.02" width="33.26" height="22.19" fill="url(#Unbenannter_Verlauf_86)"></rect></g><g clip-path="url(#clippath-19)"><rect x="146.14" y="247.01" width="24.73" height="16.92" fill="url(#Unbenannter_Verlauf_88)"></rect></g><g clip-path="url(#clippath-20)"><rect x="173" y="262.6" width="22.47" height="15.41" fill="url(#Unbenannter_Verlauf_90)"></rect></g><g clip-path="url(#clippath-21)"><rect x="198.79" y="277.32" width="33.26" height="22.19" fill="url(#Unbenannter_Verlauf_92)"></rect></g><g clip-path="url(#clippath-22)"><rect x="146.07" y="258.47" width="49.4" height="31.27" fill="url(#Unbenannter_Verlauf_94)"></rect></g><g clip-path="url(#clippath-23)"><rect x="198.79" y="289.04" width="33.26" height="22.19" fill="url(#Unbenannter_Verlauf_96)"></rect></g><g clip-path="url(#clippath-24)"><rect x="164.52" y="222.48" width="68.56" height="42.07" fill="url(#Unbenannter_Verlauf_98)"></rect></g><g clip-path="url(#clippath-25)"><rect x="164.52" y="233.42" width="68.56" height="42.07" fill="url(#Unbenannter_Verlauf_99)"></rect></g><g clip-path="url(#clippath-26)"><rect x="164.52" y="244.37" width="68.56" height="42.07" fill="url(#Unbenannter_Verlauf_100)"></rect></g><g clip-path="url(#clippath-27)"><rect x="146.51" y="188.56" width="11.7" height="9.38" fill="url(#Unbenannter_Verlauf_101)"></rect></g><g clip-path="url(#clippath-28)"><rect x="146.51" y="212.09" width="11.7" height="9.38" fill="url(#Unbenannter_Verlauf_103)"></rect></g><g clip-path="url(#clippath-29)"><rect x="146.51" y="223.03" width="11.7" height="9.38" fill="url(#Unbenannter_Verlauf_105)"></rect></g><g clip-path="url(#clippath-30)"><rect x="146.51" y="233.98" width="11.7" height="9.39" fill="url(#Unbenannter_Verlauf_107)"></rect></g><g clip-path="url(#clippath-31)"><rect x="248.65" y="185.21" width="78.15" height="182.47" fill="url(#Unbenannter_Verlauf_109)"></rect></g><g clip-path="url(#clippath-32)"><rect x="307.1" y="293.1" width="11.03" height="9.81" fill="url(#Unbenannter_Verlauf_110)"></rect></g><g clip-path="url(#clippath-33)"><rect x="307.1" y="227.95" width="11.03" height="9.81" fill="url(#Unbenannter_Verlauf_112)"></rect></g><g clip-path="url(#clippath-34)"><rect x="298.19" y="235.81" width="11.02" height="9.81" fill="url(#Unbenannter_Verlauf_114)"></rect></g><g clip-path="url(#clippath-35)"><rect x="298.19" y="248.8" width="11.02" height="9.81" fill="url(#Unbenannter_Verlauf_116)"></rect></g><g clip-path="url(#clippath-36)"><rect x="307.1" y="267.03" width="11.03" height="9.81" fill="url(#Unbenannter_Verlauf_118)"></rect></g><g clip-path="url(#clippath-37)"><rect x="298.19" y="274.9" width="11.02" height="9.81" fill="url(#Unbenannter_Verlauf_120)"></rect></g><g clip-path="url(#clippath-38)"><rect x="257.34" y="199.23" width="43.41" height="28.52" fill="url(#Unbenannter_Verlauf_122)"></rect></g><g clip-path="url(#clippath-39)"><rect x="257.34" y="264.37" width="43.41" height="28.52" fill="url(#Unbenannter_Verlauf_124)"></rect></g><g clip-path="url(#clippath-40)"><rect x="257.34" y="212.26" width="34.5" height="23.34" fill="url(#Unbenannter_Verlauf_126)"></rect></g><g clip-path="url(#clippath-41)"><rect x="257.34" y="225.29" width="34.5" height="23.34" fill="url(#Unbenannter_Verlauf_128)"></rect></g><g clip-path="url(#clippath-42)"><rect x="257.34" y="238.32" width="43.41" height="28.52" fill="url(#Unbenannter_Verlauf_130)"></rect></g><g clip-path="url(#clippath-43)"><rect x="257.34" y="251.34" width="34.5" height="23.35" fill="url(#Unbenannter_Verlauf_132)"></rect></g><g clip-path="url(#clippath-44)"><rect x="307.1" y="319.3" width="11.03" height="9.81" fill="url(#Unbenannter_Verlauf_134)"></rect></g><g clip-path="url(#clippath-45)"><rect x="298.19" y="301.1" width="11.02" height="9.81" fill="url(#Unbenannter_Verlauf_136)"></rect></g><g clip-path="url(#clippath-46)"><rect x="257.34" y="290.58" width="43.41" height="28.52" fill="url(#Unbenannter_Verlauf_138)"></rect></g><g clip-path="url(#clippath-47)"><rect x="257.34" y="277.55" width="34.5" height="23.34" fill="url(#Unbenannter_Verlauf_140)"></rect></g><g clip-path="url(#clippath-48)"><rect x="307.1" y="345.25" width="11.03" height="9.81" fill="url(#Unbenannter_Verlauf_142)"></rect></g><g clip-path="url(#clippath-49)"><rect x="298.19" y="327.05" width="11.02" height="9.81" fill="url(#Unbenannter_Verlauf_144)"></rect></g><g clip-path="url(#clippath-50)"><rect x="257.34" y="316.53" width="43.41" height="28.51" fill="url(#Unbenannter_Verlauf_146)"></rect></g><g clip-path="url(#clippath-51)"><rect x="257.34" y="303.49" width="34.5" height="23.35" fill="url(#Unbenannter_Verlauf_148)"></rect></g><g clip-path="url(#clippath-52)"><rect x="477.66" y="155.94" width="27.89" height="59.03" fill="url(#Unbenannter_Verlauf_150)"></rect></g><g clip-path="url(#clippath-53)"><rect x="384.09" y="0" width="165.9" height="215.63" fill="url(#Unbenannter_Verlauf_152)"></rect></g><g clip-path="url(#clippath-54)"><rect x="403.11" y="64.9" width="31.17" height="70.33" fill="url(#Unbenannter_Verlauf_155)"></rect></g><g clip-path="url(#clippath-55)"><rect x="439.28" y="72.81" width="36.31" height="82.62" fill="url(#Unbenannter_Verlauf_156)"></rect></g><g clip-path="url(#clippath-56)"><rect x="480.59" y="93.26" width="31.17" height="70.27" fill="url(#Unbenannter_Verlauf_157)"></rect></g></svg>