<svg id="Ebene_2" xmlns="http://www.w3.org/2000/svg" viewBox="0 0 722.01 722.04"><g id="Icons"><path id="velero-Icon" d="m601.4,615.46c-7.05,3.89-15.09,6.64-20.97,11.83-11.45,10.18-23.48,18.91-37.99,23.96l-14.85,1.93h-21.87c-1.89-.62-3.75-1.27-5.64-1.89-6.12-.79-12.24-1.58-18.36-2.34-.24.45-.48.89-.76,1.27.24-.38.52-.79.76-1.27-14.13-10.28-28.26-20.56-42.39-30.84-4.92-1.24-9.83-2.48-14.78-3.71h-5.57c-4.85-.41-9.94-1.96-14.54-1.03-11.17,2.2-22.14,5.54-33.18,8.42-1,1.89-1.62,4.16-3.06,5.6-10.8,10.66-22.73,19.6-37.72,23.52-4.26.76-8.53,1.48-12.79,2.23-7.36.45-14.68.89-22.04,1.34-9.63-3.54-19.56-6.36-28.74-10.76-8.22-3.92-16.26-8.77-23.21-14.61-15.71-13.2-33.59-18.15-53.63-16.71-2.3.17-4.57,1.34-6.84,2.06-1.24,0-2.44-.07-3.68-.07-.65.45-1.31.89-1.96,1.34-11.86,2.82-20.7,10.11-28.4,19.12l-.58.55c-1.99,1.03-3.99,2.1-5.98,3.13-2.44,1.34-4.92,2.72-7.46,4.13,61.85,49.68,140.38,79.39,225.85,79.39,100.81,0,191.95-41.33,257.45-107.96-3.23-.07-6.46-.1-9.7-.17l-7.36,1.62v-.07Zm14.44-104.48c-10.86-1.03-19.56,4.3-28.61,9.39-14.03,7.87-24.96,19.77-40.91,25.61-20.28,7.43-39.68,6.88-58.76.52-11.21-3.75-21.45-11.69-30.74-19.46-16.67-13.99-34.9-20.08-56.42-16.02-4.74.89-9.56,1.31-14.34,1.93-4.37,2.37-8.73,4.74-13.1,7.08-.45.31-.93.41-1.48.34l-5.88,7.56c-1.17-.07-2.34-.17-3.51-.24-.79,1.75-1.55,3.54-2.34,5.29-7.91,4.88-15.82,9.73-23.76,14.61-15.33,1.41-30.67,2.85-46.04,4.26-1.27-.03-2.51-.1-3.78-.14,1.27.03,2.51.1,3.78.14-8.53-3.23-17.05-6.46-25.61-9.66-4.3-3.06-8.63-6.12-12.93-9.18-1.27-1.1-2.54-2.17-3.82-3.27-1.17-.76-2.34-1.55-3.51-2.3h.03c-3.75-2.89-7.5-5.81-11.21-8.73-1.2-.24-2.44-.45-3.64-.69-9.9-8.05-21.49-7.63-33.18-6.7h-11.07c-3.16,1.1-6.29,2.17-9.45,3.27-1.82.55-3.61,1.1-5.43,1.62-6.09,3.92-12.21,7.84-18.29,11.76-1.86,1.65-3.75,3.27-5.6,4.92-3.51,2.1-6.81,4.64-10.52,6.22-10.11,4.37-20.11,10.59-30.67,11.96-21.08,2.68-41.19-.96-58.86-13.13,18.84,33.42,42.8,63.54,70.89,89.29,5.4-1.89,10.42-4.74,14.68-9.25,1.24-1.2,2.51-2.41,3.75-3.64,7.36-4.92,14.68-9.87,22-14.78,2.44-1.24,4.88-2.48,7.29-3.71,1.27-.62,2.54-1.2,3.85-1.82,4.23-.72,8.42-1.44,12.65-2.17,6.29-.55,12.58-1.48,18.88-1.51,5.98,0,11.96.93,17.95,1.44,4.88,1.38,9.76,2.78,14.65,4.16,1.24.62,2.44,1.27,3.68,1.89,1.24.58,2.44,1.2,3.68,1.79,6.12,4.3,12.27,8.56,18.39,12.86h0c.65.52,1.27,1,1.93,1.51.55.17,1.1.28,1.68.31,3.27,2.72,6.53,5.4,9.8,8.08.14.31.34.55.65.69,1.48.62,2.99,1.27,4.47,1.89,4.92,2.44,9.83,4.85,14.75,7.29,3.68,0,7.36.07,11.07.07h5.54c6.05-1.31,12.58-1.55,18.02-4.13,9.66-4.61,18.67-10.62,27.95-16.02.65-1.1,1.34-2.23,1.99-3.33,4.92-3.06,9.8-6.12,14.72-9.18,8.56-2.75,17.16-5.47,25.72-8.25,3.09-1,6.12-2.17,9.15-3.27,11.14,2.27,23.07,2.72,33.18,7.29,13.61,6.12,26.54,14.44,38.37,23.59,9.63,7.46,20.25,11.86,31.49,13.31,23.69,3.06,43.01-6.88,59.1-23.79,5.47-3.03,10.97-6.09,16.43-9.11.14-.55.31-1.1.45-1.68,1.72-.17,3.4-.34,5.12-.52,1.24-.55,2.51-1.07,3.75-1.62,1.24-1.07,2.51-2.13,3.75-3.2,6.77-1.24,13.51-2.44,20.28-3.68h7.36c4.47.96,8.9,1.96,13.37,2.96,14.75-17.74,27.85-36.96,39.02-57.35-9.04-7.08-17.95-14.51-28.16-19.05-9.94-4.4-22.38-3.2-33.76-4.3h.1ZM361,0C161.63,0,0,161.63,0,361c0,11.21.55,22.31,1.55,33.25,13.55,2.41,26.06,7.32,36.72,16.88,1.86,1.68,4.5,2.51,6.77,3.71.52.24,1.07.38,1.65.41,1.24,1.24,2.48,2.44,3.68,3.68,2.41,1.27,4.78,2.51,7.19,3.78,5.67,3.61,11.07,9.63,17.09,10.38,24.75,3.06,48.55.1,68.07-17.84,1.1-1.27,2.2-2.51,3.3-3.78,1.03-1.24,1.79-2.85,3.09-3.61,7.63-4.4,15.4-8.56,23.14-12.82h0c1.82-.14,3.64-.31,5.47-.45,4.92-.62,9.83-1.27,14.75-1.89h16.57c1.82.17,3.64.34,5.47.52,12.31,5.98,24.62,11.96,36.89,17.95,4.4,3.16,8.8,6.33,13.2,9.52,1.93,1.68,3.71,3.54,5.81,4.99,14.99,10.31,32.18,8.42,48.79,7.53,6.39-.34,12.55-4.74,18.81-7.29.58.28,1.17.31,1.79.14,1.31-1.07,2.58-2.13,3.85-3.2l-.21-.62c1.86-1.13,3.75-2.3,5.6-3.44,1.31-1.17,2.61-2.34,3.92-3.54.58-.58,1.13-1.17,1.72-1.75.89-.55,1.82-1.1,2.72-1.65h.1c1.48-.62,2.99-1.2,4.47-1.82,2.44-2.06,4.92-4.16,7.36-6.22h0c.58.28,1.17.31,1.79.14,8.01-3.61,16.06-7.19,24.07-10.8,2.44.1,4.92.17,7.36.28,1.2,0,2.41.03,3.61.07l5.57-.69c.62.21,1.27.41,1.89.62h7.36l-.14-.62c1.89,0,3.78-.03,5.67-.07,17.57,5.78,33.21,14.96,48,25.96,7.43,5.54,15.82,9.73,23.76,14.51h12.93c11.17,4.92,34.59-1.68,44.39-12.48.58,0,1.1-.14,1.65-.38l3.68-1.86c-.52-1.51-1.03-3.03-1.55-4.54l1.55,4.54,31.39-23.45c5.57-.69,11.14-1.72,16.74-1.99,8.49-.41,17.02-.28,25.55-.38,4.92,1.24,9.83,2.48,14.75,3.71,11.55,2.54,21.32,8.15,29.26,16.95,5.36,4.23,10.49,8.87,16.19,12.55,6.26,4.06,12.69,7.98,19.84,8.11,4.85-23.59,7.39-48.03,7.39-73.06C722.01,161.63,560.38,0,361,0ZM78.22,151.72c.38.52.76,1,1.17,1.48-.41-.48-.83-1-1.17-1.48h0Zm-41.19,61.89c6.36,4.44,12.72,8.9,19.08,13.34,13.27,3.68,24.96,13.58,39.68,11.17,8.77-1.44,18.88,0,25.1-8.9-2.48.07-4.95.17-7.39.31,2.48-.1,4.95-.21,7.39-.31l5.29-1.68c4.88-3.13,9.8-6.26,14.68-9.39,0-1.86,0-3.75-.03-5.6,0,1.86,0,3.75.03,5.6,2.41-.72,4.81-1.44,7.22-2.2l11-9.04,5.91-5.36c.55,0,1.13-.14,1.65-.34,13.51-1.89,27.02-3.75,40.54-5.64,3.64.17,7.29.34,10.93.55,12.34,5.43,24.48,11.28,34.83,20.18,1.93.48,3.89.96,5.81,1.48.72.72,1.41,1.41,2.13,2.13.48.69,1,1.38,1.48,2.06,6.12,3.71,12.24,7.43,18.36,11.14l3.82,1.2,11.07,3.64c6.12-.62,12.24-1.2,18.36-1.82h3.75c13.58-2.44,25.37-8.35,35.24-18.02l5.29-4.02,5.88-7.01c.55-.55,1.1-1.1,1.62-1.65,1.82-.65,3.64-1.31,5.47-1.99l5.47-2.37c3.71-1.07,7.43-2.13,11.17-3.2.58-.14,1.17-.28,1.75-.48,7.98-.41,15.99-.83,23.96-1.27,2.44-.17,4.92-.38,7.36-.55,4.88.79,9.76,1.58,14.65,2.37,2.48,1.07,4.99,2.13,7.46,3.2,1.17.1,2.34.24,3.51.34.65.69,1.31,1.38,1.96,2.06,1.89,1.72,3.75,3.44,5.64,5.12,1.82,1.34,3.61,2.68,5.43,4.02,7.32,4.85,14.68,9.73,22,14.58,2.37,1.72,4.5,3.82,7.08,5.05,11.31,5.43,23.1,7.43,35.41,3.78,14.47,1,25.79-6.57,37.06-13.89,6.26-4.09,12.14-8.77,18.19-13.17,17.19-14.51,37.65-14.51,58.24-12.48,20.9,2.06,35.21,16.5,50.54,28.74,1.17.58,2.34,1.13,3.51,1.72,1.48,3.33,2.89,6.74,4.3,10.11-2.03-1.44-4.06-2.89-6.12-4.33-1.27-1.24-2.51-2.48-3.78-3.71-1.24-1.24-2.51-2.44-3.75-3.68-2.37-1.38-4.74-2.75-7.15-4.16-.62-.52-1.2-1.03-1.82-1.55-5.5-3.09-11.04-6.22-16.54-9.32-1.24-.58-2.48-1.2-3.71-1.79-8.01-2.3-15.99-4.61-24-6.91h-12.89c-4.33,1.03-8.7,2.03-13.03,3.06-2.44,1.24-4.88,2.48-7.32,3.71-4.26,1.86-8.56,3.68-12.82,5.54-.52.24-1.07.38-1.62.41-9.9,7.87-19.84,15.75-29.77,23.62l-5.6,1.65c-1.86.72-3.68,1.44-5.54,2.13-.58.07-1.13.21-1.68.41-14.72-.17-29.43-.31-44.18-.48-2.37-.62-4.74-1.2-7.12-1.82-12.41-9.11-24.82-18.19-37.2-27.3-3.58-1.34-7.19-2.65-10.76-3.99-4.33-1.27-8.66-2.54-13-3.82-4.33-1.24-8.66-2.48-13-3.75-10.56,2.48-21.11,4.99-31.67,7.46-1.72.83-3.44,1.65-5.16,2.48-5.6,4.13-11.21,8.22-16.81,12.34-.55.58-1.13,1.13-1.68,1.72-5.54,3.68-11.07,7.39-16.61,11.07-.62.1-1.17.31-1.72.62-1.24.45-2.51.89-3.75,1.34-1.2.72-2.41,1.44-3.61,2.17-10.28,1.17-20.53,2.89-30.84,3.33-7.39.31-14.85-1.13-22.31-1.79l-5.88-3.23c-11.24-7.98-22.21-16.4-33.8-23.83-18.53-11.9-38.37-17.64-60.27-9.73-5.5,1.75-11,3.51-16.5,5.29l.17.58c-4.23,2.41-8.46,4.85-12.69,7.25-.45,1.07-.55,2.54-1.34,3.09-8.29,5.74-16.67,11.31-25.03,16.92-.55.55-1.13,1.1-1.68,1.68-12.24,1.41-24.51,2.85-36.75,4.26h0c-3.03.41-6.05.79-9.08,1.2-3.75-1.65-7.46-3.27-11.21-4.92-1.79-.72-3.61-1.44-5.4-2.17-7.53-5.26-14.78-10.93-22.69-15.57-1.13-.69-2.58-.89-4.09-.93,1.27-2.72,2.54-5.43,3.85-8.11h.07Zm328.58,19.18h-5.54c-.03.72-.14,1.38-.24,1.93.1-.58.17-1.2.24-1.93h5.54Zm-223.62,2.34h0c-.1-.28-.17-.58-.28-.86.1.28.17.62.28.86Zm569.94,109.74c-1.27-.41-2.51-.86-3.78-1.27-11-5.71-21.97-11.38-32.97-17.09-1.24-1.17-2.51-2.37-3.75-3.54-6.12-3.71-12.24-7.46-18.36-11.17-3.13-1.03-6.26-2.06-9.39-3.09-4.26-1.24-8.56-2.48-12.82-3.75-23.76-2.99-41.84,9.45-60.06,21.8-6.84,4.64-13.99,8.84-20.97,13.2-9.83,1.86-19.67,3.71-29.5,5.54l-14.72-.45c-3.13-.1-6.26-.21-9.39-.31-8.46-3.58-16.95-7.12-25.41-10.69-3.71-2.51-7.43-5.05-11.14-7.56-4.37-4.06-8.7-8.15-13.06-12.21-7.36-2.65-14.68-5.29-22.04-7.94-21.39-5.33-40.23.52-57.49,13.13.24.55.28,1.13.07,1.72-.52.07-1.03.14-1.55.21h.03c-3.71,2.3-7.43,4.64-11.14,6.94-.45.34-.96.52-1.51.48-4.4,3.68-8.8,7.36-13.2,11.07-2.48.65-4.95,1.34-7.39,1.99-16.4,5.57-33.07,4.13-49.75,1.68-1.79-.28-3.64-.28-5.43-.41-9.8-6.15-19.63-12.31-29.43-18.43-2.06-1.58-4.16-3.16-6.22-4.74-10.14-10.93-23.65-14.03-37.51-14.99-9.25-.62-18.67,1-27.99,1.65-4.37,2.3-8.73,4.57-13.1,6.88-18.88,14.99-37.58,30.32-62.68,33.83h0c-4.3,0-8.56.03-12.86.07l-9.21-1.79c-2.44-.17-4.88-.34-7.29-.48-3.68-1.27-7.36-2.51-11.04-3.78-4.23-2.41-8.46-4.85-12.65-7.25-11.41-10.93-23.52-20.84-38.95-25.72-.76-.17-1.51-.34-2.23-.52.62-3.47,1.31-6.91,2.06-10.38,3.78.96,7.46,2.17,11.21,3.3.55.21,1.13.31,1.72.34,3.3,2.3,6.57,4.68,9.9,6.94,8.35,5.71,16.74,11.38,25.1,17.09h0c2.48,1.72,4.99,3.44,7.46,5.16,1.2.14,2.41.28,3.61.38,2.48,1.1,4.95,2.17,7.43,3.27,9.83,0,19.63,0,29.46-.03h0c3.68-.96,7.36-1.93,11.07-2.89,2.48-.72,4.95-1.41,7.43-2.13,4.88-3.23,9.76-6.46,14.65-9.7l5.84-4.95c5.4-3.27,10.76-6.53,16.16-9.8.03-.52.14-1,.24-1.48h-.03c1.2-.62,2.41-1.24,3.64-1.86,2.41-.72,4.85-1.41,7.25-2.13.07-.48.1-.93.17-1.41l12.65-3.44c8.77.31,17.5.58,26.27.89,1.72.1,3.4.17,5.12.28.72-.34,1.48-.72,2.2-1.07,3.54,1.07,7.12,2.17,10.66,3.23,2.44,1.24,4.88,2.48,7.32,3.68,1.31,1.1,2.65,2.17,3.95,3.27,5.5,3.71,11,7.39,16.5,11.11,17.78,12.1,35.38,24.75,58.93,18.39,5.33-1.07,10.86-1.48,15.92-3.3,7.08-2.58,13.79-6.22,20.66-9.39,9.42-7.29,18.84-14.58,28.23-21.87.55.03,1.07-.07,1.51-.34,3.71-1.1,7.43-2.23,11.11-3.33l14.68-2.27c15.61-.83,29.77,4.78,44.04,9.9,4.26,3.16,8.35,6.6,12.86,9.42,11.66,7.25,23.48,14.2,35.21,21.25,1.24,0,2.44,0,3.68-.03,14.44,3.58,29.02,4.06,42.08-3.54,12.96-7.53,24.86-16.85,37.23-25.37,4.95-2.51,9.87-5.02,14.82-7.53,1.17-.14,2.34-.28,3.51-.41,4.26-.62,8.53-1.2,12.79-1.82,13.58,1.24,27.16,2.48,40.71,3.71,1.2.58,2.41,1.2,3.64,1.79.55.21,1.1.34,1.68.38,7.05,4.81,14.1,9.63,21.14,14.47,7.12,4.88,14.27,9.76,21.39,14.68h3.68c1.86,1.31,3.71,2.61,5.54,3.92,3.33-.03,6.67-.07,9.97-.14.41,4.06.79,8.11,1.1,12.17-3.09-.41-6.19-.83-9.28-1.24v-.17Zm-23.83,93.96c-1.34.93-2.68,1.86-3.99,2.82,1.34-.93,2.65-1.86,3.99-2.82-1.86-1.2-3.71-2.41-5.57-3.61-1.2-.65-2.41-1.31-3.61-1.96-.76-.79-1.55-1.62-2.3-2.41-.17-.28-.41-.45-.72-.55-1.44-.89-2.89-1.79-4.33-2.68-3.68-2.96-7.39-5.88-11.07-8.84-6.74-8.32-16.67-7.84-25.89-9.35-1.24-.45-2.51-.89-3.75-1.34h-22.11c-11.48,5.29-25.61,8.08-33.83,16.57-10.66,10.97-22.9,18.29-36.31,21.21-14.06,3.06-29.33.76-44.04.83-2.44-.72-4.88-1.48-7.32-2.2-9.8-6.94-19.39-14.2-29.46-20.77-7.08-4.61-14.78-8.25-22.21-12.31-13.92-5.57-28.06-4.92-42.32-1.51-2.44.07-4.85.1-7.29.17-1.31,1.03-2.61,2.03-3.92,3.06-1.13.1-2.3.24-3.44.34-.65,1.24-1.34,2.44-1.99,3.68-1.2,0-2.41.03-3.61.07-1.89,2.34-3.78,4.68-5.67,6.98-6.19,4.33-12.34,8.63-18.53,12.96-3.03,1.79-6.09,3.58-9.11,5.36-1.86.69-3.75,1.34-5.6,2.03-1.17.14-2.34.24-3.51.38-11.66,1.24-23.34,2.48-35,3.71-2.44-.14-4.88-.31-7.32-.45l-9.28-3.27c-1.82-.17-3.64-.34-5.43-.52-3.71-2.3-7.43-4.57-11.14-6.88-3.09-2.03-6.15-4.09-9.28-6.09-11.62-7.39-23.24-14.72-34.86-22.07-2.48-.41-4.95-.86-7.43-1.27h-11.07c-8.6,1.24-17.19,2.44-25.79,3.68-3.16,1.72-6.29,3.4-9.45,5.12l-1.72,1.72c-4.33,3.09-8.66,6.22-13,9.32-.58.58-1.13,1.17-1.72,1.75-1.89,1.24-3.78,2.51-5.67,3.75-.55,0-1.1.14-1.62.41-3.71,2.3-7.43,4.61-11.14,6.91-2.44,1.24-4.92,2.48-7.36,3.71-4.33,1.24-8.66,2.51-13,3.75-.58.03-1.13.17-1.65.41h-3.68c-10.25-.65-20.63-.48-30.7-2.13-15.23-2.48-27.47-11.17-39.13-20.9-9.21-7.67-18.88-14.82-31.01-17.02,4.47,34.04,13.72,66.6,26.99,96.96,7.7,5.5,15.47,10.97,23.48,15.99,7.67,4.81,16.26,10.14,24.89,11.11,17.64,1.99,35.83,2.03,50.64-10.9,2.37-2.06,4.23-4.64,6.36-7.01.58-.03,1.13-.21,1.65-.45,1.58-.55,3.47-.72,4.64-1.75,13.51-11.76,29.29-18.15,46.93-20.32l3.71.62h1.79l1.86-.62c3.71.21,7.39.41,11.11.65h3.71l-.17-.58c3.68.76,7.39,1.51,11.07,2.3,12.76,1.44,22.11,8.7,31.49,16.92,7.56,6.64,16.64,11.69,25.41,16.78,11.96,6.95,25.65,6.74,38.09,3.89,11.9-2.75,22.83-9.59,34.21-14.65.17-.62.58-.93,1.2-.96,1.51-1.82,3.03-3.64,4.54-5.47,2.99-3.06,6.02-6.15,9.01-9.21,1.82-1.17,3.61-2.37,5.43-3.54.58-.21,1.2-.17,1.75.1,7.98-1.82,15.99-3.68,23.96-5.5,3.09,0,6.15,0,9.25-.03,3.68,0,7.36,0,11.04.03h7.25c9.83,3.51,19.7,6.95,29.53,10.42.48.34,1,.52,1.58.45,2.54,2.1,5.05,4.19,7.6,6.26,18.26,15.09,38.09,26.92,62.85,22.69,10.59-1.82,22.49-5.09,30.36-11.76,14.78-12.55,29.6-23.79,48.75-28.26,9.8-.24,19.6-.48,29.4-.69,2.48.14,4.95.28,7.43.41v.45c1.79.48,3.61.96,5.43,1.41,6.77,3.03,13.55,6.02,20.32,9.04,3.61,1.96,7.22,3.95,10.83,5.91,1.89,1.89,3.78,3.78,5.64,5.67l2.34,2.34c10.69-22.21,19.12-45.69,25.1-70.14-7.29-2.54-14.54-5.09-21.83-7.63-.55-.28-1.1-.48-1.72-.58l.07-.1Zm-517.82-21.83h0c1.24-.62,2.48-1.24,3.68-1.86-1.24.62-2.48,1.24-3.68,1.86Zm51.61,70h-5.54,5.54c.52.07,1.07.14,1.58.21-.52-.07-1.03-.14-1.58-.21Zm420.79-42.36c.1-.34.41-.79.58-1.17h0c-.17.38-.48.79-.58,1.13v.03Zm-264.08-31.18h0v-.03h-.07l.07.03Z" fill="#3a9cda"></path></g></svg>