<svg xmlns="http://www.w3.org/2000/svg" width="85" height="73.074" viewBox="0 0 85 73.074"><path d="M29.608,2.024A4.23,4.23,0,0,0,26.026,0H4.25a4.259,4.259,0,0,0-3.6,6.517l5.606,8.237,28.03-6.071Z" transform="translate(0)" fill="#c9f4ff"></path><path d="M43.825,22.556a4.27,4.27,0,0,0-3.6-2.024h-21.7A4.23,4.23,0,0,0,14.8,27.089l6.254,9.917,28.961-4.533Z" transform="translate(-9.42 -13.712)" fill="#51b9ff"></path><path d="M32.934,55.826a4.331,4.331,0,0,1-.385-3.8A4.27,4.27,0,0,1,36.6,49.309h21.7a4.25,4.25,0,0,1,3.6,2.024l19.489,30.9a4.291,4.291,0,0,1,.648,2.267,4.351,4.351,0,0,1-.648,2.267L70.5,104.033a4.27,4.27,0,0,1-7.2,0Z" transform="translate(-21.56 -32.937)" fill="#007bfc"></path><path d="M164.95,32.765a4.27,4.27,0,0,0,7.2,0l3.744-5.93L183.043,15.5a4.291,4.291,0,0,0,.648-2.267,4.351,4.351,0,0,0-.648-2.267l-5.667-8.945A4.27,4.27,0,0,0,173.774,0H152a4.25,4.25,0,0,0-4.25,4.25,4.049,4.049,0,0,0,.668,2.267Z" transform="translate(-98.691)" fill="#007bfc"></path></svg>